<?xml version="1.0" encoding="UTF-8" standalone="no"?>
<!DOCTYPE svg PUBLIC "-//W3C//DTD SVG 1.1//EN"
 "http://www.w3.org/Graphics/SVG/1.1/DTD/svg11.dtd">
<!-- Generated by graphviz version 2.30.1 (20130419.0519)
 -->
<!-- Title: controllers_diagram Pages: 1 -->
<svg width="762pt" height="906pt"
 viewBox="0.00 0.00 761.63 905.80" xmlns="http://www.w3.org/2000/svg" xmlns:xlink="http://www.w3.org/1999/xlink">
<g id="graph0" class="graph" transform="scale(1 1) rotate(0) translate(4 901.8)">
<title>controllers_diagram</title>
<polygon fill="white" stroke="white" points="-4,5 -4,-901.8 758.635,-901.8 758.635,5 -4,5"/>
<!-- _diagram_info -->
<g id="node1" class="node"><title>_diagram_info</title>
<text text-anchor="start" x="296" y="-613" font-family="Times,serif" font-size="13.00">Controllers diagram</text>
<text text-anchor="start" x="296" y="-597.4" font-family="Times,serif" font-size="13.00">Date: May 02 2013 &#45; 15:02</text>
<text text-anchor="start" x="296" y="-581.8" font-family="Times,serif" font-size="13.00">Migration version: 20130502210253</text>
<text text-anchor="start" x="296" y="-566.2" font-family="Times,serif" font-size="13.00">Generated by RailRoady 1.1.0</text>
<text text-anchor="start" x="296" y="-550.6" font-family="Times,serif" font-size="13.00">http://railroady.prestonlee.com</text>
</g>
<!-- ApplicationController -->
<g id="node2" class="node"><title>ApplicationController</title>
<path fill="none" stroke="black" d="M76,-292.083C76,-292.083 261.635,-292.083 261.635,-292.083 267.635,-292.083 273.635,-298.083 273.635,-304.083 273.635,-304.083 273.635,-412.083 273.635,-412.083 273.635,-418.083 267.635,-424.083 261.635,-424.083 261.635,-424.083 76,-424.083 76,-424.083 70,-424.083 64,-418.083 64,-412.083 64,-412.083 64,-304.083 64,-304.083 64,-298.083 70,-292.083 76,-292.083"/>
<text text-anchor="middle" x="168.817" y="-406.083" font-family="Times,serif" font-size="14.00">ApplicationController</text>
<polyline fill="none" stroke="black" points="64,-399.283 273.635,-399.283 "/>
<text text-anchor="start" x="72" y="-381.283" font-family="Times,serif" font-size="14.00">_one_time_conditions_valid_166?</text>
<text text-anchor="start" x="72" y="-364.483" font-family="Times,serif" font-size="14.00">get_remote_ip</text>
<polyline fill="none" stroke="black" points="64,-357.683 273.635,-357.683 "/>
<polyline fill="none" stroke="black" points="64,-333.683 273.635,-333.683 "/>
<text text-anchor="start" x="72" y="-315.683" font-family="Times,serif" font-size="14.00">_layout</text>
<text text-anchor="start" x="72" y="-298.883" font-family="Times,serif" font-size="14.00">after_sign_in_path_for</text>
</g>
<!-- UsersController -->
<g id="node7" class="node"><title>UsersController</title>
<path fill="none" stroke="black" d="M293.131,-259.914C293.131,-259.914 478.766,-259.914 478.766,-259.914 484.766,-259.914 490.766,-265.914 490.766,-271.914 490.766,-271.914 490.766,-480.714 490.766,-480.714 490.766,-486.714 484.766,-492.714 478.766,-492.714 478.766,-492.714 293.131,-492.714 293.131,-492.714 287.131,-492.714 281.131,-486.714 281.131,-480.714 281.131,-480.714 281.131,-271.914 281.131,-271.914 281.131,-265.914 287.131,-259.914 293.131,-259.914"/>
<text text-anchor="middle" x="385.948" y="-474.714" font-family="Times,serif" font-size="14.00">UsersController</text>
<polyline fill="none" stroke="black" points="281.131,-467.914 490.766,-467.914 "/>
<text text-anchor="start" x="289.131" y="-449.914" font-family="Times,serif" font-size="14.00">_one_time_conditions_valid_378?</text>
<text text-anchor="start" x="289.131" y="-433.114" font-family="Times,serif" font-size="14.00">_one_time_conditions_valid_380?</text>
<text text-anchor="start" x="289.131" y="-416.314" font-family="Times,serif" font-size="14.00">approve</text>
<text text-anchor="start" x="289.131" y="-399.514" font-family="Times,serif" font-size="14.00">deny</text>
<text text-anchor="start" x="289.131" y="-382.714" font-family="Times,serif" font-size="14.00">manage</text>
<text text-anchor="start" x="289.131" y="-365.914" font-family="Times,serif" font-size="14.00">transfer</text>
<text text-anchor="start" x="289.131" y="-349.114" font-family="Times,serif" font-size="14.00">update</text>
<polyline fill="none" stroke="black" points="281.131,-342.314 490.766,-342.314 "/>
<polyline fill="none" stroke="black" points="281.131,-318.314 490.766,-318.314 "/>
<text text-anchor="start" x="289.131" y="-300.314" font-family="Times,serif" font-size="14.00">_layout</text>
<text text-anchor="start" x="289.131" y="-283.514" font-family="Times,serif" font-size="14.00">authorize_resource</text>
<text text-anchor="start" x="289.131" y="-266.714" font-family="Times,serif" font-size="14.00">load_user</text>
</g>
<!-- ApplicationController&#45;&gt;UsersController -->
<g id="edge1" class="edge"><title>ApplicationController&#45;&gt;UsersController</title>
<path fill="none" stroke="black" d="M273.885,-366.905C276.266,-367.105 278.65,-367.305 281.031,-367.505"/>
</g>
<!-- WelcomeController -->
<g id="node8" class="node"><title>WelcomeController</title>
<path fill="none" stroke="black" d="M196.076,-0.5C196.076,-0.5 381.711,-0.5 381.711,-0.5 387.711,-0.5 393.711,-6.5 393.711,-12.5 393.711,-12.5 393.711,-204.5 393.711,-204.5 393.711,-210.5 387.711,-216.5 381.711,-216.5 381.711,-216.5 196.076,-216.5 196.076,-216.5 190.076,-216.5 184.076,-210.5 184.076,-204.5 184.076,-204.5 184.076,-12.5 184.076,-12.5 184.076,-6.5 190.076,-0.5 196.076,-0.5"/>
<text text-anchor="middle" x="288.893" y="-198.5" font-family="Times,serif" font-size="14.00">WelcomeController</text>
<polyline fill="none" stroke="black" points="184.076,-191.7 393.711,-191.7 "/>
<text text-anchor="start" x="192.076" y="-173.7" font-family="Times,serif" font-size="14.00">_one_time_conditions_valid_384?</text>
<text text-anchor="start" x="192.076" y="-156.9" font-family="Times,serif" font-size="14.00">_one_time_conditions_valid_388?</text>
<text text-anchor="start" x="192.076" y="-140.1" font-family="Times,serif" font-size="14.00">dashboard</text>
<text text-anchor="start" x="192.076" y="-123.3" font-family="Times,serif" font-size="14.00">faq</text>
<text text-anchor="start" x="192.076" y="-106.5" font-family="Times,serif" font-size="14.00">landing</text>
<text text-anchor="start" x="192.076" y="-89.7" font-family="Times,serif" font-size="14.00">legal</text>
<text text-anchor="start" x="192.076" y="-72.9" font-family="Times,serif" font-size="14.00">status</text>
<polyline fill="none" stroke="black" points="184.076,-66.1 393.711,-66.1 "/>
<polyline fill="none" stroke="black" points="184.076,-42.1 393.711,-42.1 "/>
<text text-anchor="start" x="192.076" y="-24.1" font-family="Times,serif" font-size="14.00">_layout</text>
<text text-anchor="start" x="192.076" y="-7.3" font-family="Times,serif" font-size="14.00">set_selected_feed</text>
</g>
<!-- ApplicationController&#45;&gt;WelcomeController -->
<g id="edge2" class="edge"><title>ApplicationController&#45;&gt;WelcomeController</title>
<path fill="none" stroke="black" d="M200.68,-291.855C211.797,-268.749 224.58,-242.178 236.903,-216.565"/>
</g>
<!-- FeedsController -->
<g id="node3" class="node"><title>FeedsController</title>
<path fill="none" stroke="black" d="M556,-512.5C556,-512.5 741.635,-512.5 741.635,-512.5 747.635,-512.5 753.635,-518.5 753.635,-524.5 753.635,-524.5 753.635,-885.3 753.635,-885.3 753.635,-891.3 747.635,-897.3 741.635,-897.3 741.635,-897.3 556,-897.3 556,-897.3 550,-897.3 544,-891.3 544,-885.3 544,-885.3 544,-524.5 544,-524.5 544,-518.5 550,-512.5 556,-512.5"/>
<text text-anchor="middle" x="648.817" y="-879.3" font-family="Times,serif" font-size="14.00">FeedsController</text>
<polyline fill="none" stroke="black" points="544,-872.5 753.635,-872.5 "/>
<text text-anchor="start" x="552" y="-854.5" font-family="Times,serif" font-size="14.00">_callback_before_213</text>
<text text-anchor="start" x="552" y="-837.7" font-family="Times,serif" font-size="14.00">_one_time_conditions_valid_208?</text>
<text text-anchor="start" x="552" y="-820.9" font-family="Times,serif" font-size="14.00">_one_time_conditions_valid_210?</text>
<text text-anchor="start" x="552" y="-804.1" font-family="Times,serif" font-size="14.00">_one_time_conditions_valid_214?</text>
<text text-anchor="start" x="552" y="-787.3" font-family="Times,serif" font-size="14.00">create</text>
<text text-anchor="start" x="552" y="-770.5" font-family="Times,serif" font-size="14.00">destroy</text>
<text text-anchor="start" x="552" y="-753.7" font-family="Times,serif" font-size="14.00">grant</text>
<text text-anchor="start" x="552" y="-736.9" font-family="Times,serif" font-size="14.00">index</text>
<text text-anchor="start" x="552" y="-720.1" font-family="Times,serif" font-size="14.00">show</text>
<text text-anchor="start" x="552" y="-703.3" font-family="Times,serif" font-size="14.00">update</text>
<polyline fill="none" stroke="black" points="544,-696.5 753.635,-696.5 "/>
<text text-anchor="start" x="552" y="-678.5" font-family="Times,serif" font-size="14.00">collection_path</text>
<text text-anchor="start" x="552" y="-661.7" font-family="Times,serif" font-size="14.00">collection_url</text>
<text text-anchor="start" x="552" y="-644.9" font-family="Times,serif" font-size="14.00">edit_resource_path</text>
<text text-anchor="start" x="552" y="-628.1" font-family="Times,serif" font-size="14.00">edit_resource_url</text>
<text text-anchor="start" x="552" y="-611.3" font-family="Times,serif" font-size="14.00">new_resource_path</text>
<text text-anchor="start" x="552" y="-594.5" font-family="Times,serif" font-size="14.00">new_resource_url</text>
<text text-anchor="start" x="552" y="-577.7" font-family="Times,serif" font-size="14.00">resource_path</text>
<text text-anchor="start" x="552" y="-560.9" font-family="Times,serif" font-size="14.00">resource_url</text>
<polyline fill="none" stroke="black" points="544,-554.1 753.635,-554.1 "/>
<text text-anchor="start" x="552" y="-536.1" font-family="Times,serif" font-size="14.00">_layout</text>
<text text-anchor="start" x="552" y="-519.3" font-family="Times,serif" font-size="14.00">set_user_id</text>
</g>
<!-- PermissionsController -->
<g id="node4" class="node"><title>PermissionsController</title>
<path fill="none" stroke="black" d="M44,-512.5C44,-512.5 229.635,-512.5 229.635,-512.5 235.635,-512.5 241.635,-518.5 241.635,-524.5 241.635,-524.5 241.635,-750.9 241.635,-750.9 241.635,-756.9 235.635,-762.9 229.635,-762.9 229.635,-762.9 44,-762.9 44,-762.9 38,-762.9 32,-756.9 32,-750.9 32,-750.9 32,-524.5 32,-524.5 32,-518.5 38,-512.5 44,-512.5"/>
<text text-anchor="middle" x="136.817" y="-744.9" font-family="Times,serif" font-size="14.00">PermissionsController</text>
<polyline fill="none" stroke="black" points="32,-738.1 241.635,-738.1 "/>
<text text-anchor="start" x="40" y="-720.1" font-family="Times,serif" font-size="14.00">_callback_before_223</text>
<text text-anchor="start" x="40" y="-703.3" font-family="Times,serif" font-size="14.00">_one_time_conditions_valid_222?</text>
<text text-anchor="start" x="40" y="-686.5" font-family="Times,serif" font-size="14.00">_one_time_conditions_valid_224?</text>
<polyline fill="none" stroke="black" points="32,-679.7 241.635,-679.7 "/>
<text text-anchor="start" x="40" y="-661.7" font-family="Times,serif" font-size="14.00">collection_path</text>
<text text-anchor="start" x="40" y="-644.9" font-family="Times,serif" font-size="14.00">collection_url</text>
<text text-anchor="start" x="40" y="-628.1" font-family="Times,serif" font-size="14.00">edit_resource_path</text>
<text text-anchor="start" x="40" y="-611.3" font-family="Times,serif" font-size="14.00">edit_resource_url</text>
<text text-anchor="start" x="40" y="-594.5" font-family="Times,serif" font-size="14.00">new_resource_path</text>
<text text-anchor="start" x="40" y="-577.7" font-family="Times,serif" font-size="14.00">new_resource_url</text>
<text text-anchor="start" x="40" y="-560.9" font-family="Times,serif" font-size="14.00">resource_path</text>
<text text-anchor="start" x="40" y="-544.1" font-family="Times,serif" font-size="14.00">resource_url</text>
<polyline fill="none" stroke="black" points="32,-537.3 241.635,-537.3 "/>
<text text-anchor="start" x="40" y="-519.3" font-family="Times,serif" font-size="14.00">_layout</text>
</g>
<!-- RegistrationsController -->
<g id="node5" class="node"><title>RegistrationsController</title>
<path fill="none" stroke="black" d="M12,-128.5C12,-128.5 135.428,-128.5 135.428,-128.5 141.428,-128.5 147.428,-134.5 147.428,-140.5 147.428,-140.5 147.428,-214.9 147.428,-214.9 147.428,-220.9 141.428,-226.9 135.428,-226.9 135.428,-226.9 12,-226.9 12,-226.9 6,-226.9 0,-220.9 0,-214.9 0,-214.9 0,-140.5 0,-140.5 0,-134.5 6,-128.5 12,-128.5"/>
<text text-anchor="middle" x="73.7139" y="-208.9" font-family="Times,serif" font-size="14.00">RegistrationsController</text>
<polyline fill="none" stroke="black" points="0,-202.1 147.428,-202.1 "/>
<text text-anchor="start" x="8" y="-184.1" font-family="Times,serif" font-size="14.00">destroy</text>
<polyline fill="none" stroke="black" points="0,-177.3 147.428,-177.3 "/>
<polyline fill="none" stroke="black" points="0,-153.3 147.428,-153.3 "/>
<text text-anchor="start" x="8" y="-135.3" font-family="Times,serif" font-size="14.00">_layout</text>
</g>
<!-- TorrentsController -->
<g id="node6" class="node"><title>TorrentsController</title>
<path fill="none" stroke="black" d="M556,-0.5C556,-0.5 741.635,-0.5 741.635,-0.5 747.635,-0.5 753.635,-6.5 753.635,-12.5 753.635,-12.5 753.635,-457.3 753.635,-457.3 753.635,-463.3 747.635,-469.3 741.635,-469.3 741.635,-469.3 556,-469.3 556,-469.3 550,-469.3 544,-463.3 544,-457.3 544,-457.3 544,-12.5 544,-12.5 544,-6.5 550,-0.5 556,-0.5"/>
<text text-anchor="middle" x="648.817" y="-451.3" font-family="Times,serif" font-size="14.00">TorrentsController</text>
<polyline fill="none" stroke="black" points="544,-444.5 753.635,-444.5 "/>
<text text-anchor="start" x="552" y="-426.5" font-family="Times,serif" font-size="14.00">_one_time_conditions_valid_368?</text>
<text text-anchor="start" x="552" y="-409.7" font-family="Times,serif" font-size="14.00">_one_time_conditions_valid_372?</text>
<text text-anchor="start" x="552" y="-392.9" font-family="Times,serif" font-size="14.00">_one_time_conditions_valid_374?</text>
<text text-anchor="start" x="552" y="-376.1" font-family="Times,serif" font-size="14.00">announce</text>
<text text-anchor="start" x="552" y="-359.3" font-family="Times,serif" font-size="14.00">create</text>
<text text-anchor="start" x="552" y="-342.5" font-family="Times,serif" font-size="14.00">destroy</text>
<text text-anchor="start" x="552" y="-325.7" font-family="Times,serif" font-size="14.00">http_basic_authenticate</text>
<text text-anchor="start" x="552" y="-308.9" font-family="Times,serif" font-size="14.00">scrape</text>
<text text-anchor="start" x="552" y="-292.1" font-family="Times,serif" font-size="14.00">search</text>
<text text-anchor="start" x="552" y="-275.3" font-family="Times,serif" font-size="14.00">show</text>
<text text-anchor="start" x="552" y="-258.5" font-family="Times,serif" font-size="14.00">tags</text>
<text text-anchor="start" x="552" y="-241.7" font-family="Times,serif" font-size="14.00">update</text>
<polyline fill="none" stroke="black" points="544,-234.9 753.635,-234.9 "/>
<text text-anchor="start" x="552" y="-216.9" font-family="Times,serif" font-size="14.00">collection_path</text>
<text text-anchor="start" x="552" y="-200.1" font-family="Times,serif" font-size="14.00">collection_url</text>
<text text-anchor="start" x="552" y="-183.3" font-family="Times,serif" font-size="14.00">edit_resource_path</text>
<text text-anchor="start" x="552" y="-166.5" font-family="Times,serif" font-size="14.00">edit_resource_url</text>
<text text-anchor="start" x="552" y="-149.7" font-family="Times,serif" font-size="14.00">new_resource_path</text>
<text text-anchor="start" x="552" y="-132.9" font-family="Times,serif" font-size="14.00">new_resource_url</text>
<text text-anchor="start" x="552" y="-116.1" font-family="Times,serif" font-size="14.00">resource_path</text>
<text text-anchor="start" x="552" y="-99.3" font-family="Times,serif" font-size="14.00">resource_url</text>
<polyline fill="none" stroke="black" points="544,-92.5 753.635,-92.5 "/>
<text text-anchor="start" x="552" y="-74.5" font-family="Times,serif" font-size="14.00">_layout</text>
<text text-anchor="start" x="552" y="-57.7" font-family="Times,serif" font-size="14.00">load_from_info_hash</text>
<text text-anchor="start" x="552" y="-40.9" font-family="Times,serif" font-size="14.00">peer_params</text>
<text text-anchor="start" x="552" y="-24.1" font-family="Times,serif" font-size="14.00">rsize</text>
<text text-anchor="start" x="552" y="-7.3" font-family="Times,serif" font-size="14.00">set_params_from_torrent</text>
</g>
</g>
</svg>
