<?xml version="1.0" encoding="UTF-8" standalone="no"?>
<!DOCTYPE svg PUBLIC "-//W3C//DTD SVG 1.1//EN"
 "http://www.w3.org/Graphics/SVG/1.1/DTD/svg11.dtd">
<!-- Generated by graphviz version 2.38.0 (20140413.2041)
 -->
<!-- Title: controllers_diagram Pages: 1 -->
<svg width="729pt" height="692pt"
 viewBox="0.00 0.00 728.95 692.00" xmlns="http://www.w3.org/2000/svg" xmlns:xlink="http://www.w3.org/1999/xlink">
<g id="graph0" class="graph" transform="scale(1 1) rotate(0) translate(251.266 460.5)">
<title>controllers_diagram</title>
<polygon fill="white" stroke="none" points="-251.266,231.5 -251.266,-460.5 477.688,-460.5 477.688,231.5 -251.266,231.5"/>
<!-- _diagram_info -->
<g id="node1" class="node"><title>_diagram_info</title>
<text text-anchor="start" x="274.312" y="-135.1" font-family="Times,serif" font-size="13.00">Controllers diagram</text>
<text text-anchor="start" x="274.312" y="-122.1" font-family="Times,serif" font-size="13.00">Date: Dec 30 2014 &#45; 12:32</text>
<text text-anchor="start" x="274.312" y="-109.1" font-family="Times,serif" font-size="13.00">Migration version: 20141227003158</text>
<text text-anchor="start" x="274.312" y="-96.1" font-family="Times,serif" font-size="13.00">Generated by RailRoady 1.3.0</text>
<text text-anchor="start" x="274.312" y="-83.1" font-family="Times,serif" font-size="13.00">http://railroady.prestonlee.com</text>
</g>
<!-- ApplicationController -->
<g id="node2" class="node"><title>ApplicationController</title>
<path fill="none" stroke="black" d="M87.5342,227C87.5342,227 254.466,227 254.466,227 260.466,227 266.466,221 266.466,215 266.466,215 266.466,121 266.466,121 266.466,115 260.466,109 254.466,109 254.466,109 87.5342,109 87.5342,109 81.5342,109 75.5342,115 75.5342,121 75.5342,121 75.5342,215 75.5342,215 75.5342,221 81.5342,227 87.5342,227"/>
<text text-anchor="middle" x="171" y="124.2" font-family="Times,serif" font-size="14.00">ApplicationController</text>
<polyline fill="none" stroke="black" points="75.5342,131 266.466,131 "/>
<text text-anchor="start" x="83.5342" y="146.2" font-family="Times,serif" font-size="14.00">get_remote_ip</text>
<polyline fill="none" stroke="black" points="75.5342,153 266.466,153 "/>
<polyline fill="none" stroke="black" points="75.5342,177 266.466,177 "/>
<text text-anchor="start" x="83.5342" y="192.2" font-family="Times,serif" font-size="14.00">_layout</text>
<text text-anchor="start" x="83.5342" y="206.2" font-family="Times,serif" font-size="14.00">after_sign_in_path_for</text>
<text text-anchor="start" x="83.5342" y="220.2" font-family="Times,serif" font-size="14.00">authenticate_user_from_token!</text>
</g>
<!-- FeedsController -->
<g id="node3" class="node"><title>FeedsController</title>
<path fill="none" stroke="black" d="M-64.4209,-172C-64.4209,-172 36.4209,-172 36.4209,-172 42.4209,-172 48.4209,-178 48.4209,-184 48.4209,-184 48.4209,-444 48.4209,-444 48.4209,-450 42.4209,-456 36.4209,-456 36.4209,-456 -64.4209,-456 -64.4209,-456 -70.4209,-456 -76.4209,-450 -76.4209,-444 -76.4209,-444 -76.4209,-184 -76.4209,-184 -76.4209,-178 -70.4209,-172 -64.4209,-172"/>
<text text-anchor="middle" x="-14" y="-440.8" font-family="Times,serif" font-size="14.00">FeedsController</text>
<polyline fill="none" stroke="black" points="-76.4209,-434 48.4209,-434 "/>
<text text-anchor="start" x="-68.4209" y="-418.8" font-family="Times,serif" font-size="14.00">create</text>
<text text-anchor="start" x="-68.4209" y="-404.8" font-family="Times,serif" font-size="14.00">destroy</text>
<text text-anchor="start" x="-68.4209" y="-390.8" font-family="Times,serif" font-size="14.00">index</text>
<text text-anchor="start" x="-68.4209" y="-376.8" font-family="Times,serif" font-size="14.00">show</text>
<text text-anchor="start" x="-68.4209" y="-362.8" font-family="Times,serif" font-size="14.00">update</text>
<polyline fill="none" stroke="black" points="-76.4209,-356 48.4209,-356 "/>
<text text-anchor="start" x="-68.4209" y="-340.8" font-family="Times,serif" font-size="14.00">collection_path</text>
<text text-anchor="start" x="-68.4209" y="-326.8" font-family="Times,serif" font-size="14.00">collection_url</text>
<text text-anchor="start" x="-68.4209" y="-312.8" font-family="Times,serif" font-size="14.00">edit_resource_path</text>
<text text-anchor="start" x="-68.4209" y="-298.8" font-family="Times,serif" font-size="14.00">edit_resource_url</text>
<text text-anchor="start" x="-68.4209" y="-284.8" font-family="Times,serif" font-size="14.00">new_resource_path</text>
<text text-anchor="start" x="-68.4209" y="-270.8" font-family="Times,serif" font-size="14.00">new_resource_url</text>
<text text-anchor="start" x="-68.4209" y="-256.8" font-family="Times,serif" font-size="14.00">resource_path</text>
<text text-anchor="start" x="-68.4209" y="-242.8" font-family="Times,serif" font-size="14.00">resource_url</text>
<polyline fill="none" stroke="black" points="-76.4209,-236 48.4209,-236 "/>
<text text-anchor="start" x="-68.4209" y="-220.8" font-family="Times,serif" font-size="14.00">_layout</text>
<text text-anchor="start" x="-68.4209" y="-206.8" font-family="Times,serif" font-size="14.00">feed_params</text>
<text text-anchor="start" x="-68.4209" y="-192.8" font-family="Times,serif" font-size="14.00">set_abilities</text>
<text text-anchor="start" x="-68.4209" y="-178.8" font-family="Times,serif" font-size="14.00">set_feed</text>
</g>
<!-- PeersController -->
<g id="node4" class="node"><title>PeersController</title>
<path fill="none" stroke="black" d="M-216.421,227C-216.421,227 -115.579,227 -115.579,227 -109.579,227 -103.579,221 -103.579,215 -103.579,215 -103.579,53 -103.579,53 -103.579,47 -109.579,41 -115.579,41 -115.579,41 -216.421,41 -216.421,41 -222.421,41 -228.421,47 -228.421,53 -228.421,53 -228.421,215 -228.421,215 -228.421,221 -222.421,227 -216.421,227"/>
<text text-anchor="middle" x="-166" y="56.2" font-family="Times,serif" font-size="14.00">PeersController</text>
<polyline fill="none" stroke="black" points="-228.421,63 -103.579,63 "/>
<text text-anchor="start" x="-220.421" y="78.2" font-family="Times,serif" font-size="14.00">index</text>
<polyline fill="none" stroke="black" points="-228.421,85 -103.579,85 "/>
<text text-anchor="start" x="-220.421" y="100.2" font-family="Times,serif" font-size="14.00">collection_path</text>
<text text-anchor="start" x="-220.421" y="114.2" font-family="Times,serif" font-size="14.00">collection_url</text>
<text text-anchor="start" x="-220.421" y="128.2" font-family="Times,serif" font-size="14.00">edit_resource_path</text>
<text text-anchor="start" x="-220.421" y="142.2" font-family="Times,serif" font-size="14.00">edit_resource_url</text>
<text text-anchor="start" x="-220.421" y="156.2" font-family="Times,serif" font-size="14.00">new_resource_path</text>
<text text-anchor="start" x="-220.421" y="170.2" font-family="Times,serif" font-size="14.00">new_resource_url</text>
<text text-anchor="start" x="-220.421" y="184.2" font-family="Times,serif" font-size="14.00">resource_path</text>
<text text-anchor="start" x="-220.421" y="198.2" font-family="Times,serif" font-size="14.00">resource_url</text>
<polyline fill="none" stroke="black" points="-228.421,205 -103.579,205 "/>
<text text-anchor="start" x="-220.421" y="220.2" font-family="Times,serif" font-size="14.00">_layout</text>
</g>
<!-- PermissionsController -->
<g id="node5" class="node"><title>PermissionsController</title>
<path fill="none" stroke="black" d="M221.39,-210C221.39,-210 338.61,-210 338.61,-210 344.61,-210 350.61,-216 350.61,-222 350.61,-222 350.61,-426 350.61,-426 350.61,-432 344.61,-438 338.61,-438 338.61,-438 221.39,-438 221.39,-438 215.39,-438 209.39,-432 209.39,-426 209.39,-426 209.39,-222 209.39,-222 209.39,-216 215.39,-210 221.39,-210"/>
<text text-anchor="middle" x="280" y="-422.8" font-family="Times,serif" font-size="14.00">PermissionsController</text>
<polyline fill="none" stroke="black" points="209.39,-416 350.61,-416 "/>
<text text-anchor="start" x="217.39" y="-400.8" font-family="Times,serif" font-size="14.00">create</text>
<text text-anchor="start" x="217.39" y="-386.8" font-family="Times,serif" font-size="14.00">destroy</text>
<text text-anchor="start" x="217.39" y="-372.8" font-family="Times,serif" font-size="14.00">index</text>
<polyline fill="none" stroke="black" points="209.39,-366 350.61,-366 "/>
<text text-anchor="start" x="217.39" y="-350.8" font-family="Times,serif" font-size="14.00">collection_path</text>
<text text-anchor="start" x="217.39" y="-336.8" font-family="Times,serif" font-size="14.00">collection_url</text>
<text text-anchor="start" x="217.39" y="-322.8" font-family="Times,serif" font-size="14.00">edit_resource_path</text>
<text text-anchor="start" x="217.39" y="-308.8" font-family="Times,serif" font-size="14.00">edit_resource_url</text>
<text text-anchor="start" x="217.39" y="-294.8" font-family="Times,serif" font-size="14.00">new_resource_path</text>
<text text-anchor="start" x="217.39" y="-280.8" font-family="Times,serif" font-size="14.00">new_resource_url</text>
<text text-anchor="start" x="217.39" y="-266.8" font-family="Times,serif" font-size="14.00">resource_path</text>
<text text-anchor="start" x="217.39" y="-252.8" font-family="Times,serif" font-size="14.00">resource_url</text>
<polyline fill="none" stroke="black" points="209.39,-246 350.61,-246 "/>
<text text-anchor="start" x="217.39" y="-230.8" font-family="Times,serif" font-size="14.00">_layout</text>
<text text-anchor="start" x="217.39" y="-216.8" font-family="Times,serif" font-size="14.00">permission_params</text>
</g>
<!-- RegistrationsController -->
<g id="node6" class="node"><title>RegistrationsController</title>
<path fill="none" stroke="black" d="M278.362,75C278.362,75 405.638,75 405.638,75 411.638,75 417.638,69 417.638,63 417.638,63 417.638,-31 417.638,-31 417.638,-37 411.638,-43 405.638,-43 405.638,-43 278.362,-43 278.362,-43 272.362,-43 266.362,-37 266.362,-31 266.362,-31 266.362,63 266.362,63 266.362,69 272.362,75 278.362,75"/>
<text text-anchor="middle" x="342" y="-27.8" font-family="Times,serif" font-size="14.00">RegistrationsController</text>
<polyline fill="none" stroke="black" points="266.362,-21 417.638,-21 "/>
<text text-anchor="start" x="274.362" y="-5.8" font-family="Times,serif" font-size="14.00">destroy</text>
<polyline fill="none" stroke="black" points="266.362,1 417.638,1 "/>
<polyline fill="none" stroke="black" points="266.362,25 417.638,25 "/>
<text text-anchor="start" x="274.362" y="40.2" font-family="Times,serif" font-size="14.00">_layout</text>
<text text-anchor="start" x="274.362" y="54.2" font-family="Times,serif" font-size="14.00">account_update_params</text>
<text text-anchor="start" x="274.362" y="68.2" font-family="Times,serif" font-size="14.00">sign_up_params</text>
</g>
<!-- TorrentsController -->
<g id="node7" class="node"><title>TorrentsController</title>
<path fill="none" stroke="black" d="M88.2446,75C88.2446,75 221.755,75 221.755,75 227.755,75 233.755,69 233.755,63 233.755,63 233.755,-155 233.755,-155 233.755,-161 227.755,-167 221.755,-167 221.755,-167 88.2446,-167 88.2446,-167 82.2446,-167 76.2446,-161 76.2446,-155 76.2446,-155 76.2446,63 76.2446,63 76.2446,69 82.2446,75 88.2446,75"/>
<text text-anchor="middle" x="155" y="-151.8" font-family="Times,serif" font-size="14.00">TorrentsController</text>
<polyline fill="none" stroke="black" points="76.2446,-145 233.755,-145 "/>
<text text-anchor="start" x="84.2446" y="-129.8" font-family="Times,serif" font-size="14.00">create</text>
<text text-anchor="start" x="84.2446" y="-115.8" font-family="Times,serif" font-size="14.00">index</text>
<text text-anchor="start" x="84.2446" y="-101.8" font-family="Times,serif" font-size="14.00">show</text>
<polyline fill="none" stroke="black" points="76.2446,-95 233.755,-95 "/>
<text text-anchor="start" x="84.2446" y="-79.8" font-family="Times,serif" font-size="14.00">collection_path</text>
<text text-anchor="start" x="84.2446" y="-65.8" font-family="Times,serif" font-size="14.00">collection_url</text>
<text text-anchor="start" x="84.2446" y="-51.8" font-family="Times,serif" font-size="14.00">edit_resource_path</text>
<text text-anchor="start" x="84.2446" y="-37.8" font-family="Times,serif" font-size="14.00">edit_resource_url</text>
<text text-anchor="start" x="84.2446" y="-23.8" font-family="Times,serif" font-size="14.00">new_resource_path</text>
<text text-anchor="start" x="84.2446" y="-9.8" font-family="Times,serif" font-size="14.00">new_resource_url</text>
<text text-anchor="start" x="84.2446" y="4.2" font-family="Times,serif" font-size="14.00">resource_path</text>
<text text-anchor="start" x="84.2446" y="18.2" font-family="Times,serif" font-size="14.00">resource_url</text>
<polyline fill="none" stroke="black" points="76.2446,25 233.755,25 "/>
<text text-anchor="start" x="84.2446" y="40.2" font-family="Times,serif" font-size="14.00">_layout</text>
<text text-anchor="start" x="84.2446" y="54.2" font-family="Times,serif" font-size="14.00">set_params_from_torrent</text>
<text text-anchor="start" x="84.2446" y="68.2" font-family="Times,serif" font-size="14.00">torrent_params</text>
</g>
<!-- TrackerController -->
<g id="node8" class="node"><title>TrackerController</title>
<path fill="none" stroke="black" d="M-235.266,-248C-235.266,-248 -122.734,-248 -122.734,-248 -116.734,-248 -110.734,-254 -110.734,-260 -110.734,-260 -110.734,-382 -110.734,-382 -110.734,-388 -116.734,-394 -122.734,-394 -122.734,-394 -235.266,-394 -235.266,-394 -241.266,-394 -247.266,-388 -247.266,-382 -247.266,-382 -247.266,-260 -247.266,-260 -247.266,-254 -241.266,-248 -235.266,-248"/>
<text text-anchor="middle" x="-179" y="-378.8" font-family="Times,serif" font-size="14.00">TrackerController</text>
<polyline fill="none" stroke="black" points="-247.266,-372 -110.734,-372 "/>
<text text-anchor="start" x="-239.266" y="-356.8" font-family="Times,serif" font-size="14.00">announce</text>
<text text-anchor="start" x="-239.266" y="-342.8" font-family="Times,serif" font-size="14.00">scrape</text>
<polyline fill="none" stroke="black" points="-247.266,-336 -110.734,-336 "/>
<polyline fill="none" stroke="black" points="-247.266,-312 -110.734,-312 "/>
<text text-anchor="start" x="-239.266" y="-296.8" font-family="Times,serif" font-size="14.00">_layout</text>
<text text-anchor="start" x="-239.266" y="-282.8" font-family="Times,serif" font-size="14.00">load_from_info_hash</text>
<text text-anchor="start" x="-239.266" y="-268.8" font-family="Times,serif" font-size="14.00">peer_params</text>
<text text-anchor="start" x="-239.266" y="-254.8" font-family="Times,serif" font-size="14.00">rsize</text>
</g>
<!-- UsersController -->
<g id="node9" class="node"><title>UsersController</title>
<path fill="none" stroke="black" d="M-64.4209,151C-64.4209,151 36.4209,151 36.4209,151 42.4209,151 48.4209,145 48.4209,139 48.4209,139 48.4209,-121 48.4209,-121 48.4209,-127 42.4209,-133 36.4209,-133 36.4209,-133 -64.4209,-133 -64.4209,-133 -70.4209,-133 -76.4209,-127 -76.4209,-121 -76.4209,-121 -76.4209,139 -76.4209,139 -76.4209,145 -70.4209,151 -64.4209,151"/>
<text text-anchor="middle" x="-14" y="-117.8" font-family="Times,serif" font-size="14.00">UsersController</text>
<polyline fill="none" stroke="black" points="-76.4209,-111 48.4209,-111 "/>
<text text-anchor="start" x="-68.4209" y="-95.8" font-family="Times,serif" font-size="14.00">approve</text>
<text text-anchor="start" x="-68.4209" y="-81.8" font-family="Times,serif" font-size="14.00">deny</text>
<text text-anchor="start" x="-68.4209" y="-67.8" font-family="Times,serif" font-size="14.00">destroy</text>
<text text-anchor="start" x="-68.4209" y="-53.8" font-family="Times,serif" font-size="14.00">index</text>
<text text-anchor="start" x="-68.4209" y="-39.8" font-family="Times,serif" font-size="14.00">manage</text>
<text text-anchor="start" x="-68.4209" y="-25.8" font-family="Times,serif" font-size="14.00">transfer</text>
<text text-anchor="start" x="-68.4209" y="-11.8" font-family="Times,serif" font-size="14.00">update</text>
<polyline fill="none" stroke="black" points="-76.4209,-5 48.4209,-5 "/>
<text text-anchor="start" x="-68.4209" y="10.2" font-family="Times,serif" font-size="14.00">collection_path</text>
<text text-anchor="start" x="-68.4209" y="24.2" font-family="Times,serif" font-size="14.00">collection_url</text>
<text text-anchor="start" x="-68.4209" y="38.2" font-family="Times,serif" font-size="14.00">edit_resource_path</text>
<text text-anchor="start" x="-68.4209" y="52.2" font-family="Times,serif" font-size="14.00">edit_resource_url</text>
<text text-anchor="start" x="-68.4209" y="66.2" font-family="Times,serif" font-size="14.00">new_resource_path</text>
<text text-anchor="start" x="-68.4209" y="80.2" font-family="Times,serif" font-size="14.00">new_resource_url</text>
<text text-anchor="start" x="-68.4209" y="94.2" font-family="Times,serif" font-size="14.00">resource_path</text>
<text text-anchor="start" x="-68.4209" y="108.2" font-family="Times,serif" font-size="14.00">resource_url</text>
<polyline fill="none" stroke="black" points="-76.4209,115 48.4209,115 "/>
<text text-anchor="start" x="-68.4209" y="130.2" font-family="Times,serif" font-size="14.00">_layout</text>
<text text-anchor="start" x="-68.4209" y="144.2" font-family="Times,serif" font-size="14.00">user_params</text>
</g>
<!-- WelcomeController -->
<g id="node10" class="node"><title>WelcomeController</title>
<path fill="none" stroke="black" d="M-235.033,-1C-235.033,-1 -132.967,-1 -132.967,-1 -126.967,-1 -120.967,-7 -120.967,-13 -120.967,-13 -120.967,-205 -120.967,-205 -120.967,-211 -126.967,-217 -132.967,-217 -132.967,-217 -235.033,-217 -235.033,-217 -241.033,-217 -247.033,-211 -247.033,-205 -247.033,-205 -247.033,-13 -247.033,-13 -247.033,-7 -241.033,-1 -235.033,-1"/>
<text text-anchor="middle" x="-184" y="-201.8" font-family="Times,serif" font-size="14.00">WelcomeController</text>
<polyline fill="none" stroke="black" points="-247.033,-195 -120.967,-195 "/>
<text text-anchor="start" x="-239.033" y="-179.8" font-family="Times,serif" font-size="14.00">concepts</text>
<text text-anchor="start" x="-239.033" y="-165.8" font-family="Times,serif" font-size="14.00">dashboard</text>
<text text-anchor="start" x="-239.033" y="-151.8" font-family="Times,serif" font-size="14.00">faq</text>
<text text-anchor="start" x="-239.033" y="-137.8" font-family="Times,serif" font-size="14.00">feeds</text>
<text text-anchor="start" x="-239.033" y="-123.8" font-family="Times,serif" font-size="14.00">landing</text>
<text text-anchor="start" x="-239.033" y="-109.8" font-family="Times,serif" font-size="14.00">legal</text>
<text text-anchor="start" x="-239.033" y="-95.8" font-family="Times,serif" font-size="14.00">settings</text>
<text text-anchor="start" x="-239.033" y="-81.8" font-family="Times,serif" font-size="14.00">status</text>
<text text-anchor="start" x="-239.033" y="-67.8" font-family="Times,serif" font-size="14.00">torrents</text>
<polyline fill="none" stroke="black" points="-247.033,-61 -120.967,-61 "/>
<polyline fill="none" stroke="black" points="-247.033,-37 -120.967,-37 "/>
<text text-anchor="start" x="-239.033" y="-21.8" font-family="Times,serif" font-size="14.00">_layout</text>
<text text-anchor="start" x="-239.033" y="-7.8" font-family="Times,serif" font-size="14.00">set_selected_feed</text>
</g>
</g>
</svg>
