<?xml version="1.0" encoding="UTF-8" standalone="no"?>
<!DOCTYPE svg PUBLIC "-//W3C//DTD SVG 1.1//EN"
 "http://www.w3.org/Graphics/SVG/1.1/DTD/svg11.dtd">
<!-- Generated by graphviz version 2.38.0 (20140413.2041)
 -->
<!-- Title: controllers_diagram Pages: 1 -->
<svg width="609pt" height="665pt"
 viewBox="0.00 0.00 609.32 665.00" xmlns="http://www.w3.org/2000/svg" xmlns:xlink="http://www.w3.org/1999/xlink">
<g id="graph0" class="graph" transform="scale(1 1) rotate(0) translate(263.714 421.5)">
<title>controllers_diagram</title>
<polygon fill="white" stroke="none" points="-263.714,243.5 -263.714,-421.5 345.61,-421.5 345.61,243.5 -263.714,243.5"/>
<!-- _diagram_info -->
<g id="node1" class="node"><title>_diagram_info</title>
<text text-anchor="start" x="128.312" y="180.9" font-family="Times,serif" font-size="13.00">Controllers diagram</text>
<text text-anchor="start" x="128.312" y="193.9" font-family="Times,serif" font-size="13.00">Date: Oct 14 2014 &#45; 11:36</text>
<text text-anchor="start" x="128.312" y="206.9" font-family="Times,serif" font-size="13.00">Migration version: 20140301210457</text>
<text text-anchor="start" x="128.312" y="219.9" font-family="Times,serif" font-size="13.00">Generated by RailRoady 1.2.0</text>
<text text-anchor="start" x="128.312" y="232.9" font-family="Times,serif" font-size="13.00">http://railroady.prestonlee.com</text>
</g>
<!-- ApplicationController -->
<g id="node2" class="node"><title>ApplicationController</title>
<path fill="none" stroke="black" d="M-168.466,-201C-168.466,-201 -1.53418,-201 -1.53418,-201 4.46582,-201 10.4658,-207 10.4658,-213 10.4658,-213 10.4658,-307 10.4658,-307 10.4658,-313 4.46582,-319 -1.53418,-319 -1.53418,-319 -168.466,-319 -168.466,-319 -174.466,-319 -180.466,-313 -180.466,-307 -180.466,-307 -180.466,-213 -180.466,-213 -180.466,-207 -174.466,-201 -168.466,-201"/>
<text text-anchor="middle" x="-85" y="-303.8" font-family="Times,serif" font-size="14.00">ApplicationController</text>
<polyline fill="none" stroke="black" points="-180.466,-297 10.4658,-297 "/>
<text text-anchor="start" x="-172.466" y="-281.8" font-family="Times,serif" font-size="14.00">get_remote_ip</text>
<polyline fill="none" stroke="black" points="-180.466,-275 10.4658,-275 "/>
<polyline fill="none" stroke="black" points="-180.466,-251 10.4658,-251 "/>
<text text-anchor="start" x="-172.466" y="-235.8" font-family="Times,serif" font-size="14.00">_layout</text>
<text text-anchor="start" x="-172.466" y="-221.8" font-family="Times,serif" font-size="14.00">after_sign_in_path_for</text>
<text text-anchor="start" x="-172.466" y="-207.8" font-family="Times,serif" font-size="14.00">authenticate_user_from_token!</text>
</g>
<!-- FeedsController -->
<g id="node3" class="node"><title>FeedsController</title>
<path fill="none" stroke="black" d="M131.579,119C131.579,119 232.421,119 232.421,119 238.421,119 244.421,113 244.421,107 244.421,107 244.421,-153 244.421,-153 244.421,-159 238.421,-165 232.421,-165 232.421,-165 131.579,-165 131.579,-165 125.579,-165 119.579,-159 119.579,-153 119.579,-153 119.579,107 119.579,107 119.579,113 125.579,119 131.579,119"/>
<text text-anchor="middle" x="182" y="-149.8" font-family="Times,serif" font-size="14.00">FeedsController</text>
<polyline fill="none" stroke="black" points="119.579,-143 244.421,-143 "/>
<text text-anchor="start" x="127.579" y="-127.8" font-family="Times,serif" font-size="14.00">create</text>
<text text-anchor="start" x="127.579" y="-113.8" font-family="Times,serif" font-size="14.00">destroy</text>
<text text-anchor="start" x="127.579" y="-99.8" font-family="Times,serif" font-size="14.00">grant</text>
<text text-anchor="start" x="127.579" y="-85.8" font-family="Times,serif" font-size="14.00">index</text>
<text text-anchor="start" x="127.579" y="-71.8" font-family="Times,serif" font-size="14.00">show</text>
<text text-anchor="start" x="127.579" y="-57.8" font-family="Times,serif" font-size="14.00">update</text>
<polyline fill="none" stroke="black" points="119.579,-51 244.421,-51 "/>
<text text-anchor="start" x="127.579" y="-35.8" font-family="Times,serif" font-size="14.00">collection_path</text>
<text text-anchor="start" x="127.579" y="-21.8" font-family="Times,serif" font-size="14.00">collection_url</text>
<text text-anchor="start" x="127.579" y="-7.8" font-family="Times,serif" font-size="14.00">edit_resource_path</text>
<text text-anchor="start" x="127.579" y="6.2" font-family="Times,serif" font-size="14.00">edit_resource_url</text>
<text text-anchor="start" x="127.579" y="20.2" font-family="Times,serif" font-size="14.00">new_resource_path</text>
<text text-anchor="start" x="127.579" y="34.2" font-family="Times,serif" font-size="14.00">new_resource_url</text>
<text text-anchor="start" x="127.579" y="48.2" font-family="Times,serif" font-size="14.00">resource_path</text>
<text text-anchor="start" x="127.579" y="62.2" font-family="Times,serif" font-size="14.00">resource_url</text>
<polyline fill="none" stroke="black" points="119.579,69 244.421,69 "/>
<text text-anchor="start" x="127.579" y="84.2" font-family="Times,serif" font-size="14.00">_layout</text>
<text text-anchor="start" x="127.579" y="98.2" font-family="Times,serif" font-size="14.00">feed_params</text>
<text text-anchor="start" x="127.579" y="112.2" font-family="Times,serif" font-size="14.00">set_feed</text>
</g>
<!-- PermissionsController -->
<g id="node4" class="node"><title>PermissionsController</title>
<path fill="none" stroke="black" d="M212.39,-201C212.39,-201 329.61,-201 329.61,-201 335.61,-201 341.61,-207 341.61,-213 341.61,-213 341.61,-405 341.61,-405 341.61,-411 335.61,-417 329.61,-417 329.61,-417 212.39,-417 212.39,-417 206.39,-417 200.39,-411 200.39,-405 200.39,-405 200.39,-213 200.39,-213 200.39,-207 206.39,-201 212.39,-201"/>
<text text-anchor="middle" x="271" y="-401.8" font-family="Times,serif" font-size="14.00">PermissionsController</text>
<polyline fill="none" stroke="black" points="200.39,-395 341.61,-395 "/>
<polyline fill="none" stroke="black" points="200.39,-371 341.61,-371 "/>
<text text-anchor="start" x="208.39" y="-355.8" font-family="Times,serif" font-size="14.00">collection_path</text>
<text text-anchor="start" x="208.39" y="-341.8" font-family="Times,serif" font-size="14.00">collection_url</text>
<text text-anchor="start" x="208.39" y="-327.8" font-family="Times,serif" font-size="14.00">edit_resource_path</text>
<text text-anchor="start" x="208.39" y="-313.8" font-family="Times,serif" font-size="14.00">edit_resource_url</text>
<text text-anchor="start" x="208.39" y="-299.8" font-family="Times,serif" font-size="14.00">new_resource_path</text>
<text text-anchor="start" x="208.39" y="-285.8" font-family="Times,serif" font-size="14.00">new_resource_url</text>
<text text-anchor="start" x="208.39" y="-271.8" font-family="Times,serif" font-size="14.00">resource_path</text>
<text text-anchor="start" x="208.39" y="-257.8" font-family="Times,serif" font-size="14.00">resource_url</text>
<polyline fill="none" stroke="black" points="200.39,-251 341.61,-251 "/>
<text text-anchor="start" x="208.39" y="-235.8" font-family="Times,serif" font-size="14.00">_layout</text>
<text text-anchor="start" x="208.39" y="-221.8" font-family="Times,serif" font-size="14.00">permission_params</text>
<text text-anchor="start" x="208.39" y="-207.8" font-family="Times,serif" font-size="14.00">set_permission</text>
</g>
<!-- RegistrationsController -->
<g id="node5" class="node"><title>RegistrationsController</title>
<path fill="none" stroke="black" d="M-247.714,139C-247.714,139 -124.286,139 -124.286,139 -118.286,139 -112.286,133 -112.286,127 -112.286,127 -112.286,61 -112.286,61 -112.286,55 -118.286,49 -124.286,49 -124.286,49 -247.714,49 -247.714,49 -253.714,49 -259.714,55 -259.714,61 -259.714,61 -259.714,127 -259.714,127 -259.714,133 -253.714,139 -247.714,139"/>
<text text-anchor="middle" x="-186" y="64.2" font-family="Times,serif" font-size="14.00">RegistrationsController</text>
<polyline fill="none" stroke="black" points="-259.714,71 -112.286,71 "/>
<text text-anchor="start" x="-251.714" y="86.2" font-family="Times,serif" font-size="14.00">destroy</text>
<polyline fill="none" stroke="black" points="-259.714,93 -112.286,93 "/>
<polyline fill="none" stroke="black" points="-259.714,117 -112.286,117 "/>
<text text-anchor="start" x="-251.714" y="132.2" font-family="Times,serif" font-size="14.00">_layout</text>
</g>
<!-- TorrentsController -->
<g id="node6" class="node"><title>TorrentsController</title>
<path fill="none" stroke="black" d="M-67.7554,199C-67.7554,199 65.7554,199 65.7554,199 71.7554,199 77.7554,193 77.7554,187 77.7554,187 77.7554,-157 77.7554,-157 77.7554,-163 71.7554,-169 65.7554,-169 65.7554,-169 -67.7554,-169 -67.7554,-169 -73.7554,-169 -79.7554,-163 -79.7554,-157 -79.7554,-157 -79.7554,187 -79.7554,187 -79.7554,193 -73.7554,199 -67.7554,199"/>
<text text-anchor="middle" x="-1" y="-153.8" font-family="Times,serif" font-size="14.00">TorrentsController</text>
<polyline fill="none" stroke="black" points="-79.7554,-147 77.7554,-147 "/>
<text text-anchor="start" x="-71.7554" y="-131.8" font-family="Times,serif" font-size="14.00">announce</text>
<text text-anchor="start" x="-71.7554" y="-117.8" font-family="Times,serif" font-size="14.00">create</text>
<text text-anchor="start" x="-71.7554" y="-103.8" font-family="Times,serif" font-size="14.00">destroy</text>
<text text-anchor="start" x="-71.7554" y="-89.8" font-family="Times,serif" font-size="14.00">http_basic_authenticate</text>
<text text-anchor="start" x="-71.7554" y="-75.8" font-family="Times,serif" font-size="14.00">scrape</text>
<text text-anchor="start" x="-71.7554" y="-61.8" font-family="Times,serif" font-size="14.00">search</text>
<text text-anchor="start" x="-71.7554" y="-47.8" font-family="Times,serif" font-size="14.00">show</text>
<text text-anchor="start" x="-71.7554" y="-33.8" font-family="Times,serif" font-size="14.00">update</text>
<polyline fill="none" stroke="black" points="-79.7554,-27 77.7554,-27 "/>
<text text-anchor="start" x="-71.7554" y="-11.8" font-family="Times,serif" font-size="14.00">collection_path</text>
<text text-anchor="start" x="-71.7554" y="2.2" font-family="Times,serif" font-size="14.00">collection_url</text>
<text text-anchor="start" x="-71.7554" y="16.2" font-family="Times,serif" font-size="14.00">edit_resource_path</text>
<text text-anchor="start" x="-71.7554" y="30.2" font-family="Times,serif" font-size="14.00">edit_resource_url</text>
<text text-anchor="start" x="-71.7554" y="44.2" font-family="Times,serif" font-size="14.00">new_resource_path</text>
<text text-anchor="start" x="-71.7554" y="58.2" font-family="Times,serif" font-size="14.00">new_resource_url</text>
<text text-anchor="start" x="-71.7554" y="72.2" font-family="Times,serif" font-size="14.00">resource_path</text>
<text text-anchor="start" x="-71.7554" y="86.2" font-family="Times,serif" font-size="14.00">resource_url</text>
<polyline fill="none" stroke="black" points="-79.7554,93 77.7554,93 "/>
<text text-anchor="start" x="-71.7554" y="108.2" font-family="Times,serif" font-size="14.00">_layout</text>
<text text-anchor="start" x="-71.7554" y="122.2" font-family="Times,serif" font-size="14.00">load_from_info_hash</text>
<text text-anchor="start" x="-71.7554" y="136.2" font-family="Times,serif" font-size="14.00">peer_params</text>
<text text-anchor="start" x="-71.7554" y="150.2" font-family="Times,serif" font-size="14.00">rsize</text>
<text text-anchor="start" x="-71.7554" y="164.2" font-family="Times,serif" font-size="14.00">set_params_from_torrent</text>
<text text-anchor="start" x="-71.7554" y="178.2" font-family="Times,serif" font-size="14.00">set_torrent</text>
<text text-anchor="start" x="-71.7554" y="192.2" font-family="Times,serif" font-size="14.00">torrent_params</text>
</g>
<!-- UsersController -->
<g id="node7" class="node"><title>UsersController</title>
<path fill="none" stroke="black" d="M51.7515,-201C51.7515,-201 150.249,-201 150.249,-201 156.249,-201 162.249,-207 162.249,-213 162.249,-213 162.249,-377 162.249,-377 162.249,-383 156.249,-389 150.249,-389 150.249,-389 51.7515,-389 51.7515,-389 45.7515,-389 39.7515,-383 39.7515,-377 39.7515,-377 39.7515,-213 39.7515,-213 39.7515,-207 45.7515,-201 51.7515,-201"/>
<text text-anchor="middle" x="101" y="-373.8" font-family="Times,serif" font-size="14.00">UsersController</text>
<polyline fill="none" stroke="black" points="39.7515,-367 162.249,-367 "/>
<text text-anchor="start" x="47.7515" y="-351.8" font-family="Times,serif" font-size="14.00">approve</text>
<text text-anchor="start" x="47.7515" y="-337.8" font-family="Times,serif" font-size="14.00">deny</text>
<text text-anchor="start" x="47.7515" y="-323.8" font-family="Times,serif" font-size="14.00">manage</text>
<text text-anchor="start" x="47.7515" y="-309.8" font-family="Times,serif" font-size="14.00">transfer</text>
<text text-anchor="start" x="47.7515" y="-295.8" font-family="Times,serif" font-size="14.00">update</text>
<polyline fill="none" stroke="black" points="39.7515,-289 162.249,-289 "/>
<polyline fill="none" stroke="black" points="39.7515,-265 162.249,-265 "/>
<text text-anchor="start" x="47.7515" y="-249.8" font-family="Times,serif" font-size="14.00">_layout</text>
<text text-anchor="start" x="47.7515" y="-235.8" font-family="Times,serif" font-size="14.00">authorize_resource</text>
<text text-anchor="start" x="47.7515" y="-221.8" font-family="Times,serif" font-size="14.00">load_user</text>
<text text-anchor="start" x="47.7515" y="-207.8" font-family="Times,serif" font-size="14.00">user_params</text>
</g>
<!-- WelcomeController -->
<g id="node8" class="node"><title>WelcomeController</title>
<path fill="none" stroke="black" d="M-228.033,19C-228.033,19 -125.967,19 -125.967,19 -119.967,19 -113.967,13 -113.967,7 -113.967,7 -113.967,-143 -113.967,-143 -113.967,-149 -119.967,-155 -125.967,-155 -125.967,-155 -228.033,-155 -228.033,-155 -234.033,-155 -240.033,-149 -240.033,-143 -240.033,-143 -240.033,7 -240.033,7 -240.033,13 -234.033,19 -228.033,19"/>
<text text-anchor="middle" x="-177" y="-139.8" font-family="Times,serif" font-size="14.00">WelcomeController</text>
<polyline fill="none" stroke="black" points="-240.033,-133 -113.967,-133 "/>
<text text-anchor="start" x="-232.033" y="-117.8" font-family="Times,serif" font-size="14.00">concepts</text>
<text text-anchor="start" x="-232.033" y="-103.8" font-family="Times,serif" font-size="14.00">dashboard</text>
<text text-anchor="start" x="-232.033" y="-89.8" font-family="Times,serif" font-size="14.00">faq</text>
<text text-anchor="start" x="-232.033" y="-75.8" font-family="Times,serif" font-size="14.00">landing</text>
<text text-anchor="start" x="-232.033" y="-61.8" font-family="Times,serif" font-size="14.00">legal</text>
<text text-anchor="start" x="-232.033" y="-47.8" font-family="Times,serif" font-size="14.00">status</text>
<polyline fill="none" stroke="black" points="-240.033,-41 -113.967,-41 "/>
<polyline fill="none" stroke="black" points="-240.033,-17 -113.967,-17 "/>
<text text-anchor="start" x="-232.033" y="-1.8" font-family="Times,serif" font-size="14.00">_layout</text>
<text text-anchor="start" x="-232.033" y="12.2" font-family="Times,serif" font-size="14.00">set_selected_feed</text>
</g>
</g>
</svg>
