<?xml version="1.0" encoding="UTF-8" standalone="no"?>
<!DOCTYPE svg PUBLIC "-//W3C//DTD SVG 1.1//EN"
 "http://www.w3.org/Graphics/SVG/1.1/DTD/svg11.dtd">
<!-- Generated by graphviz version 2.36.0 (20140111.2315)
 -->
<!-- Title: controllers_diagram Pages: 1 -->
<svg width="786pt" height="1238pt"
 viewBox="0.00 0.00 785.92 1237.72" xmlns="http://www.w3.org/2000/svg" xmlns:xlink="http://www.w3.org/1999/xlink">
<g id="graph0" class="graph" transform="scale(1 1) rotate(0) translate(4 1233.72)">
<title>controllers_diagram</title>
<polygon fill="white" stroke="none" points="-4,4 -4,-1233.72 781.919,-1233.72 781.919,4 -4,4"/>
<!-- _diagram_info -->
<g id="node1" class="node"><title>_diagram_info</title>
<text text-anchor="start" x="448" y="-542.6" font-family="Times,serif" font-size="13.00">Controllers diagram</text>
<text text-anchor="start" x="448" y="-529.6" font-family="Times,serif" font-size="13.00">Date: Apr 14 2014 &#45; 23:04</text>
<text text-anchor="start" x="448" y="-516.6" font-family="Times,serif" font-size="13.00">Migration version: 20140301210457</text>
<text text-anchor="start" x="448" y="-503.6" font-family="Times,serif" font-size="13.00">Generated by RailRoady 1.1.1</text>
<text text-anchor="start" x="448" y="-490.6" font-family="Times,serif" font-size="13.00">http://railroady.prestonlee.com</text>
</g>
<!-- ApplicationController -->
<g id="node2" class="node"><title>ApplicationController</title>
<path fill="none" stroke="black" d="M452,-917.995C452,-917.995 618.932,-917.995 618.932,-917.995 624.932,-917.995 630.932,-923.995 630.932,-929.995 630.932,-929.995 630.932,-1024 630.932,-1024 630.932,-1030 624.932,-1036 618.932,-1036 618.932,-1036 452,-1036 452,-1036 446,-1036 440,-1030 440,-1024 440,-1024 440,-929.995 440,-929.995 440,-923.995 446,-917.995 452,-917.995"/>
<text text-anchor="middle" x="535.466" y="-1020.8" font-family="Times,serif" font-size="14.00">ApplicationController</text>
<polyline fill="none" stroke="black" points="440,-1014 630.932,-1014 "/>
<text text-anchor="start" x="448" y="-998.795" font-family="Times,serif" font-size="14.00">get_remote_ip</text>
<polyline fill="none" stroke="black" points="440,-991.995 630.932,-991.995 "/>
<polyline fill="none" stroke="black" points="440,-967.995 630.932,-967.995 "/>
<text text-anchor="start" x="448" y="-952.795" font-family="Times,serif" font-size="14.00">_layout</text>
<text text-anchor="start" x="448" y="-938.795" font-family="Times,serif" font-size="14.00">after_sign_in_path_for</text>
<text text-anchor="start" x="448" y="-924.795" font-family="Times,serif" font-size="14.00">authenticate_user_from_token!</text>
</g>
<!-- UsersController -->
<g id="node7" class="node"><title>UsersController</title>
<path fill="none" stroke="black" d="M667.422,-1041.22C667.422,-1041.22 765.919,-1041.22 765.919,-1041.22 771.919,-1041.22 777.919,-1047.22 777.919,-1053.22 777.919,-1053.22 777.919,-1217.22 777.919,-1217.22 777.919,-1223.22 771.919,-1229.22 765.919,-1229.22 765.919,-1229.22 667.422,-1229.22 667.422,-1229.22 661.422,-1229.22 655.422,-1223.22 655.422,-1217.22 655.422,-1217.22 655.422,-1053.22 655.422,-1053.22 655.422,-1047.22 661.422,-1041.22 667.422,-1041.22"/>
<text text-anchor="middle" x="716.671" y="-1214.02" font-family="Times,serif" font-size="14.00">UsersController</text>
<polyline fill="none" stroke="black" points="655.422,-1207.22 777.919,-1207.22 "/>
<text text-anchor="start" x="663.422" y="-1192.02" font-family="Times,serif" font-size="14.00">approve</text>
<text text-anchor="start" x="663.422" y="-1178.02" font-family="Times,serif" font-size="14.00">deny</text>
<text text-anchor="start" x="663.422" y="-1164.02" font-family="Times,serif" font-size="14.00">manage</text>
<text text-anchor="start" x="663.422" y="-1150.02" font-family="Times,serif" font-size="14.00">transfer</text>
<text text-anchor="start" x="663.422" y="-1136.02" font-family="Times,serif" font-size="14.00">update</text>
<polyline fill="none" stroke="black" points="655.422,-1129.22 777.919,-1129.22 "/>
<polyline fill="none" stroke="black" points="655.422,-1105.22 777.919,-1105.22 "/>
<text text-anchor="start" x="663.422" y="-1090.02" font-family="Times,serif" font-size="14.00">_layout</text>
<text text-anchor="start" x="663.422" y="-1076.02" font-family="Times,serif" font-size="14.00">authorize_resource</text>
<text text-anchor="start" x="663.422" y="-1062.02" font-family="Times,serif" font-size="14.00">load_user</text>
<text text-anchor="start" x="663.422" y="-1048.02" font-family="Times,serif" font-size="14.00">user_params</text>
</g>
<!-- ApplicationController&#45;&gt;UsersController -->
<g id="edge5" class="edge"><title>ApplicationController&#45;&gt;UsersController</title>
<path fill="none" stroke="black" d="M603.198,-1036.14C620.287,-1051.06 638.537,-1067 655.294,-1081.63"/>
</g>
<!-- WelcomeController -->
<g id="node8" class="node"><title>WelcomeController</title>
<path fill="none" stroke="black" d="M641.248,-660.5C641.248,-660.5 743.313,-660.5 743.313,-660.5 749.313,-660.5 755.313,-666.5 755.313,-672.5 755.313,-672.5 755.313,-822.5 755.313,-822.5 755.313,-828.5 749.313,-834.5 743.313,-834.5 743.313,-834.5 641.248,-834.5 641.248,-834.5 635.248,-834.5 629.248,-828.5 629.248,-822.5 629.248,-822.5 629.248,-672.5 629.248,-672.5 629.248,-666.5 635.248,-660.5 641.248,-660.5"/>
<text text-anchor="middle" x="692.28" y="-819.3" font-family="Times,serif" font-size="14.00">WelcomeController</text>
<polyline fill="none" stroke="black" points="629.248,-812.5 755.313,-812.5 "/>
<text text-anchor="start" x="637.248" y="-797.3" font-family="Times,serif" font-size="14.00">concepts</text>
<text text-anchor="start" x="637.248" y="-783.3" font-family="Times,serif" font-size="14.00">dashboard</text>
<text text-anchor="start" x="637.248" y="-769.3" font-family="Times,serif" font-size="14.00">faq</text>
<text text-anchor="start" x="637.248" y="-755.3" font-family="Times,serif" font-size="14.00">landing</text>
<text text-anchor="start" x="637.248" y="-741.3" font-family="Times,serif" font-size="14.00">legal</text>
<text text-anchor="start" x="637.248" y="-727.3" font-family="Times,serif" font-size="14.00">status</text>
<polyline fill="none" stroke="black" points="629.248,-720.5 755.313,-720.5 "/>
<polyline fill="none" stroke="black" points="629.248,-696.5 755.313,-696.5 "/>
<text text-anchor="start" x="637.248" y="-681.3" font-family="Times,serif" font-size="14.00">_layout</text>
<text text-anchor="start" x="637.248" y="-667.3" font-family="Times,serif" font-size="14.00">set_selected_feed</text>
</g>
<!-- ApplicationController&#45;&gt;WelcomeController -->
<g id="edge6" class="edge"><title>ApplicationController&#45;&gt;WelcomeController</title>
<path fill="none" stroke="black" d="M575.849,-917.894C593.182,-892.528 613.786,-862.375 632.809,-834.536"/>
</g>
<!-- FeedsController -->
<g id="node3" class="node"><title>FeedsController</title>
<path fill="none" stroke="black" d="M12,-487.17C12,-487.17 112.842,-487.17 112.842,-487.17 118.842,-487.17 124.842,-493.17 124.842,-499.17 124.842,-499.17 124.842,-759.17 124.842,-759.17 124.842,-765.17 118.842,-771.17 112.842,-771.17 112.842,-771.17 12,-771.17 12,-771.17 6,-771.17 -2.84217e-14,-765.17 -2.84217e-14,-759.17 -2.84217e-14,-759.17 -2.84217e-14,-499.17 -2.84217e-14,-499.17 -2.84217e-14,-493.17 6,-487.17 12,-487.17"/>
<text text-anchor="middle" x="62.4209" y="-755.97" font-family="Times,serif" font-size="14.00">FeedsController</text>
<polyline fill="none" stroke="black" points="-2.84217e-14,-749.17 124.842,-749.17 "/>
<text text-anchor="start" x="8" y="-733.97" font-family="Times,serif" font-size="14.00">create</text>
<text text-anchor="start" x="8" y="-719.97" font-family="Times,serif" font-size="14.00">destroy</text>
<text text-anchor="start" x="8" y="-705.97" font-family="Times,serif" font-size="14.00">grant</text>
<text text-anchor="start" x="8" y="-691.97" font-family="Times,serif" font-size="14.00">index</text>
<text text-anchor="start" x="8" y="-677.97" font-family="Times,serif" font-size="14.00">show</text>
<text text-anchor="start" x="8" y="-663.97" font-family="Times,serif" font-size="14.00">update</text>
<polyline fill="none" stroke="black" points="-2.84217e-14,-657.17 124.842,-657.17 "/>
<text text-anchor="start" x="8" y="-641.97" font-family="Times,serif" font-size="14.00">collection_path</text>
<text text-anchor="start" x="8" y="-627.97" font-family="Times,serif" font-size="14.00">collection_url</text>
<text text-anchor="start" x="8" y="-613.97" font-family="Times,serif" font-size="14.00">edit_resource_path</text>
<text text-anchor="start" x="8" y="-599.97" font-family="Times,serif" font-size="14.00">edit_resource_url</text>
<text text-anchor="start" x="8" y="-585.97" font-family="Times,serif" font-size="14.00">new_resource_path</text>
<text text-anchor="start" x="8" y="-571.97" font-family="Times,serif" font-size="14.00">new_resource_url</text>
<text text-anchor="start" x="8" y="-557.97" font-family="Times,serif" font-size="14.00">resource_path</text>
<text text-anchor="start" x="8" y="-543.97" font-family="Times,serif" font-size="14.00">resource_url</text>
<polyline fill="none" stroke="black" points="-2.84217e-14,-537.17 124.842,-537.17 "/>
<text text-anchor="start" x="8" y="-521.97" font-family="Times,serif" font-size="14.00">_layout</text>
<text text-anchor="start" x="8" y="-507.97" font-family="Times,serif" font-size="14.00">feed_params</text>
<text text-anchor="start" x="8" y="-493.97" font-family="Times,serif" font-size="14.00">set_feed</text>
</g>
<!-- PermissionsController -->
<g id="node4" class="node"><title>PermissionsController</title>
<path fill="none" stroke="black" d="M263.299,-621.955C263.299,-621.955 380.52,-621.955 380.52,-621.955 386.52,-621.955 392.52,-627.955 392.52,-633.955 392.52,-633.955 392.52,-825.955 392.52,-825.955 392.52,-831.955 386.52,-837.955 380.52,-837.955 380.52,-837.955 263.299,-837.955 263.299,-837.955 257.299,-837.955 251.299,-831.955 251.299,-825.955 251.299,-825.955 251.299,-633.955 251.299,-633.955 251.299,-627.955 257.299,-621.955 263.299,-621.955"/>
<text text-anchor="middle" x="321.909" y="-822.755" font-family="Times,serif" font-size="14.00">PermissionsController</text>
<polyline fill="none" stroke="black" points="251.299,-815.955 392.52,-815.955 "/>
<polyline fill="none" stroke="black" points="251.299,-791.955 392.52,-791.955 "/>
<text text-anchor="start" x="259.299" y="-776.755" font-family="Times,serif" font-size="14.00">collection_path</text>
<text text-anchor="start" x="259.299" y="-762.755" font-family="Times,serif" font-size="14.00">collection_url</text>
<text text-anchor="start" x="259.299" y="-748.755" font-family="Times,serif" font-size="14.00">edit_resource_path</text>
<text text-anchor="start" x="259.299" y="-734.755" font-family="Times,serif" font-size="14.00">edit_resource_url</text>
<text text-anchor="start" x="259.299" y="-720.755" font-family="Times,serif" font-size="14.00">new_resource_path</text>
<text text-anchor="start" x="259.299" y="-706.755" font-family="Times,serif" font-size="14.00">new_resource_url</text>
<text text-anchor="start" x="259.299" y="-692.755" font-family="Times,serif" font-size="14.00">resource_path</text>
<text text-anchor="start" x="259.299" y="-678.755" font-family="Times,serif" font-size="14.00">resource_url</text>
<polyline fill="none" stroke="black" points="251.299,-671.955 392.52,-671.955 "/>
<text text-anchor="start" x="259.299" y="-656.755" font-family="Times,serif" font-size="14.00">_layout</text>
<text text-anchor="start" x="259.299" y="-642.755" font-family="Times,serif" font-size="14.00">permission_params</text>
<text text-anchor="start" x="259.299" y="-628.755" font-family="Times,serif" font-size="14.00">set_permission</text>
</g>
<!-- RegistrationsController -->
<g id="node5" class="node"><title>RegistrationsController</title>
<path fill="none" stroke="black" d="M364,-220.5C364,-220.5 487.428,-220.5 487.428,-220.5 493.428,-220.5 499.428,-226.5 499.428,-232.5 499.428,-232.5 499.428,-298.5 499.428,-298.5 499.428,-304.5 493.428,-310.5 487.428,-310.5 487.428,-310.5 364,-310.5 364,-310.5 358,-310.5 352,-304.5 352,-298.5 352,-298.5 352,-232.5 352,-232.5 352,-226.5 358,-220.5 364,-220.5"/>
<text text-anchor="middle" x="425.714" y="-295.3" font-family="Times,serif" font-size="14.00">RegistrationsController</text>
<polyline fill="none" stroke="black" points="352,-288.5 499.428,-288.5 "/>
<text text-anchor="start" x="360" y="-273.3" font-family="Times,serif" font-size="14.00">destroy</text>
<polyline fill="none" stroke="black" points="352,-266.5 499.428,-266.5 "/>
<polyline fill="none" stroke="black" points="352,-242.5 499.428,-242.5 "/>
<text text-anchor="start" x="360" y="-227.3" font-family="Times,serif" font-size="14.00">_layout</text>
</g>
<!-- TorrentsController -->
<g id="node6" class="node"><title>TorrentsController</title>
<path fill="none" stroke="black" d="M97.8096,-0.5C97.8096,-0.5 231.32,-0.5 231.32,-0.5 237.32,-0.5 243.32,-6.5 243.32,-12.5 243.32,-12.5 243.32,-356.5 243.32,-356.5 243.32,-362.5 237.32,-368.5 231.32,-368.5 231.32,-368.5 97.8096,-368.5 97.8096,-368.5 91.8096,-368.5 85.8096,-362.5 85.8096,-356.5 85.8096,-356.5 85.8096,-12.5 85.8096,-12.5 85.8096,-6.5 91.8096,-0.5 97.8096,-0.5"/>
<text text-anchor="middle" x="164.565" y="-353.3" font-family="Times,serif" font-size="14.00">TorrentsController</text>
<polyline fill="none" stroke="black" points="85.8096,-346.5 243.32,-346.5 "/>
<text text-anchor="start" x="93.8096" y="-331.3" font-family="Times,serif" font-size="14.00">announce</text>
<text text-anchor="start" x="93.8096" y="-317.3" font-family="Times,serif" font-size="14.00">create</text>
<text text-anchor="start" x="93.8096" y="-303.3" font-family="Times,serif" font-size="14.00">destroy</text>
<text text-anchor="start" x="93.8096" y="-289.3" font-family="Times,serif" font-size="14.00">http_basic_authenticate</text>
<text text-anchor="start" x="93.8096" y="-275.3" font-family="Times,serif" font-size="14.00">scrape</text>
<text text-anchor="start" x="93.8096" y="-261.3" font-family="Times,serif" font-size="14.00">search</text>
<text text-anchor="start" x="93.8096" y="-247.3" font-family="Times,serif" font-size="14.00">show</text>
<text text-anchor="start" x="93.8096" y="-233.3" font-family="Times,serif" font-size="14.00">update</text>
<polyline fill="none" stroke="black" points="85.8096,-226.5 243.32,-226.5 "/>
<text text-anchor="start" x="93.8096" y="-211.3" font-family="Times,serif" font-size="14.00">collection_path</text>
<text text-anchor="start" x="93.8096" y="-197.3" font-family="Times,serif" font-size="14.00">collection_url</text>
<text text-anchor="start" x="93.8096" y="-183.3" font-family="Times,serif" font-size="14.00">edit_resource_path</text>
<text text-anchor="start" x="93.8096" y="-169.3" font-family="Times,serif" font-size="14.00">edit_resource_url</text>
<text text-anchor="start" x="93.8096" y="-155.3" font-family="Times,serif" font-size="14.00">new_resource_path</text>
<text text-anchor="start" x="93.8096" y="-141.3" font-family="Times,serif" font-size="14.00">new_resource_url</text>
<text text-anchor="start" x="93.8096" y="-127.3" font-family="Times,serif" font-size="14.00">resource_path</text>
<text text-anchor="start" x="93.8096" y="-113.3" font-family="Times,serif" font-size="14.00">resource_url</text>
<polyline fill="none" stroke="black" points="85.8096,-106.5 243.32,-106.5 "/>
<text text-anchor="start" x="93.8096" y="-91.3" font-family="Times,serif" font-size="14.00">_layout</text>
<text text-anchor="start" x="93.8096" y="-77.3" font-family="Times,serif" font-size="14.00">load_from_info_hash</text>
<text text-anchor="start" x="93.8096" y="-63.3" font-family="Times,serif" font-size="14.00">peer_params</text>
<text text-anchor="start" x="93.8096" y="-49.3" font-family="Times,serif" font-size="14.00">rsize</text>
<text text-anchor="start" x="93.8096" y="-35.3" font-family="Times,serif" font-size="14.00">set_params_from_torrent</text>
<text text-anchor="start" x="93.8096" y="-21.3" font-family="Times,serif" font-size="14.00">set_torrent</text>
<text text-anchor="start" x="93.8096" y="-7.3" font-family="Times,serif" font-size="14.00">torrent_params</text>
</g>
<!-- InheritedResources::Base -->
<g id="node9" class="node"><title>InheritedResources::Base</title>
<ellipse fill="none" stroke="black" cx="344.896" cy="-387.16" rx="100.452" ry="18"/>
<text text-anchor="middle" x="344.896" y="-382.96" font-family="Times,serif" font-size="14.00">InheritedResources::Base</text>
</g>
<!-- InheritedResources::Base&#45;&gt;FeedsController -->
<g id="edge1" class="edge"><title>InheritedResources::Base&#45;&gt;FeedsController</title>
<path fill="none" stroke="black" d="M324.125,-404.955C282.716,-440.432 188.43,-521.212 125.08,-575.487"/>
</g>
<!-- InheritedResources::Base&#45;&gt;PermissionsController -->
<g id="edge2" class="edge"><title>InheritedResources::Base&#45;&gt;PermissionsController</title>
<path fill="none" stroke="black" d="M343.66,-405.59C340.965,-445.78 334.382,-543.945 329.16,-621.831"/>
</g>
<!-- InheritedResources::Base&#45;&gt;TorrentsController -->
<g id="edge4" class="edge"><title>InheritedResources::Base&#45;&gt;TorrentsController</title>
<path fill="none" stroke="black" d="M328.893,-369.175C309.584,-347.476 275.717,-309.415 243.726,-273.463"/>
</g>
<!-- Devise::RegistrationsController -->
<g id="node10" class="node"><title>Devise::RegistrationsController</title>
<ellipse fill="none" stroke="black" cx="647.004" cy="-265.5" rx="122.695" ry="18"/>
<text text-anchor="middle" x="647.004" y="-261.3" font-family="Times,serif" font-size="14.00">Devise::RegistrationsController</text>
</g>
<!-- Devise::RegistrationsController&#45;&gt;RegistrationsController -->
<g id="edge3" class="edge"><title>Devise::RegistrationsController&#45;&gt;RegistrationsController</title>
<path fill="none" stroke="black" d="M524.386,-265.5C515.91,-265.5 507.528,-265.5 499.444,-265.5"/>
</g>
</g>
</svg>
