<?xml version="1.0" encoding="UTF-8" standalone="no"?>
<!DOCTYPE svg PUBLIC "-//W3C//DTD SVG 1.1//EN"
 "http://www.w3.org/Graphics/SVG/1.1/DTD/svg11.dtd">
<!-- Generated by graphviz version 2.38.0 (20140413.2041)
 -->
<!-- Title: controllers_diagram Pages: 1 -->
<svg width="686pt" height="619pt"
 viewBox="0.00 0.00 685.52 619.00" xmlns="http://www.w3.org/2000/svg" xmlns:xlink="http://www.w3.org/1999/xlink">
<g id="graph0" class="graph" transform="scale(1 1) rotate(0) translate(258.935 360.5)">
<title>controllers_diagram</title>
<polygon fill="none" stroke="none" points="-258.935,258.5 -258.935,-360.5 426.584,-360.5 426.584,258.5 -258.935,258.5"/>
<!-- _diagram_info -->
<g id="node1" class="node"><title>_diagram_info</title>
<text text-anchor="start" x="8.31226" y="144.9" font-family="Times,serif" font-size="13.00">Controllers diagram</text>
<text text-anchor="start" x="8.31226" y="157.9" font-family="Times,serif" font-size="13.00">Date: Sep 22 2016 &#45; 13:50</text>
<text text-anchor="start" x="8.31226" y="170.9" font-family="Times,serif" font-size="13.00">Migration version: 20150313044915</text>
<text text-anchor="start" x="8.31226" y="183.9" font-family="Times,serif" font-size="13.00">Generated by RailRoady 1.5.2</text>
<text text-anchor="start" x="8.31226" y="196.9" font-family="Times,serif" font-size="13.00">http://railroady.prestonlee.com</text>
</g>
<!-- ApplicationController -->
<g id="node2" class="node"><title>ApplicationController</title>
<path fill="none" stroke="black" d="M-107.466,-120C-107.466,-120 59.4658,-120 59.4658,-120 65.4658,-120 71.4658,-126 71.4658,-132 71.4658,-132 71.4658,-240 71.4658,-240 71.4658,-246 65.4658,-252 59.4658,-252 59.4658,-252 -107.466,-252 -107.466,-252 -113.466,-252 -119.466,-246 -119.466,-240 -119.466,-240 -119.466,-132 -119.466,-132 -119.466,-126 -113.466,-120 -107.466,-120"/>
<text text-anchor="middle" x="-24" y="-236.8" font-family="Times,serif" font-size="14.00">ApplicationController</text>
<polyline fill="none" stroke="black" points="-119.466,-230 71.4658,-230 "/>
<text text-anchor="start" x="-111.466" y="-214.8" font-family="Times,serif" font-size="14.00">get_remote_ip</text>
<polyline fill="none" stroke="black" points="-119.466,-208 71.4658,-208 "/>
<polyline fill="none" stroke="black" points="-119.466,-184 71.4658,-184 "/>
<text text-anchor="start" x="-111.466" y="-168.8" font-family="Times,serif" font-size="14.00">_layout</text>
<text text-anchor="start" x="-111.466" y="-154.8" font-family="Times,serif" font-size="14.00">after_sign_in_path_for</text>
<text text-anchor="start" x="-111.466" y="-140.8" font-family="Times,serif" font-size="14.00">allow_cors</text>
<text text-anchor="start" x="-111.466" y="-126.8" font-family="Times,serif" font-size="14.00">authenticate_user_from_token!</text>
</g>
<!-- FeedsController -->
<g id="node3" class="node"><title>FeedsController</title>
<path fill="none" stroke="black" d="M-209.104,101C-209.104,101 -126.896,101 -126.896,101 -120.896,101 -114.896,95 -114.896,89 -114.896,89 -114.896,-75 -114.896,-75 -114.896,-81 -120.896,-87 -126.896,-87 -126.896,-87 -209.104,-87 -209.104,-87 -215.104,-87 -221.104,-81 -221.104,-75 -221.104,-75 -221.104,89 -221.104,89 -221.104,95 -215.104,101 -209.104,101"/>
<text text-anchor="middle" x="-168" y="-71.8" font-family="Times,serif" font-size="14.00">FeedsController</text>
<polyline fill="none" stroke="black" points="-221.104,-65 -114.896,-65 "/>
<text text-anchor="start" x="-213.104" y="-49.8" font-family="Times,serif" font-size="14.00">create</text>
<text text-anchor="start" x="-213.104" y="-35.8" font-family="Times,serif" font-size="14.00">destroy</text>
<text text-anchor="start" x="-213.104" y="-21.8" font-family="Times,serif" font-size="14.00">index</text>
<text text-anchor="start" x="-213.104" y="-7.8" font-family="Times,serif" font-size="14.00">show</text>
<text text-anchor="start" x="-213.104" y="6.2" font-family="Times,serif" font-size="14.00">update</text>
<polyline fill="none" stroke="black" points="-221.104,13 -114.896,13 "/>
<polyline fill="none" stroke="black" points="-221.104,37 -114.896,37 "/>
<text text-anchor="start" x="-213.104" y="52.2" font-family="Times,serif" font-size="14.00">_layout</text>
<text text-anchor="start" x="-213.104" y="66.2" font-family="Times,serif" font-size="14.00">feed_params</text>
<text text-anchor="start" x="-213.104" y="80.2" font-family="Times,serif" font-size="14.00">set_abilities</text>
<text text-anchor="start" x="-213.104" y="94.2" font-family="Times,serif" font-size="14.00">set_feed</text>
</g>
<!-- PeersController -->
<g id="node4" class="node"><title>PeersController</title>
<path fill="none" stroke="black" d="M-242.935,-256C-242.935,-256 -163.065,-256 -163.065,-256 -157.065,-256 -151.065,-262 -151.065,-268 -151.065,-268 -151.065,-334 -151.065,-334 -151.065,-340 -157.065,-346 -163.065,-346 -163.065,-346 -242.935,-346 -242.935,-346 -248.935,-346 -254.935,-340 -254.935,-334 -254.935,-334 -254.935,-268 -254.935,-268 -254.935,-262 -248.935,-256 -242.935,-256"/>
<text text-anchor="middle" x="-203" y="-330.8" font-family="Times,serif" font-size="14.00">PeersController</text>
<polyline fill="none" stroke="black" points="-254.935,-324 -151.065,-324 "/>
<text text-anchor="start" x="-246.935" y="-308.8" font-family="Times,serif" font-size="14.00">index</text>
<polyline fill="none" stroke="black" points="-254.935,-302 -151.065,-302 "/>
<polyline fill="none" stroke="black" points="-254.935,-278 -151.065,-278 "/>
<text text-anchor="start" x="-246.935" y="-262.8" font-family="Times,serif" font-size="14.00">_layout</text>
</g>
<!-- PermissionsController -->
<g id="node5" class="node"><title>PermissionsController</title>
<path fill="none" stroke="black" d="M267.39,254C267.39,254 384.61,254 384.61,254 390.61,254 396.61,248 396.61,242 396.61,242 396.61,120 396.61,120 396.61,114 390.61,108 384.61,108 384.61,108 267.39,108 267.39,108 261.39,108 255.39,114 255.39,120 255.39,120 255.39,242 255.39,242 255.39,248 261.39,254 267.39,254"/>
<text text-anchor="middle" x="326" y="123.2" font-family="Times,serif" font-size="14.00">PermissionsController</text>
<polyline fill="none" stroke="black" points="255.39,130 396.61,130 "/>
<text text-anchor="start" x="263.39" y="145.2" font-family="Times,serif" font-size="14.00">create</text>
<text text-anchor="start" x="263.39" y="159.2" font-family="Times,serif" font-size="14.00">destroy</text>
<text text-anchor="start" x="263.39" y="173.2" font-family="Times,serif" font-size="14.00">index</text>
<text text-anchor="start" x="263.39" y="187.2" font-family="Times,serif" font-size="14.00">show</text>
<polyline fill="none" stroke="black" points="255.39,194 396.61,194 "/>
<polyline fill="none" stroke="black" points="255.39,218 396.61,218 "/>
<text text-anchor="start" x="263.39" y="233.2" font-family="Times,serif" font-size="14.00">_layout</text>
<text text-anchor="start" x="263.39" y="247.2" font-family="Times,serif" font-size="14.00">permission_params</text>
</g>
<!-- RegistrationsController -->
<g id="node6" class="node"><title>RegistrationsController</title>
<path fill="none" stroke="black" d="M-242.638,254C-242.638,254 -115.362,254 -115.362,254 -109.362,254 -103.362,248 -103.362,242 -103.362,242 -103.362,148 -103.362,148 -103.362,142 -109.362,136 -115.362,136 -115.362,136 -242.638,136 -242.638,136 -248.638,136 -254.638,142 -254.638,148 -254.638,148 -254.638,242 -254.638,242 -254.638,248 -248.638,254 -242.638,254"/>
<text text-anchor="middle" x="-179" y="151.2" font-family="Times,serif" font-size="14.00">RegistrationsController</text>
<polyline fill="none" stroke="black" points="-254.638,158 -103.362,158 "/>
<text text-anchor="start" x="-246.638" y="173.2" font-family="Times,serif" font-size="14.00">destroy</text>
<polyline fill="none" stroke="black" points="-254.638,180 -103.362,180 "/>
<polyline fill="none" stroke="black" points="-254.638,204 -103.362,204 "/>
<text text-anchor="start" x="-246.638" y="219.2" font-family="Times,serif" font-size="14.00">_layout</text>
<text text-anchor="start" x="-246.638" y="233.2" font-family="Times,serif" font-size="14.00">account_update_params</text>
<text text-anchor="start" x="-246.638" y="247.2" font-family="Times,serif" font-size="14.00">sign_up_params</text>
</g>
<!-- TorrentsController -->
<g id="node7" class="node"><title>TorrentsController</title>
<path fill="none" stroke="black" d="M-72.7554,101C-72.7554,101 60.7554,101 60.7554,101 66.7554,101 72.7554,95 72.7554,89 72.7554,89 72.7554,-61 72.7554,-61 72.7554,-67 66.7554,-73 60.7554,-73 60.7554,-73 -72.7554,-73 -72.7554,-73 -78.7554,-73 -84.7554,-67 -84.7554,-61 -84.7554,-61 -84.7554,89 -84.7554,89 -84.7554,95 -78.7554,101 -72.7554,101"/>
<text text-anchor="middle" x="-6" y="-57.8" font-family="Times,serif" font-size="14.00">TorrentsController</text>
<polyline fill="none" stroke="black" points="-84.7554,-51 72.7554,-51 "/>
<text text-anchor="start" x="-76.7554" y="-35.8" font-family="Times,serif" font-size="14.00">create</text>
<text text-anchor="start" x="-76.7554" y="-21.8" font-family="Times,serif" font-size="14.00">destroy</text>
<text text-anchor="start" x="-76.7554" y="-7.8" font-family="Times,serif" font-size="14.00">index</text>
<text text-anchor="start" x="-76.7554" y="6.2" font-family="Times,serif" font-size="14.00">show</text>
<text text-anchor="start" x="-76.7554" y="20.2" font-family="Times,serif" font-size="14.00">update</text>
<polyline fill="none" stroke="black" points="-84.7554,27 72.7554,27 "/>
<polyline fill="none" stroke="black" points="-84.7554,51 72.7554,51 "/>
<text text-anchor="start" x="-76.7554" y="66.2" font-family="Times,serif" font-size="14.00">_layout</text>
<text text-anchor="start" x="-76.7554" y="80.2" font-family="Times,serif" font-size="14.00">set_params_from_torrent</text>
<text text-anchor="start" x="-76.7554" y="94.2" font-family="Times,serif" font-size="14.00">torrent_params</text>
</g>
<!-- TrackerController -->
<g id="node8" class="node"><title>TrackerController</title>
<path fill="none" stroke="black" d="M266.734,67C266.734,67 379.266,67 379.266,67 385.266,67 391.266,61 391.266,55 391.266,55 391.266,-67 391.266,-67 391.266,-73 385.266,-79 379.266,-79 379.266,-79 266.734,-79 266.734,-79 260.734,-79 254.734,-73 254.734,-67 254.734,-67 254.734,55 254.734,55 254.734,61 260.734,67 266.734,67"/>
<text text-anchor="middle" x="323" y="-63.8" font-family="Times,serif" font-size="14.00">TrackerController</text>
<polyline fill="none" stroke="black" points="254.734,-57 391.266,-57 "/>
<text text-anchor="start" x="262.734" y="-41.8" font-family="Times,serif" font-size="14.00">announce</text>
<text text-anchor="start" x="262.734" y="-27.8" font-family="Times,serif" font-size="14.00">scrape</text>
<polyline fill="none" stroke="black" points="254.734,-21 391.266,-21 "/>
<polyline fill="none" stroke="black" points="254.734,3 391.266,3 "/>
<text text-anchor="start" x="262.734" y="18.2" font-family="Times,serif" font-size="14.00">_layout</text>
<text text-anchor="start" x="262.734" y="32.2" font-family="Times,serif" font-size="14.00">load_from_info_hash</text>
<text text-anchor="start" x="262.734" y="46.2" font-family="Times,serif" font-size="14.00">peer_params</text>
<text text-anchor="start" x="262.734" y="60.2" font-family="Times,serif" font-size="14.00">rsize</text>
</g>
<!-- UsersController -->
<g id="node9" class="node"><title>UsersController</title>
<path fill="none" stroke="black" d="M165.286,-154C165.286,-154 246.714,-154 246.714,-154 252.714,-154 258.714,-160 258.714,-166 258.714,-166 258.714,-344 258.714,-344 258.714,-350 252.714,-356 246.714,-356 246.714,-356 165.286,-356 165.286,-356 159.286,-356 153.286,-350 153.286,-344 153.286,-344 153.286,-166 153.286,-166 153.286,-160 159.286,-154 165.286,-154"/>
<text text-anchor="middle" x="206" y="-340.8" font-family="Times,serif" font-size="14.00">UsersController</text>
<polyline fill="none" stroke="black" points="153.286,-334 258.714,-334 "/>
<text text-anchor="start" x="161.286" y="-318.8" font-family="Times,serif" font-size="14.00">update</text>
<text text-anchor="start" x="161.286" y="-304.8" font-family="Times,serif" font-size="14.00">deny</text>
<text text-anchor="start" x="161.286" y="-290.8" font-family="Times,serif" font-size="14.00">destroy</text>
<text text-anchor="start" x="161.286" y="-276.8" font-family="Times,serif" font-size="14.00">index</text>
<text text-anchor="start" x="161.286" y="-262.8" font-family="Times,serif" font-size="14.00">manage</text>
<text text-anchor="start" x="161.286" y="-248.8" font-family="Times,serif" font-size="14.00">show</text>
<text text-anchor="start" x="161.286" y="-234.8" font-family="Times,serif" font-size="14.00">transfer</text>
<text text-anchor="start" x="161.286" y="-220.8" font-family="Times,serif" font-size="14.00">approve</text>
<polyline fill="none" stroke="black" points="153.286,-214 258.714,-214 "/>
<polyline fill="none" stroke="black" points="153.286,-190 258.714,-190 "/>
<text text-anchor="start" x="161.286" y="-174.8" font-family="Times,serif" font-size="14.00">_layout</text>
<text text-anchor="start" x="161.286" y="-160.8" font-family="Times,serif" font-size="14.00">user_params</text>
</g>
<!-- VolunteersController -->
<g id="node10" class="node"><title>VolunteersController</title>
<path fill="none" stroke="black" d="M301.416,-120C301.416,-120 410.584,-120 410.584,-120 416.584,-120 422.584,-126 422.584,-132 422.584,-132 422.584,-198 422.584,-198 422.584,-204 416.584,-210 410.584,-210 410.584,-210 301.416,-210 301.416,-210 295.416,-210 289.416,-204 289.416,-198 289.416,-198 289.416,-132 289.416,-132 289.416,-126 295.416,-120 301.416,-120"/>
<text text-anchor="middle" x="356" y="-194.8" font-family="Times,serif" font-size="14.00">VolunteersController</text>
<polyline fill="none" stroke="black" points="289.416,-188 422.584,-188 "/>
<text text-anchor="start" x="297.416" y="-172.8" font-family="Times,serif" font-size="14.00">index</text>
<polyline fill="none" stroke="black" points="289.416,-166 422.584,-166 "/>
<polyline fill="none" stroke="black" points="289.416,-142 422.584,-142 "/>
<text text-anchor="start" x="297.416" y="-126.8" font-family="Times,serif" font-size="14.00">_layout</text>
</g>
<!-- WelcomeController -->
<g id="node11" class="node"><title>WelcomeController</title>
<path fill="none" stroke="black" d="M113.967,101C113.967,101 216.033,101 216.033,101 222.033,101 228.033,95 228.033,89 228.033,89 228.033,-103 228.033,-103 228.033,-109 222.033,-115 216.033,-115 216.033,-115 113.967,-115 113.967,-115 107.967,-115 101.967,-109 101.967,-103 101.967,-103 101.967,89 101.967,89 101.967,95 107.967,101 113.967,101"/>
<text text-anchor="middle" x="165" y="-99.8" font-family="Times,serif" font-size="14.00">WelcomeController</text>
<polyline fill="none" stroke="black" points="101.967,-93 228.033,-93 "/>
<text text-anchor="start" x="109.967" y="-77.8" font-family="Times,serif" font-size="14.00">torrents</text>
<text text-anchor="start" x="109.967" y="-63.8" font-family="Times,serif" font-size="14.00">dashboard</text>
<text text-anchor="start" x="109.967" y="-49.8" font-family="Times,serif" font-size="14.00">faq</text>
<text text-anchor="start" x="109.967" y="-35.8" font-family="Times,serif" font-size="14.00">feeds</text>
<text text-anchor="start" x="109.967" y="-21.8" font-family="Times,serif" font-size="14.00">landing</text>
<text text-anchor="start" x="109.967" y="-7.8" font-family="Times,serif" font-size="14.00">legal</text>
<text text-anchor="start" x="109.967" y="6.2" font-family="Times,serif" font-size="14.00">settings</text>
<text text-anchor="start" x="109.967" y="20.2" font-family="Times,serif" font-size="14.00">status</text>
<text text-anchor="start" x="109.967" y="34.2" font-family="Times,serif" font-size="14.00">concepts</text>
<polyline fill="none" stroke="black" points="101.967,41 228.033,41 "/>
<polyline fill="none" stroke="black" points="101.967,65 228.033,65 "/>
<text text-anchor="start" x="109.967" y="80.2" font-family="Times,serif" font-size="14.00">_layout</text>
<text text-anchor="start" x="109.967" y="94.2" font-family="Times,serif" font-size="14.00">set_selected_feed</text>
</g>
</g>
</svg>
