<?xml version="1.0" encoding="UTF-8" standalone="no"?>
<!DOCTYPE svg PUBLIC "-//W3C//DTD SVG 1.1//EN"
 "http://www.w3.org/Graphics/SVG/1.1/DTD/svg11.dtd">
<!-- Generated by graphviz version 2.38.0 (20140413.2041)
 -->
<!-- Title: models_diagram Pages: 1 -->
<svg width="536pt" height="1010pt"
 viewBox="0.00 0.00 535.59 1010.00" xmlns="http://www.w3.org/2000/svg" xmlns:xlink="http://www.w3.org/1999/xlink">
<g id="graph0" class="graph" transform="scale(1 1) rotate(0) translate(4 1006)">
<title>models_diagram</title>
<polygon fill="white" stroke="none" points="-4,4 -4,-1006 531.591,-1006 531.591,4 -4,4"/>
<!-- _diagram_info -->
<g id="node1" class="node"><title>_diagram_info</title>
<text text-anchor="start" x="8" y="-840.6" font-family="Times,serif" font-size="13.00">Models diagram</text>
<text text-anchor="start" x="8" y="-827.6" font-family="Times,serif" font-size="13.00">Date: Oct 14 2014 &#45; 11:36</text>
<text text-anchor="start" x="8" y="-814.6" font-family="Times,serif" font-size="13.00">Migration version: 20140301210457</text>
<text text-anchor="start" x="8" y="-801.6" font-family="Times,serif" font-size="13.00">Generated by RailRoady 1.2.0</text>
<text text-anchor="start" x="8" y="-788.6" font-family="Times,serif" font-size="13.00">http://railroady.prestonlee.com</text>
</g>
<!-- Ability -->
<g id="node2" class="node"><title>Ability</title>
<polygon fill="none" stroke="black" points="225.853,-796.5 225.853,-840.5 281.522,-840.5 281.522,-796.5 225.853,-796.5"/>
<text text-anchor="middle" x="253.688" y="-825.3" font-family="Times,serif" font-size="14.00">Ability</text>
<polyline fill="none" stroke="black" points="225.853,-818.5 281.522,-818.5 "/>
<text text-anchor="middle" x="253.688" y="-803.3" font-family="Times,serif" font-size="14.00"> </text>
</g>
<!-- Feed -->
<g id="node3" class="node"><title>Feed</title>
<path fill="none" stroke="black" d="M310.637,-456.5C310.637,-456.5 492.738,-456.5 492.738,-456.5 498.738,-456.5 504.738,-462.5 504.738,-468.5 504.738,-468.5 504.738,-586.5 504.738,-586.5 504.738,-592.5 498.738,-598.5 492.738,-598.5 492.738,-598.5 310.637,-598.5 310.637,-598.5 304.637,-598.5 298.637,-592.5 298.637,-586.5 298.637,-586.5 298.637,-468.5 298.637,-468.5 298.637,-462.5 304.637,-456.5 310.637,-456.5"/>
<text text-anchor="middle" x="401.688" y="-583.3" font-family="Times,serif" font-size="14.00">Feed</text>
<polyline fill="none" stroke="black" points="298.637,-576.5 504.738,-576.5 "/>
<text text-anchor="start" x="306.637" y="-561.3" font-family="Times,serif" font-size="14.00">id :integer</text>
<text text-anchor="start" x="306.637" y="-547.3" font-family="Times,serif" font-size="14.00">name :string</text>
<text text-anchor="start" x="306.637" y="-533.3" font-family="Times,serif" font-size="14.00">slug :string</text>
<text text-anchor="start" x="306.637" y="-519.3" font-family="Times,serif" font-size="14.00">description :text</text>
<text text-anchor="start" x="306.637" y="-505.3" font-family="Times,serif" font-size="14.00">user_id :integer</text>
<text text-anchor="start" x="306.637" y="-491.3" font-family="Times,serif" font-size="14.00">created_at :datetime</text>
<text text-anchor="start" x="306.637" y="-477.3" font-family="Times,serif" font-size="14.00">updated_at :datetime</text>
<text text-anchor="start" x="306.637" y="-463.3" font-family="Times,serif" font-size="14.00">enable_public_archiving :boolean</text>
</g>
<!-- Permission -->
<g id="node5" class="node"><title>Permission</title>
<path fill="none" stroke="black" d="M239.182,-49.5C239.182,-49.5 348.193,-49.5 348.193,-49.5 354.193,-49.5 360.193,-55.5 360.193,-61.5 360.193,-61.5 360.193,-151.5 360.193,-151.5 360.193,-157.5 354.193,-163.5 348.193,-163.5 348.193,-163.5 239.182,-163.5 239.182,-163.5 233.182,-163.5 227.182,-157.5 227.182,-151.5 227.182,-151.5 227.182,-61.5 227.182,-61.5 227.182,-55.5 233.182,-49.5 239.182,-49.5"/>
<text text-anchor="middle" x="293.688" y="-148.3" font-family="Times,serif" font-size="14.00">Permission</text>
<polyline fill="none" stroke="black" points="227.182,-141.5 360.193,-141.5 "/>
<text text-anchor="start" x="235.182" y="-126.3" font-family="Times,serif" font-size="14.00">id :integer</text>
<text text-anchor="start" x="235.182" y="-112.3" font-family="Times,serif" font-size="14.00">user_id :integer</text>
<text text-anchor="start" x="235.182" y="-98.3" font-family="Times,serif" font-size="14.00">feed_id :integer</text>
<text text-anchor="start" x="235.182" y="-84.3" font-family="Times,serif" font-size="14.00">role :string</text>
<text text-anchor="start" x="235.182" y="-70.3" font-family="Times,serif" font-size="14.00">created_at :datetime</text>
<text text-anchor="start" x="235.182" y="-56.3" font-family="Times,serif" font-size="14.00">updated_at :datetime</text>
</g>
<!-- Feed&#45;&gt;Permission -->
<g id="edge2" class="edge"><title>Feed&#45;&gt;Permission</title>
<path fill="none" stroke="#8e15d8" d="M353.033,-449.085C348.329,-439.528 344.062,-429.703 340.688,-420 312.203,-338.103 300.976,-238.221 296.554,-173.775"/>
<ellipse fill="none" stroke="#8e15d8" cx="354.899" cy="-452.768" rx="4.00002" ry="4.00002"/>
<polygon fill="#8e15d8" stroke="#8e15d8" points="296.551,-173.723 300.392,-163.451 296.226,-168.733 295.902,-163.744 295.902,-163.744 295.902,-163.744 296.226,-168.733 291.411,-164.036 296.551,-173.723 296.551,-173.723"/>
</g>
<!-- Torrent -->
<g id="node6" class="node"><title>Torrent</title>
<path fill="none" stroke="black" d="M362.182,-249.5C362.182,-249.5 471.193,-249.5 471.193,-249.5 477.193,-249.5 483.193,-255.5 483.193,-261.5 483.193,-261.5 483.193,-407.5 483.193,-407.5 483.193,-413.5 477.193,-419.5 471.193,-419.5 471.193,-419.5 362.182,-419.5 362.182,-419.5 356.182,-419.5 350.182,-413.5 350.182,-407.5 350.182,-407.5 350.182,-261.5 350.182,-261.5 350.182,-255.5 356.182,-249.5 362.182,-249.5"/>
<text text-anchor="middle" x="416.688" y="-404.3" font-family="Times,serif" font-size="14.00">Torrent</text>
<polyline fill="none" stroke="black" points="350.182,-397.5 483.193,-397.5 "/>
<text text-anchor="start" x="358.182" y="-382.3" font-family="Times,serif" font-size="14.00">id :integer</text>
<text text-anchor="start" x="358.182" y="-368.3" font-family="Times,serif" font-size="14.00">name :string</text>
<text text-anchor="start" x="358.182" y="-354.3" font-family="Times,serif" font-size="14.00">slug :string</text>
<text text-anchor="start" x="358.182" y="-340.3" font-family="Times,serif" font-size="14.00">created_at :datetime</text>
<text text-anchor="start" x="358.182" y="-326.3" font-family="Times,serif" font-size="14.00">updated_at :datetime</text>
<text text-anchor="start" x="358.182" y="-312.3" font-family="Times,serif" font-size="14.00">user_id :integer</text>
<text text-anchor="start" x="358.182" y="-298.3" font-family="Times,serif" font-size="14.00">size :integer</text>
<text text-anchor="start" x="358.182" y="-284.3" font-family="Times,serif" font-size="14.00">info_hash :string</text>
<text text-anchor="start" x="358.182" y="-270.3" font-family="Times,serif" font-size="14.00">data :binary</text>
<text text-anchor="start" x="358.182" y="-256.3" font-family="Times,serif" font-size="14.00">feed_id :integer</text>
</g>
<!-- Feed&#45;&gt;Torrent -->
<g id="edge1" class="edge"><title>Feed&#45;&gt;Torrent</title>
<path fill="none" stroke="#d2ef53" d="M407.831,-448.28C408.303,-442.264 408.783,-436.154 409.262,-430.049"/>
<ellipse fill="none" stroke="#d2ef53" cx="407.501" cy="-452.475" rx="4" ry="4"/>
<polygon fill="#d2ef53" stroke="#d2ef53" points="409.285,-429.766 414.554,-420.149 409.676,-424.781 410.068,-419.797 410.068,-419.797 410.068,-419.797 409.676,-424.781 405.581,-419.444 409.285,-429.766 409.285,-429.766"/>
</g>
<!-- Peer -->
<g id="node4" class="node"><title>Peer</title>
<path fill="none" stroke="black" d="M390.182,-0.5C390.182,-0.5 499.193,-0.5 499.193,-0.5 505.193,-0.5 511.193,-6.5 511.193,-12.5 511.193,-12.5 511.193,-200.5 511.193,-200.5 511.193,-206.5 505.193,-212.5 499.193,-212.5 499.193,-212.5 390.182,-212.5 390.182,-212.5 384.182,-212.5 378.182,-206.5 378.182,-200.5 378.182,-200.5 378.182,-12.5 378.182,-12.5 378.182,-6.5 384.182,-0.5 390.182,-0.5"/>
<text text-anchor="middle" x="444.688" y="-197.3" font-family="Times,serif" font-size="14.00">Peer</text>
<polyline fill="none" stroke="black" points="378.182,-190.5 511.193,-190.5 "/>
<text text-anchor="start" x="386.182" y="-175.3" font-family="Times,serif" font-size="14.00">id :integer</text>
<text text-anchor="start" x="386.182" y="-161.3" font-family="Times,serif" font-size="14.00">peer_id :string</text>
<text text-anchor="start" x="386.182" y="-147.3" font-family="Times,serif" font-size="14.00">info_hash :string</text>
<text text-anchor="start" x="386.182" y="-133.3" font-family="Times,serif" font-size="14.00">ip :string</text>
<text text-anchor="start" x="386.182" y="-119.3" font-family="Times,serif" font-size="14.00">port :integer</text>
<text text-anchor="start" x="386.182" y="-105.3" font-family="Times,serif" font-size="14.00">uploaded :integer</text>
<text text-anchor="start" x="386.182" y="-91.3" font-family="Times,serif" font-size="14.00">downloaded :integer</text>
<text text-anchor="start" x="386.182" y="-77.3" font-family="Times,serif" font-size="14.00">left :integer</text>
<text text-anchor="start" x="386.182" y="-63.3" font-family="Times,serif" font-size="14.00">state :string</text>
<text text-anchor="start" x="386.182" y="-49.3" font-family="Times,serif" font-size="14.00">created_at :datetime</text>
<text text-anchor="start" x="386.182" y="-35.3" font-family="Times,serif" font-size="14.00">updated_at :datetime</text>
<text text-anchor="start" x="386.182" y="-21.3" font-family="Times,serif" font-size="14.00">latitude :float</text>
<text text-anchor="start" x="386.182" y="-7.3" font-family="Times,serif" font-size="14.00">longitude :float</text>
</g>
<!-- Torrent&#45;&gt;Peer -->
<g id="edge3" class="edge"><title>Torrent&#45;&gt;Peer</title>
<path fill="none" stroke="#329207" d="M428.126,-241.179C428.869,-235.183 429.621,-229.107 430.375,-223.021"/>
<ellipse fill="none" stroke="#329207" cx="427.606" cy="-245.376" rx="4.00001" ry="4.00001"/>
<polygon fill="#329207" stroke="#329207" points="430.414,-222.707 436.11,-213.336 431.029,-217.745 431.644,-212.782 431.644,-212.782 431.644,-212.782 431.029,-217.745 427.178,-212.229 430.414,-222.707 430.414,-222.707"/>
</g>
<!-- Torrent&#45;&gt;Permission -->
<g id="edge4" class="edge"><title>Torrent&#45;&gt;Permission</title>
<path fill="none" stroke="#c5d5f7" d="M366.102,-240.554C353.666,-217.703 340.614,-193.721 329.07,-172.51"/>
<polygon fill="#c5d5f7" stroke="#c5d5f7" points="366.107,-240.563 366.935,-251.497 368.497,-244.954 370.887,-249.346 370.887,-249.346 370.887,-249.346 368.497,-244.954 374.84,-247.195 366.107,-240.563 366.107,-240.563"/>
<polygon fill="#c5d5f7" stroke="#c5d5f7" points="329.001,-172.384 328.173,-161.45 326.611,-167.993 324.221,-163.601 324.221,-163.601 324.221,-163.601 326.611,-167.993 320.268,-165.752 329.001,-172.384 329.001,-172.384"/>
</g>
<!-- User -->
<g id="node7" class="node"><title>User</title>
<path fill="none" stroke="black" d="M311.41,-635.5C311.41,-635.5 491.966,-635.5 491.966,-635.5 497.966,-635.5 503.966,-641.5 503.966,-647.5 503.966,-647.5 503.966,-989.5 503.966,-989.5 503.966,-995.5 497.966,-1001.5 491.966,-1001.5 491.966,-1001.5 311.41,-1001.5 311.41,-1001.5 305.41,-1001.5 299.41,-995.5 299.41,-989.5 299.41,-989.5 299.41,-647.5 299.41,-647.5 299.41,-641.5 305.41,-635.5 311.41,-635.5"/>
<text text-anchor="middle" x="401.688" y="-986.3" font-family="Times,serif" font-size="14.00">User</text>
<polyline fill="none" stroke="black" points="299.41,-979.5 503.966,-979.5 "/>
<text text-anchor="start" x="307.41" y="-964.3" font-family="Times,serif" font-size="14.00">id :integer</text>
<text text-anchor="start" x="307.41" y="-950.3" font-family="Times,serif" font-size="14.00">email :string</text>
<text text-anchor="start" x="307.41" y="-936.3" font-family="Times,serif" font-size="14.00">encrypted_password :string</text>
<text text-anchor="start" x="307.41" y="-922.3" font-family="Times,serif" font-size="14.00">reset_password_token :string</text>
<text text-anchor="start" x="307.41" y="-908.3" font-family="Times,serif" font-size="14.00">reset_password_sent_at :datetime</text>
<text text-anchor="start" x="307.41" y="-894.3" font-family="Times,serif" font-size="14.00">remember_created_at :datetime</text>
<text text-anchor="start" x="307.41" y="-880.3" font-family="Times,serif" font-size="14.00">sign_in_count :integer</text>
<text text-anchor="start" x="307.41" y="-866.3" font-family="Times,serif" font-size="14.00">current_sign_in_at :datetime</text>
<text text-anchor="start" x="307.41" y="-852.3" font-family="Times,serif" font-size="14.00">last_sign_in_at :datetime</text>
<text text-anchor="start" x="307.41" y="-838.3" font-family="Times,serif" font-size="14.00">current_sign_in_ip :string</text>
<text text-anchor="start" x="307.41" y="-824.3" font-family="Times,serif" font-size="14.00">last_sign_in_ip :string</text>
<text text-anchor="start" x="307.41" y="-810.3" font-family="Times,serif" font-size="14.00">confirmation_token :string</text>
<text text-anchor="start" x="307.41" y="-796.3" font-family="Times,serif" font-size="14.00">confirmed_at :datetime</text>
<text text-anchor="start" x="307.41" y="-782.3" font-family="Times,serif" font-size="14.00">confirmation_sent_at :datetime</text>
<text text-anchor="start" x="307.41" y="-768.3" font-family="Times,serif" font-size="14.00">unconfirmed_email :string</text>
<text text-anchor="start" x="307.41" y="-754.3" font-family="Times,serif" font-size="14.00">failed_attempts :integer</text>
<text text-anchor="start" x="307.41" y="-740.3" font-family="Times,serif" font-size="14.00">unlock_token :string</text>
<text text-anchor="start" x="307.41" y="-726.3" font-family="Times,serif" font-size="14.00">locked_at :datetime</text>
<text text-anchor="start" x="307.41" y="-712.3" font-family="Times,serif" font-size="14.00">created_at :datetime</text>
<text text-anchor="start" x="307.41" y="-698.3" font-family="Times,serif" font-size="14.00">updated_at :datetime</text>
<text text-anchor="start" x="307.41" y="-684.3" font-family="Times,serif" font-size="14.00">admin :boolean</text>
<text text-anchor="start" x="307.41" y="-670.3" font-family="Times,serif" font-size="14.00">name :string</text>
<text text-anchor="start" x="307.41" y="-656.3" font-family="Times,serif" font-size="14.00">authentication_token :string</text>
<text text-anchor="start" x="307.41" y="-642.3" font-family="Times,serif" font-size="14.00">approved :boolean</text>
</g>
<!-- User&#45;&gt;Feed -->
<g id="edge6" class="edge"><title>User&#45;&gt;Feed</title>
<path fill="none" stroke="#d9e15d" d="M401.688,-626.998C401.688,-620.879 401.688,-614.883 401.688,-609.06"/>
<ellipse fill="none" stroke="#d9e15d" cx="401.688" cy="-631.292" rx="4" ry="4"/>
<polygon fill="#d9e15d" stroke="#d9e15d" points="401.688,-608.777 406.188,-598.777 401.688,-603.777 401.688,-598.777 401.688,-598.777 401.688,-598.777 401.688,-603.777 397.188,-598.777 401.688,-608.777 401.688,-608.777"/>
</g>
<!-- User&#45;&gt;Permission -->
<g id="edge7" class="edge"><title>User&#45;&gt;Permission</title>
<path fill="none" stroke="#a0dc69" d="M297.987,-627.759C294.799,-618.179 291.996,-608.564 289.688,-599 253.854,-450.536 270.081,-269.425 283.088,-173.883"/>
<ellipse fill="none" stroke="#a0dc69" cx="299.325" cy="-631.65" rx="4.00001" ry="4.00001"/>
<polygon fill="#a0dc69" stroke="#a0dc69" points="283.115,-173.691 288.952,-164.407 283.805,-168.738 284.495,-163.786 284.495,-163.786 284.495,-163.786 283.805,-168.738 280.038,-163.165 283.115,-173.691 283.115,-173.691"/>
</g>
<!-- User&#45;&gt;Torrent -->
<g id="edge5" class="edge"><title>User&#45;&gt;Torrent</title>
<path fill="none" stroke="#202347" d="M505.388,-627.759C508.577,-618.179 511.379,-608.564 513.688,-599 528.599,-537.219 534.816,-515.941 513.688,-456 508.053,-440.014 499.301,-424.587 489.311,-410.414"/>
<ellipse fill="none" stroke="#202347" cx="504.051" cy="-631.65" rx="4.00001" ry="4.00001"/>
<polygon fill="#202347" stroke="#202347" points="489.215,-410.282 486.929,-399.557 486.258,-406.251 483.3,-402.219 483.3,-402.219 483.3,-402.219 486.258,-406.251 479.672,-404.88 489.215,-410.282 489.215,-410.282"/>
</g>
</g>
</svg>
