<?xml version="1.0" encoding="UTF-8" standalone="no"?>
<!DOCTYPE svg PUBLIC "-//W3C//DTD SVG 1.1//EN"
 "http://www.w3.org/Graphics/SVG/1.1/DTD/svg11.dtd">
<!-- Generated by graphviz version 2.38.0 (20140413.2041)
 -->
<!-- Title: models_diagram Pages: 1 -->
<svg width="428pt" height="297pt"
 viewBox="0.00 0.00 427.69 297.00" xmlns="http://www.w3.org/2000/svg" xmlns:xlink="http://www.w3.org/1999/xlink">
<g id="graph0" class="graph" transform="scale(1 1) rotate(0) translate(4 293)">
<title>models_diagram</title>
<polygon fill="white" stroke="none" points="-4,4 -4,-293 423.688,-293 423.688,4 -4,4"/>
<!-- _diagram_info -->
<g id="node1" class="node"><title>_diagram_info</title>
<text text-anchor="start" x="8" y="-274.6" font-family="Times,serif" font-size="13.00">Models diagram</text>
<text text-anchor="start" x="8" y="-261.6" font-family="Times,serif" font-size="13.00">Date: Dec 30 2014 &#45; 12:32</text>
<text text-anchor="start" x="8" y="-248.6" font-family="Times,serif" font-size="13.00">Migration version: 20141227003158</text>
<text text-anchor="start" x="8" y="-235.6" font-family="Times,serif" font-size="13.00">Generated by RailRoady 1.3.0</text>
<text text-anchor="start" x="8" y="-222.6" font-family="Times,serif" font-size="13.00">http://railroady.prestonlee.com</text>
</g>
<!-- Ability -->
<g id="node2" class="node"><title>Ability</title>
<polygon fill="none" stroke="black" points="281.358,-270.5 226.018,-270.5 226.018,-234.5 281.358,-234.5 281.358,-270.5"/>
<text text-anchor="middle" x="253.688" y="-248.3" font-family="Times,serif" font-size="14.00">Ability</text>
</g>
<!-- Feed -->
<g id="node3" class="node"><title>Feed</title>
<ellipse fill="none" stroke="black" cx="298.688" cy="-162" rx="27.0958" ry="18"/>
<text text-anchor="middle" x="298.688" y="-157.8" font-family="Times,serif" font-size="14.00">Feed</text>
</g>
<!-- Permission -->
<g id="node5" class="node"><title>Permission</title>
<ellipse fill="none" stroke="black" cx="281.688" cy="-18" rx="49.3291" ry="18"/>
<text text-anchor="middle" x="281.688" y="-13.8" font-family="Times,serif" font-size="14.00">Permission</text>
</g>
<!-- Feed&#45;&gt;Permission -->
<g id="edge2" class="edge"><title>Feed&#45;&gt;Permission</title>
<path fill="none" stroke="#9b9fac" d="M295.642,-135.558C292.635,-110.444 288.052,-72.164 284.967,-46.3932"/>
<ellipse fill="none" stroke="#9b9fac" cx="296.162" cy="-139.9" rx="4.00001" ry="4.00001"/>
<polygon fill="#9b9fac" stroke="#9b9fac" points="284.934,-46.1184 288.214,-35.6543 284.34,-41.1538 283.746,-36.1893 283.746,-36.1893 283.746,-36.1893 284.34,-41.1538 279.278,-36.7242 284.934,-46.1184 284.934,-46.1184"/>
</g>
<!-- Torrent -->
<g id="node6" class="node"><title>Torrent</title>
<ellipse fill="none" stroke="black" cx="345.688" cy="-90" rx="36.0136" ry="18"/>
<text text-anchor="middle" x="345.688" y="-85.8" font-family="Times,serif" font-size="14.00">Torrent</text>
</g>
<!-- Feed&#45;&gt;Torrent -->
<g id="edge1" class="edge"><title>Feed&#45;&gt;Torrent</title>
<path fill="none" stroke="#fc0ffe" d="M313.856,-138.409C318.744,-131.129 324.184,-123.027 329.164,-115.61"/>
<ellipse fill="none" stroke="#fc0ffe" cx="311.583" cy="-141.795" rx="4.00002" ry="4.00002"/>
<polygon fill="#fc0ffe" stroke="#fc0ffe" points="329.164,-115.609 338.475,-109.815 331.952,-111.458 334.739,-107.307 334.739,-107.307 334.739,-107.307 331.952,-111.458 331.003,-104.799 329.164,-115.609 329.164,-115.609"/>
</g>
<!-- Peer -->
<g id="node4" class="node"><title>Peer</title>
<ellipse fill="none" stroke="black" cx="392.688" cy="-18" rx="27" ry="18"/>
<text text-anchor="middle" x="392.688" y="-13.8" font-family="Times,serif" font-size="14.00">Peer</text>
</g>
<!-- Torrent&#45;&gt;Peer -->
<g id="edge3" class="edge"><title>Torrent&#45;&gt;Peer</title>
<path fill="none" stroke="#3ad81a" d="M361.157,-65.9612C366.001,-58.7465 371.362,-50.761 376.27,-43.4524"/>
<ellipse fill="none" stroke="#3ad81a" cx="358.818" cy="-69.4438" rx="4.00002" ry="4.00002"/>
<polygon fill="#3ad81a" stroke="#3ad81a" points="376.595,-42.968 385.905,-37.1743 379.382,-38.8169 382.169,-34.6658 382.169,-34.6658 382.169,-34.6658 379.382,-38.8169 378.433,-32.1573 376.595,-42.968 376.595,-42.968"/>
</g>
<!-- Torrent&#45;&gt;Permission -->
<g id="edge4" class="edge"><title>Torrent&#45;&gt;Permission</title>
<path fill="none" stroke="#8c3dc8" d="M324.228,-65.5282C317.566,-58.2419 310.218,-50.2053 303.531,-42.8908"/>
<polygon fill="#8c3dc8" stroke="#8c3dc8" points="324.417,-65.7356 327.844,-76.1524 327.791,-69.4258 331.165,-73.1159 331.165,-73.1159 331.165,-73.1159 327.791,-69.4258 334.486,-70.0794 324.417,-65.7356 324.417,-65.7356"/>
<polygon fill="#8c3dc8" stroke="#8c3dc8" points="303.345,-42.6873 299.918,-32.2705 299.971,-38.9972 296.597,-35.307 296.597,-35.307 296.597,-35.307 299.971,-38.9972 293.276,-38.3435 303.345,-42.6873 303.345,-42.6873"/>
</g>
<!-- User -->
<g id="node7" class="node"><title>User</title>
<ellipse fill="none" stroke="black" cx="326.688" cy="-252.5" rx="27" ry="18"/>
<text text-anchor="middle" x="326.688" y="-248.3" font-family="Times,serif" font-size="14.00">User</text>
</g>
<!-- User&#45;&gt;Feed -->
<g id="edge6" class="edge"><title>User&#45;&gt;Feed</title>
<path fill="none" stroke="#fd52a1" d="M318.794,-226.55C315.129,-214.965 310.769,-201.185 307.047,-189.422"/>
<ellipse fill="none" stroke="#fd52a1" cx="320.082" cy="-230.623" rx="4.00001" ry="4.00001"/>
<polygon fill="#fd52a1" stroke="#fd52a1" points="306.991,-189.245 308.265,-178.354 305.483,-184.478 303.975,-179.711 303.975,-179.711 303.975,-179.711 305.483,-184.478 299.685,-181.069 306.991,-189.245 306.991,-189.245"/>
</g>
<!-- User&#45;&gt;Peer -->
<g id="edge8" class="edge"><title>User&#45;&gt;Peer</title>
<path fill="none" stroke="#14855c" d="M340.563,-228.231C356.164,-200.648 380.631,-152.763 390.688,-108 395.282,-87.5491 395.57,-63.7884 394.825,-45.9643"/>
<ellipse fill="none" stroke="#14855c" cx="338.408" cy="-231.984" rx="4.00002" ry="4.00002"/>
<polygon fill="#14855c" stroke="#14855c" points="394.824,-45.9563 398.767,-35.7238 394.549,-40.9639 394.274,-35.9714 394.274,-35.9714 394.274,-35.9714 394.549,-40.9639 389.781,-36.2191 394.824,-45.9563 394.824,-45.9563"/>
</g>
<!-- User&#45;&gt;Permission -->
<g id="edge7" class="edge"><title>User&#45;&gt;Permission</title>
<path fill="none" stroke="#7ec73b" d="M306.807,-230.835C288.903,-211.983 265.039,-186.152 262.688,-180 245.552,-135.163 259.679,-78.6135 271.021,-45.8555"/>
<ellipse fill="none" stroke="#7ec73b" cx="309.851" cy="-234.028" rx="4.00002" ry="4.00002"/>
<polygon fill="#7ec73b" stroke="#7ec73b" points="271.15,-45.5005 278.792,-37.6364 272.856,-40.8006 274.562,-36.1008 274.562,-36.1008 274.562,-36.1008 272.856,-40.8006 270.332,-34.5652 271.15,-45.5005 271.15,-45.5005"/>
</g>
<!-- User&#45;&gt;Torrent -->
<g id="edge5" class="edge"><title>User&#45;&gt;Torrent</title>
<path fill="none" stroke="#8e9a1a" d="M329.697,-226.079C333.178,-196.675 338.886,-148.455 342.458,-118.284"/>
<ellipse fill="none" stroke="#8e9a1a" cx="329.191" cy="-230.351" rx="4.00001" ry="4.00001"/>
<polygon fill="#8e9a1a" stroke="#8e9a1a" points="342.493,-117.983 348.138,-108.582 343.081,-113.018 343.669,-108.053 343.669,-108.053 343.669,-108.053 343.081,-113.018 339.2,-107.524 342.493,-117.983 342.493,-117.983"/>
</g>
</g>
</svg>
