<?xml version="1.0" encoding="UTF-8" standalone="no"?>
<!DOCTYPE svg PUBLIC "-//W3C//DTD SVG 1.1//EN"
 "http://www.w3.org/Graphics/SVG/1.1/DTD/svg11.dtd">
<!-- Generated by graphviz version 2.36.0 (20140111.2315)
 -->
<!-- Title: models_diagram Pages: 1 -->
<svg width="757pt" height="1124pt"
 viewBox="0.00 0.00 756.56 1124.00" xmlns="http://www.w3.org/2000/svg" xmlns:xlink="http://www.w3.org/1999/xlink">
<g id="graph0" class="graph" transform="scale(1 1) rotate(0) translate(4 1120)">
<title>models_diagram</title>
<polygon fill="white" stroke="none" points="-4,4 -4,-1120 752.562,-1120 752.562,4 -4,4"/>
<!-- _diagram_info -->
<g id="node1" class="node"><title>_diagram_info</title>
<text text-anchor="start" x="7.31226" y="-1101.1" font-family="Times,serif" font-size="13.00">Models diagram</text>
<text text-anchor="start" x="7.31226" y="-1088.1" font-family="Times,serif" font-size="13.00">Date: Apr 14 2014 &#45; 23:04</text>
<text text-anchor="start" x="7.31226" y="-1075.1" font-family="Times,serif" font-size="13.00">Migration version: 20140301210457</text>
<text text-anchor="start" x="7.31226" y="-1062.1" font-family="Times,serif" font-size="13.00">Generated by RailRoady 1.1.1</text>
<text text-anchor="start" x="7.31226" y="-1049.1" font-family="Times,serif" font-size="13.00">http://railroady.prestonlee.com</text>
</g>
<!-- Ability -->
<g id="node2" class="node"><title>Ability</title>
<polygon fill="none" stroke="black" points="230.166,-800 230.166,-844 285.834,-844 285.834,-800 230.166,-800"/>
<text text-anchor="middle" x="258" y="-828.8" font-family="Times,serif" font-size="14.00">Ability</text>
<polyline fill="none" stroke="black" points="230.166,-822 285.834,-822 "/>
<text text-anchor="middle" x="258" y="-806.8" font-family="Times,serif" font-size="14.00"> </text>
</g>
<!-- Feed -->
<g id="node3" class="node"><title>Feed</title>
<path fill="none" stroke="black" d="M391.95,-459C391.95,-459 574.05,-459 574.05,-459 580.05,-459 586.05,-465 586.05,-471 586.05,-471 586.05,-589 586.05,-589 586.05,-595 580.05,-601 574.05,-601 574.05,-601 391.95,-601 391.95,-601 385.95,-601 379.95,-595 379.95,-589 379.95,-589 379.95,-471 379.95,-471 379.95,-465 385.95,-459 391.95,-459"/>
<text text-anchor="middle" x="483" y="-585.8" font-family="Times,serif" font-size="14.00">Feed</text>
<polyline fill="none" stroke="black" points="379.95,-579 586.05,-579 "/>
<text text-anchor="start" x="387.95" y="-563.8" font-family="Times,serif" font-size="14.00">id :integer</text>
<text text-anchor="start" x="387.95" y="-549.8" font-family="Times,serif" font-size="14.00">name :string</text>
<text text-anchor="start" x="387.95" y="-535.8" font-family="Times,serif" font-size="14.00">slug :string</text>
<text text-anchor="start" x="387.95" y="-521.8" font-family="Times,serif" font-size="14.00">description :text</text>
<text text-anchor="start" x="387.95" y="-507.8" font-family="Times,serif" font-size="14.00">user_id :integer</text>
<text text-anchor="start" x="387.95" y="-493.8" font-family="Times,serif" font-size="14.00">created_at :datetime</text>
<text text-anchor="start" x="387.95" y="-479.8" font-family="Times,serif" font-size="14.00">updated_at :datetime</text>
<text text-anchor="start" x="387.95" y="-465.8" font-family="Times,serif" font-size="14.00">enable_public_archiving :boolean</text>
</g>
<!-- Permission -->
<g id="node5" class="node"><title>Permission</title>
<path fill="none" stroke="black" d="M339.495,-50C339.495,-50 448.505,-50 448.505,-50 454.505,-50 460.505,-56 460.505,-62 460.505,-62 460.505,-152 460.505,-152 460.505,-158 454.505,-164 448.505,-164 448.505,-164 339.495,-164 339.495,-164 333.495,-164 327.495,-158 327.495,-152 327.495,-152 327.495,-62 327.495,-62 327.495,-56 333.495,-50 339.495,-50"/>
<text text-anchor="middle" x="394" y="-148.8" font-family="Times,serif" font-size="14.00">Permission</text>
<polyline fill="none" stroke="black" points="327.495,-142 460.505,-142 "/>
<text text-anchor="start" x="335.495" y="-126.8" font-family="Times,serif" font-size="14.00">id :integer</text>
<text text-anchor="start" x="335.495" y="-112.8" font-family="Times,serif" font-size="14.00">user_id :integer</text>
<text text-anchor="start" x="335.495" y="-98.8" font-family="Times,serif" font-size="14.00">feed_id :integer</text>
<text text-anchor="start" x="335.495" y="-84.8" font-family="Times,serif" font-size="14.00">role :string</text>
<text text-anchor="start" x="335.495" y="-70.8" font-family="Times,serif" font-size="14.00">created_at :datetime</text>
<text text-anchor="start" x="335.495" y="-56.8" font-family="Times,serif" font-size="14.00">updated_at :datetime</text>
</g>
<!-- Feed&#45;&gt;Permission -->
<g id="edge3" class="edge"><title>Feed&#45;&gt;Permission</title>
<path fill="none" stroke="#be677b" d="M466.431,-450.625C449.588,-370.949 423.781,-248.877 407.949,-173.984"/>
<ellipse fill="none" stroke="#be677b" cx="467.276" cy="-454.621" rx="4.00001" ry="4.00001"/>
<polygon fill="#be677b" stroke="#be677b" points="407.947,-173.974 410.281,-163.26 406.913,-169.082 405.879,-164.19 405.879,-164.19 405.879,-164.19 406.913,-169.082 401.476,-165.121 407.947,-173.974 407.947,-173.974"/>
</g>
<!-- Torrent -->
<g id="node6" class="node"><title>Torrent</title>
<path fill="none" stroke="black" d="M540.495,-251C540.495,-251 649.505,-251 649.505,-251 655.505,-251 661.505,-257 661.505,-263 661.505,-263 661.505,-409 661.505,-409 661.505,-415 655.505,-421 649.505,-421 649.505,-421 540.495,-421 540.495,-421 534.495,-421 528.495,-415 528.495,-409 528.495,-409 528.495,-263 528.495,-263 528.495,-257 534.495,-251 540.495,-251"/>
<text text-anchor="middle" x="595" y="-405.8" font-family="Times,serif" font-size="14.00">Torrent</text>
<polyline fill="none" stroke="black" points="528.495,-399 661.505,-399 "/>
<text text-anchor="start" x="536.495" y="-383.8" font-family="Times,serif" font-size="14.00">id :integer</text>
<text text-anchor="start" x="536.495" y="-369.8" font-family="Times,serif" font-size="14.00">name :string</text>
<text text-anchor="start" x="536.495" y="-355.8" font-family="Times,serif" font-size="14.00">slug :string</text>
<text text-anchor="start" x="536.495" y="-341.8" font-family="Times,serif" font-size="14.00">created_at :datetime</text>
<text text-anchor="start" x="536.495" y="-327.8" font-family="Times,serif" font-size="14.00">updated_at :datetime</text>
<text text-anchor="start" x="536.495" y="-313.8" font-family="Times,serif" font-size="14.00">user_id :integer</text>
<text text-anchor="start" x="536.495" y="-299.8" font-family="Times,serif" font-size="14.00">size :integer</text>
<text text-anchor="start" x="536.495" y="-285.8" font-family="Times,serif" font-size="14.00">info_hash :string</text>
<text text-anchor="start" x="536.495" y="-271.8" font-family="Times,serif" font-size="14.00">data :binary</text>
<text text-anchor="start" x="536.495" y="-257.8" font-family="Times,serif" font-size="14.00">feed_id :integer</text>
</g>
<!-- Feed&#45;&gt;Torrent -->
<g id="edge2" class="edge"><title>Feed&#45;&gt;Torrent</title>
<path fill="none" stroke="#db0d13" d="M527.951,-451.941C532.086,-444.853 536.304,-437.621 540.512,-430.409"/>
<ellipse fill="none" stroke="#db0d13" cx="525.925" cy="-455.413" rx="4.00002" ry="4.00002"/>
<polygon fill="#db0d13" stroke="#db0d13" points="540.789,-429.934 549.714,-423.563 543.308,-425.615 545.827,-421.296 545.827,-421.296 545.827,-421.296 543.308,-425.615 541.94,-419.028 540.789,-429.934 540.789,-429.934"/>
</g>
<!-- Peer -->
<g id="node4" class="node"><title>Peer</title>
<path fill="none" stroke="black" d="M587.495,-1C587.495,-1 696.505,-1 696.505,-1 702.505,-1 708.505,-7 708.505,-13 708.505,-13 708.505,-201 708.505,-201 708.505,-207 702.505,-213 696.505,-213 696.505,-213 587.495,-213 587.495,-213 581.495,-213 575.495,-207 575.495,-201 575.495,-201 575.495,-13 575.495,-13 575.495,-7 581.495,-1 587.495,-1"/>
<text text-anchor="middle" x="642" y="-197.8" font-family="Times,serif" font-size="14.00">Peer</text>
<polyline fill="none" stroke="black" points="575.495,-191 708.505,-191 "/>
<text text-anchor="start" x="583.495" y="-175.8" font-family="Times,serif" font-size="14.00">id :integer</text>
<text text-anchor="start" x="583.495" y="-161.8" font-family="Times,serif" font-size="14.00">peer_id :string</text>
<text text-anchor="start" x="583.495" y="-147.8" font-family="Times,serif" font-size="14.00">info_hash :string</text>
<text text-anchor="start" x="583.495" y="-133.8" font-family="Times,serif" font-size="14.00">ip :string</text>
<text text-anchor="start" x="583.495" y="-119.8" font-family="Times,serif" font-size="14.00">port :integer</text>
<text text-anchor="start" x="583.495" y="-105.8" font-family="Times,serif" font-size="14.00">uploaded :integer</text>
<text text-anchor="start" x="583.495" y="-91.8" font-family="Times,serif" font-size="14.00">downloaded :integer</text>
<text text-anchor="start" x="583.495" y="-77.8" font-family="Times,serif" font-size="14.00">left :integer</text>
<text text-anchor="start" x="583.495" y="-63.8" font-family="Times,serif" font-size="14.00">state :string</text>
<text text-anchor="start" x="583.495" y="-49.8" font-family="Times,serif" font-size="14.00">created_at :datetime</text>
<text text-anchor="start" x="583.495" y="-35.8" font-family="Times,serif" font-size="14.00">updated_at :datetime</text>
<text text-anchor="start" x="583.495" y="-21.8" font-family="Times,serif" font-size="14.00">latitude :float</text>
<text text-anchor="start" x="583.495" y="-7.8" font-family="Times,serif" font-size="14.00">longitude :float</text>
</g>
<!-- Torrent&#45;&gt;Peer -->
<g id="edge7" class="edge"><title>Torrent&#45;&gt;Peer</title>
<path fill="none" stroke="#ec1478" d="M614.11,-242.701C615.429,-236.332 616.767,-229.87 618.106,-223.401"/>
<ellipse fill="none" stroke="#ec1478" cx="613.245" cy="-246.879" rx="4.00001" ry="4.00001"/>
<polygon fill="#ec1478" stroke="#ec1478" points="618.183,-223.032 624.617,-214.152 619.197,-218.136 620.21,-213.24 620.21,-213.24 620.21,-213.24 619.197,-218.136 615.804,-212.327 618.183,-223.032 618.183,-223.032"/>
</g>
<!-- Torrent&#45;&gt;Permission -->
<g id="edge8" class="edge"><title>Torrent&#45;&gt;Permission</title>
<path fill="none" stroke="#e2ae69" d="M521.471,-251.959C497.991,-225.443 472.39,-196.531 450.333,-171.62"/>
<polygon fill="#e2ae69" stroke="#e2ae69" points="521.72,-252.241 524.98,-262.711 525.034,-255.984 528.349,-259.728 528.349,-259.728 528.349,-259.728 525.034,-255.984 531.718,-256.744 521.72,-252.241 521.72,-252.241"/>
<polygon fill="#e2ae69" stroke="#e2ae69" points="450.237,-171.512 446.977,-161.042 446.922,-167.768 443.608,-164.025 443.608,-164.025 443.608,-164.025 446.922,-167.768 440.239,-167.008 450.237,-171.512 450.237,-171.512"/>
</g>
<!-- User -->
<g id="node7" class="node"><title>User</title>
<path fill="none" stroke="black" d="M431.722,-639C431.722,-639 612.278,-639 612.278,-639 618.278,-639 624.278,-645 624.278,-651 624.278,-651 624.278,-993 624.278,-993 624.278,-999 618.278,-1005 612.278,-1005 612.278,-1005 431.722,-1005 431.722,-1005 425.722,-1005 419.722,-999 419.722,-993 419.722,-993 419.722,-651 419.722,-651 419.722,-645 425.722,-639 431.722,-639"/>
<text text-anchor="middle" x="522" y="-989.8" font-family="Times,serif" font-size="14.00">User</text>
<polyline fill="none" stroke="black" points="419.722,-983 624.278,-983 "/>
<text text-anchor="start" x="427.722" y="-967.8" font-family="Times,serif" font-size="14.00">id :integer</text>
<text text-anchor="start" x="427.722" y="-953.8" font-family="Times,serif" font-size="14.00">email :string</text>
<text text-anchor="start" x="427.722" y="-939.8" font-family="Times,serif" font-size="14.00">encrypted_password :string</text>
<text text-anchor="start" x="427.722" y="-925.8" font-family="Times,serif" font-size="14.00">reset_password_token :string</text>
<text text-anchor="start" x="427.722" y="-911.8" font-family="Times,serif" font-size="14.00">reset_password_sent_at :datetime</text>
<text text-anchor="start" x="427.722" y="-897.8" font-family="Times,serif" font-size="14.00">remember_created_at :datetime</text>
<text text-anchor="start" x="427.722" y="-883.8" font-family="Times,serif" font-size="14.00">sign_in_count :integer</text>
<text text-anchor="start" x="427.722" y="-869.8" font-family="Times,serif" font-size="14.00">current_sign_in_at :datetime</text>
<text text-anchor="start" x="427.722" y="-855.8" font-family="Times,serif" font-size="14.00">last_sign_in_at :datetime</text>
<text text-anchor="start" x="427.722" y="-841.8" font-family="Times,serif" font-size="14.00">current_sign_in_ip :string</text>
<text text-anchor="start" x="427.722" y="-827.8" font-family="Times,serif" font-size="14.00">last_sign_in_ip :string</text>
<text text-anchor="start" x="427.722" y="-813.8" font-family="Times,serif" font-size="14.00">confirmation_token :string</text>
<text text-anchor="start" x="427.722" y="-799.8" font-family="Times,serif" font-size="14.00">confirmed_at :datetime</text>
<text text-anchor="start" x="427.722" y="-785.8" font-family="Times,serif" font-size="14.00">confirmation_sent_at :datetime</text>
<text text-anchor="start" x="427.722" y="-771.8" font-family="Times,serif" font-size="14.00">unconfirmed_email :string</text>
<text text-anchor="start" x="427.722" y="-757.8" font-family="Times,serif" font-size="14.00">failed_attempts :integer</text>
<text text-anchor="start" x="427.722" y="-743.8" font-family="Times,serif" font-size="14.00">unlock_token :string</text>
<text text-anchor="start" x="427.722" y="-729.8" font-family="Times,serif" font-size="14.00">locked_at :datetime</text>
<text text-anchor="start" x="427.722" y="-715.8" font-family="Times,serif" font-size="14.00">created_at :datetime</text>
<text text-anchor="start" x="427.722" y="-701.8" font-family="Times,serif" font-size="14.00">updated_at :datetime</text>
<text text-anchor="start" x="427.722" y="-687.8" font-family="Times,serif" font-size="14.00">admin :boolean</text>
<text text-anchor="start" x="427.722" y="-673.8" font-family="Times,serif" font-size="14.00">name :string</text>
<text text-anchor="start" x="427.722" y="-659.8" font-family="Times,serif" font-size="14.00">authentication_token :string</text>
<text text-anchor="start" x="427.722" y="-645.8" font-family="Times,serif" font-size="14.00">approved :boolean</text>
</g>
<!-- User&#45;&gt;Feed -->
<g id="edge11" class="edge"><title>User&#45;&gt;Feed</title>
<path fill="none" stroke="#4291f1" d="M496.448,-630.999C495.534,-624.2 494.639,-617.546 493.773,-611.108"/>
<ellipse fill="none" stroke="#4291f1" cx="496.989" cy="-635.021" rx="4.00001" ry="4.00001"/>
<polygon fill="#4291f1" stroke="#4291f1" points="493.771,-611.089 496.898,-600.578 493.104,-606.133 492.438,-601.178 492.438,-601.178 492.438,-601.178 493.104,-606.133 487.978,-601.778 493.771,-611.089 493.771,-611.089"/>
</g>
<!-- User&#45;&gt;Permission -->
<g id="edge12" class="edge"><title>User&#45;&gt;Permission</title>
<path fill="none" stroke="#5ead0f" d="M415.241,-693.13C397.039,-664.743 380.85,-633.637 371,-602 325.09,-454.539 355.056,-270.4 376.933,-173.937"/>
<ellipse fill="none" stroke="#5ead0f" cx="417.472" cy="-696.553" rx="4.00002" ry="4.00002"/>
<polygon fill="#5ead0f" stroke="#5ead0f" points="376.971,-173.774 383.607,-165.043 378.097,-168.902 379.222,-164.03 379.222,-164.03 379.222,-164.03 378.097,-168.902 374.838,-163.017 376.971,-173.774 376.971,-173.774"/>
</g>
<!-- User&#45;&gt;Torrent -->
<g id="edge10" class="edge"><title>User&#45;&gt;Torrent</title>
<path fill="none" stroke="#eb5076" d="M589.328,-631.125C591.524,-621.345 593.442,-611.599 595,-602 604.12,-545.802 604.423,-482.012 602.302,-431.102"/>
<ellipse fill="none" stroke="#eb5076" cx="588.412" cy="-635.077" rx="4.00001" ry="4.00001"/>
<polygon fill="#eb5076" stroke="#eb5076" points="602.301,-431.088 606.342,-420.894 602.074,-426.093 601.847,-421.098 601.847,-421.098 601.847,-421.098 602.074,-426.093 597.352,-421.303 602.301,-431.088 602.301,-431.088"/>
</g>
<!-- Object -->
<g id="node8" class="node"><title>Object</title>
<ellipse fill="none" stroke="black" cx="258" cy="-1079" rx="33.5181" ry="18"/>
<text text-anchor="middle" x="258" y="-1074.8" font-family="Times,serif" font-size="14.00">Object</text>
</g>
<!-- Object&#45;&gt;Ability -->
<g id="edge1" class="edge"><title>Object&#45;&gt;Ability</title>
<path fill="none" stroke="black" d="M258,-1060.87C258,-1015.76 258,-893.736 258,-844.265"/>
</g>
<!-- ActiveRecord::Base -->
<g id="node9" class="node"><title>ActiveRecord::Base</title>
<ellipse fill="none" stroke="black" cx="522" cy="-1079" rx="80.9821" ry="18"/>
<text text-anchor="middle" x="522" y="-1074.8" font-family="Times,serif" font-size="14.00">ActiveRecord::Base</text>
</g>
<!-- ActiveRecord::Base&#45;&gt;Feed -->
<g id="edge4" class="edge"><title>ActiveRecord::Base&#45;&gt;Feed</title>
<path fill="none" stroke="black" d="M481.249,-1063.34C456.085,-1051.92 425.858,-1033.35 411,-1006 332.92,-862.285 363.268,-794.435 411,-638 414.855,-625.365 420.758,-612.87 427.559,-601.122"/>
</g>
<!-- ActiveRecord::Base&#45;&gt;Peer -->
<g id="edge5" class="edge"><title>ActiveRecord::Base&#45;&gt;Peer</title>
<path fill="none" stroke="black" d="M573.836,-1065.05C604.261,-1054.52 640.304,-1036.3 659,-1006 812.535,-757.188 732.045,-391.122 677.978,-213.034"/>
</g>
<!-- ActiveRecord::Base&#45;&gt;Permission -->
<g id="edge6" class="edge"><title>ActiveRecord::Base&#45;&gt;Permission</title>
<path fill="none" stroke="black" d="M460.443,-1067.24C424.845,-1057.57 382.721,-1039.49 360,-1006 265.661,-866.937 314.172,-415.551 343,-250 348.078,-220.839 358.61,-189.754 368.791,-164.126"/>
</g>
<!-- ActiveRecord::Base&#45;&gt;Torrent -->
<g id="edge9" class="edge"><title>ActiveRecord::Base&#45;&gt;Torrent</title>
<path fill="none" stroke="black" d="M562.751,-1063.34C587.915,-1051.92 618.142,-1033.35 633,-1006 686.523,-907.485 637.906,-578.061 610.615,-421.294"/>
</g>
<!-- ActiveRecord::Base&#45;&gt;User -->
<g id="edge13" class="edge"><title>ActiveRecord::Base&#45;&gt;User</title>
<path fill="none" stroke="black" d="M522,-1060.87C522,-1047.64 522,-1027.79 522,-1005.1"/>
</g>
</g>
</svg>
