<?xml version="1.0" encoding="UTF-8" standalone="no"?>
<!DOCTYPE svg PUBLIC "-//W3C//DTD SVG 1.1//EN"
 "http://www.w3.org/Graphics/SVG/1.1/DTD/svg11.dtd">
<!-- Generated by graphviz version 2.38.0 (20140413.2041)
 -->
<!-- Title: models_diagram Pages: 1 -->
<svg width="636pt" height="1178pt"
 viewBox="0.00 0.00 635.58 1178.00" xmlns="http://www.w3.org/2000/svg" xmlns:xlink="http://www.w3.org/1999/xlink">
<g id="graph0" class="graph" transform="scale(1 1) rotate(0) translate(4 1174)">
<title>models_diagram</title>
<polygon fill="white" stroke="none" points="-4,4 -4,-1174 631.583,-1174 631.583,4 -4,4"/>
<!-- _diagram_info -->
<g id="node1" class="node"><title>_diagram_info</title>
<text text-anchor="start" x="8" y="-1008.6" font-family="Times,serif" font-size="13.00">Models diagram</text>
<text text-anchor="start" x="8" y="-995.6" font-family="Times,serif" font-size="13.00">Date: Dec 30 2014 &#45; 12:32</text>
<text text-anchor="start" x="8" y="-982.6" font-family="Times,serif" font-size="13.00">Migration version: 20141227003158</text>
<text text-anchor="start" x="8" y="-969.6" font-family="Times,serif" font-size="13.00">Generated by RailRoady 1.3.0</text>
<text text-anchor="start" x="8" y="-956.6" font-family="Times,serif" font-size="13.00">http://railroady.prestonlee.com</text>
</g>
<!-- Ability -->
<g id="node2" class="node"><title>Ability</title>
<polygon fill="none" stroke="black" points="225.853,-964.5 225.853,-1008.5 281.522,-1008.5 281.522,-964.5 225.853,-964.5"/>
<text text-anchor="middle" x="253.688" y="-993.3" font-family="Times,serif" font-size="14.00">Ability</text>
<polyline fill="none" stroke="black" points="225.853,-986.5 281.522,-986.5 "/>
<text text-anchor="middle" x="253.688" y="-971.3" font-family="Times,serif" font-size="14.00"> </text>
</g>
<!-- Feed -->
<g id="node3" class="node"><title>Feed</title>
<path fill="none" stroke="black" d="M244.637,-610.5C244.637,-610.5 426.738,-610.5 426.738,-610.5 432.738,-610.5 438.738,-616.5 438.738,-622.5 438.738,-622.5 438.738,-754.5 438.738,-754.5 438.738,-760.5 432.738,-766.5 426.738,-766.5 426.738,-766.5 244.637,-766.5 244.637,-766.5 238.637,-766.5 232.637,-760.5 232.637,-754.5 232.637,-754.5 232.637,-622.5 232.637,-622.5 232.637,-616.5 238.637,-610.5 244.637,-610.5"/>
<text text-anchor="middle" x="335.688" y="-751.3" font-family="Times,serif" font-size="14.00">Feed</text>
<polyline fill="none" stroke="black" points="232.637,-744.5 438.738,-744.5 "/>
<text text-anchor="start" x="240.637" y="-729.3" font-family="Times,serif" font-size="14.00">id :integer</text>
<text text-anchor="start" x="240.637" y="-715.3" font-family="Times,serif" font-size="14.00">name :string</text>
<text text-anchor="start" x="240.637" y="-701.3" font-family="Times,serif" font-size="14.00">slug :string</text>
<text text-anchor="start" x="240.637" y="-687.3" font-family="Times,serif" font-size="14.00">description :text</text>
<text text-anchor="start" x="240.637" y="-673.3" font-family="Times,serif" font-size="14.00">user_id :integer</text>
<text text-anchor="start" x="240.637" y="-659.3" font-family="Times,serif" font-size="14.00">created_at :datetime</text>
<text text-anchor="start" x="240.637" y="-645.3" font-family="Times,serif" font-size="14.00">updated_at :datetime</text>
<text text-anchor="start" x="240.637" y="-631.3" font-family="Times,serif" font-size="14.00">enable_public_archiving :boolean</text>
<text text-anchor="start" x="240.637" y="-617.3" font-family="Times,serif" font-size="14.00">replication_percentage :integer</text>
</g>
<!-- Permission -->
<g id="node5" class="node"><title>Permission</title>
<path fill="none" stroke="black" d="M243.182,-105.5C243.182,-105.5 352.193,-105.5 352.193,-105.5 358.193,-105.5 364.193,-111.5 364.193,-117.5 364.193,-117.5 364.193,-207.5 364.193,-207.5 364.193,-213.5 358.193,-219.5 352.193,-219.5 352.193,-219.5 243.182,-219.5 243.182,-219.5 237.182,-219.5 231.182,-213.5 231.182,-207.5 231.182,-207.5 231.182,-117.5 231.182,-117.5 231.182,-111.5 237.182,-105.5 243.182,-105.5"/>
<text text-anchor="middle" x="297.688" y="-204.3" font-family="Times,serif" font-size="14.00">Permission</text>
<polyline fill="none" stroke="black" points="231.182,-197.5 364.193,-197.5 "/>
<text text-anchor="start" x="239.182" y="-182.3" font-family="Times,serif" font-size="14.00">id :integer</text>
<text text-anchor="start" x="239.182" y="-168.3" font-family="Times,serif" font-size="14.00">user_id :integer</text>
<text text-anchor="start" x="239.182" y="-154.3" font-family="Times,serif" font-size="14.00">feed_id :integer</text>
<text text-anchor="start" x="239.182" y="-140.3" font-family="Times,serif" font-size="14.00">role :string</text>
<text text-anchor="start" x="239.182" y="-126.3" font-family="Times,serif" font-size="14.00">created_at :datetime</text>
<text text-anchor="start" x="239.182" y="-112.3" font-family="Times,serif" font-size="14.00">updated_at :datetime</text>
</g>
<!-- Feed&#45;&gt;Permission -->
<g id="edge2" class="edge"><title>Feed&#45;&gt;Permission</title>
<path fill="none" stroke="#127369" d="M325.436,-602.323C324.434,-592.776 323.493,-583.184 322.688,-574 312.06,-452.758 304.501,-310.974 300.636,-229.759"/>
<ellipse fill="none" stroke="#127369" cx="325.865" cy="-606.345" rx="4" ry="4"/>
<polygon fill="#127369" stroke="#127369" points="300.632,-229.666 304.656,-219.465 300.396,-224.671 300.161,-219.677 300.161,-219.677 300.161,-219.677 300.396,-224.671 295.666,-219.889 300.632,-229.666 300.632,-229.666"/>
</g>
<!-- Torrent -->
<g id="node6" class="node"><title>Torrent</title>
<path fill="none" stroke="black" d="M343.9,-361.5C343.9,-361.5 461.476,-361.5 461.476,-361.5 467.476,-361.5 473.476,-367.5 473.476,-373.5 473.476,-373.5 473.476,-561.5 473.476,-561.5 473.476,-567.5 467.476,-573.5 461.476,-573.5 461.476,-573.5 343.9,-573.5 343.9,-573.5 337.9,-573.5 331.9,-567.5 331.9,-561.5 331.9,-561.5 331.9,-373.5 331.9,-373.5 331.9,-367.5 337.9,-361.5 343.9,-361.5"/>
<text text-anchor="middle" x="402.688" y="-558.3" font-family="Times,serif" font-size="14.00">Torrent</text>
<polyline fill="none" stroke="black" points="331.9,-551.5 473.476,-551.5 "/>
<text text-anchor="start" x="339.9" y="-536.3" font-family="Times,serif" font-size="14.00">id :integer</text>
<text text-anchor="start" x="339.9" y="-522.3" font-family="Times,serif" font-size="14.00">name :string</text>
<text text-anchor="start" x="339.9" y="-508.3" font-family="Times,serif" font-size="14.00">slug :string</text>
<text text-anchor="start" x="339.9" y="-494.3" font-family="Times,serif" font-size="14.00">created_at :datetime</text>
<text text-anchor="start" x="339.9" y="-480.3" font-family="Times,serif" font-size="14.00">updated_at :datetime</text>
<text text-anchor="start" x="339.9" y="-466.3" font-family="Times,serif" font-size="14.00">user_id :integer</text>
<text text-anchor="start" x="339.9" y="-452.3" font-family="Times,serif" font-size="14.00">size :integer</text>
<text text-anchor="start" x="339.9" y="-438.3" font-family="Times,serif" font-size="14.00">info_hash :string</text>
<text text-anchor="start" x="339.9" y="-424.3" font-family="Times,serif" font-size="14.00">data :binary</text>
<text text-anchor="start" x="339.9" y="-410.3" font-family="Times,serif" font-size="14.00">feed_id :integer</text>
<text text-anchor="start" x="339.9" y="-396.3" font-family="Times,serif" font-size="14.00">pieces :integer</text>
<text text-anchor="start" x="339.9" y="-382.3" font-family="Times,serif" font-size="14.00">piece_length :integer</text>
<text text-anchor="start" x="339.9" y="-368.3" font-family="Times,serif" font-size="14.00">file_created_by :string</text>
</g>
<!-- Feed&#45;&gt;Torrent -->
<g id="edge1" class="edge"><title>Feed&#45;&gt;Torrent</title>
<path fill="none" stroke="#6ff8d7" d="M361.705,-602.458C363.593,-596.288 365.514,-590.01 367.442,-583.706"/>
<ellipse fill="none" stroke="#6ff8d7" cx="360.48" cy="-606.464" rx="4.00001" ry="4.00001"/>
<polygon fill="#6ff8d7" stroke="#6ff8d7" points="367.55,-583.353 374.779,-575.107 369.013,-578.572 370.476,-573.79 370.476,-573.79 370.476,-573.79 369.013,-578.572 366.172,-572.474 367.55,-583.353 367.55,-583.353"/>
</g>
<!-- Peer -->
<g id="node4" class="node"><title>Peer</title>
<path fill="none" stroke="black" d="M393.793,-0.5C393.793,-0.5 615.583,-0.5 615.583,-0.5 621.583,-0.5 627.583,-6.5 627.583,-12.5 627.583,-12.5 627.583,-312.5 627.583,-312.5 627.583,-318.5 621.583,-324.5 615.583,-324.5 615.583,-324.5 393.793,-324.5 393.793,-324.5 387.793,-324.5 381.793,-318.5 381.793,-312.5 381.793,-312.5 381.793,-12.5 381.793,-12.5 381.793,-6.5 387.793,-0.5 393.793,-0.5"/>
<text text-anchor="middle" x="504.688" y="-309.3" font-family="Times,serif" font-size="14.00">Peer</text>
<polyline fill="none" stroke="black" points="381.793,-302.5 627.583,-302.5 "/>
<text text-anchor="start" x="389.793" y="-287.3" font-family="Times,serif" font-size="14.00">id :integer</text>
<text text-anchor="start" x="389.793" y="-273.3" font-family="Times,serif" font-size="14.00">peer_id :string</text>
<text text-anchor="start" x="389.793" y="-259.3" font-family="Times,serif" font-size="14.00">info_hash :string</text>
<text text-anchor="start" x="389.793" y="-245.3" font-family="Times,serif" font-size="14.00">ip :string</text>
<text text-anchor="start" x="389.793" y="-231.3" font-family="Times,serif" font-size="14.00">port :integer</text>
<text text-anchor="start" x="389.793" y="-217.3" font-family="Times,serif" font-size="14.00">uploaded :integer</text>
<text text-anchor="start" x="389.793" y="-203.3" font-family="Times,serif" font-size="14.00">downloaded :integer</text>
<text text-anchor="start" x="389.793" y="-189.3" font-family="Times,serif" font-size="14.00">left :integer</text>
<text text-anchor="start" x="389.793" y="-175.3" font-family="Times,serif" font-size="14.00">state :string</text>
<text text-anchor="start" x="389.793" y="-161.3" font-family="Times,serif" font-size="14.00">created_at :datetime</text>
<text text-anchor="start" x="389.793" y="-147.3" font-family="Times,serif" font-size="14.00">updated_at :datetime</text>
<text text-anchor="start" x="389.793" y="-133.3" font-family="Times,serif" font-size="14.00">latitude :float</text>
<text text-anchor="start" x="389.793" y="-119.3" font-family="Times,serif" font-size="14.00">longitude :float</text>
<text text-anchor="start" x="389.793" y="-105.3" font-family="Times,serif" font-size="14.00">country_name :string</text>
<text text-anchor="start" x="389.793" y="-91.3" font-family="Times,serif" font-size="14.00">city_name :string</text>
<text text-anchor="start" x="389.793" y="-77.3" font-family="Times,serif" font-size="14.00">user_id :integer</text>
<text text-anchor="start" x="389.793" y="-63.3" font-family="Times,serif" font-size="14.00">volunteer_enabled :boolean</text>
<text text-anchor="start" x="389.793" y="-49.3" font-family="Times,serif" font-size="14.00">volunteer_disk_maximum_bytes :integer</text>
<text text-anchor="start" x="389.793" y="-35.3" font-family="Times,serif" font-size="14.00">volunteer_disk_used_bytes :integer</text>
<text text-anchor="start" x="389.793" y="-21.3" font-family="Times,serif" font-size="14.00">volunteer_affinity_offset :integer</text>
<text text-anchor="start" x="389.793" y="-7.3" font-family="Times,serif" font-size="14.00">volunteer_affinity_length :integer</text>
</g>
<!-- Torrent&#45;&gt;Peer -->
<g id="edge3" class="edge"><title>Torrent&#45;&gt;Peer</title>
<path fill="none" stroke="#b2807c" d="M440.643,-353.75C442.808,-347.32 445.006,-340.789 447.221,-334.21"/>
<ellipse fill="none" stroke="#b2807c" cx="439.352" cy="-357.585" rx="4.00001" ry="4.00001"/>
<polygon fill="#b2807c" stroke="#b2807c" points="447.286,-334.018 454.741,-325.976 448.881,-329.279 450.476,-324.541 450.476,-324.541 450.476,-324.541 448.881,-329.279 446.211,-323.105 447.286,-334.018 447.286,-334.018"/>
</g>
<!-- Torrent&#45;&gt;Permission -->
<g id="edge4" class="edge"><title>Torrent&#45;&gt;Permission</title>
<path fill="none" stroke="#f0c7f7" d="M362.937,-351.792C348.597,-310.409 332.905,-265.127 320.504,-229.342"/>
<polygon fill="#f0c7f7" stroke="#f0c7f7" points="362.984,-351.927 362.007,-362.849 364.621,-356.651 366.259,-361.376 366.259,-361.376 366.259,-361.376 364.621,-356.651 370.51,-359.902 362.984,-351.927 362.984,-351.927"/>
<polygon fill="#f0c7f7" stroke="#f0c7f7" points="320.372,-228.961 321.35,-218.039 318.735,-224.237 317.098,-219.512 317.098,-219.512 317.098,-219.512 318.735,-224.237 312.846,-220.986 320.372,-228.961 320.372,-228.961"/>
</g>
<!-- User -->
<g id="node7" class="node"><title>User</title>
<path fill="none" stroke="black" d="M311.41,-803.5C311.41,-803.5 491.966,-803.5 491.966,-803.5 497.966,-803.5 503.966,-809.5 503.966,-815.5 503.966,-815.5 503.966,-1157.5 503.966,-1157.5 503.966,-1163.5 497.966,-1169.5 491.966,-1169.5 491.966,-1169.5 311.41,-1169.5 311.41,-1169.5 305.41,-1169.5 299.41,-1163.5 299.41,-1157.5 299.41,-1157.5 299.41,-815.5 299.41,-815.5 299.41,-809.5 305.41,-803.5 311.41,-803.5"/>
<text text-anchor="middle" x="401.688" y="-1154.3" font-family="Times,serif" font-size="14.00">User</text>
<polyline fill="none" stroke="black" points="299.41,-1147.5 503.966,-1147.5 "/>
<text text-anchor="start" x="307.41" y="-1132.3" font-family="Times,serif" font-size="14.00">id :integer</text>
<text text-anchor="start" x="307.41" y="-1118.3" font-family="Times,serif" font-size="14.00">email :string</text>
<text text-anchor="start" x="307.41" y="-1104.3" font-family="Times,serif" font-size="14.00">encrypted_password :string</text>
<text text-anchor="start" x="307.41" y="-1090.3" font-family="Times,serif" font-size="14.00">reset_password_token :string</text>
<text text-anchor="start" x="307.41" y="-1076.3" font-family="Times,serif" font-size="14.00">reset_password_sent_at :datetime</text>
<text text-anchor="start" x="307.41" y="-1062.3" font-family="Times,serif" font-size="14.00">remember_created_at :datetime</text>
<text text-anchor="start" x="307.41" y="-1048.3" font-family="Times,serif" font-size="14.00">sign_in_count :integer</text>
<text text-anchor="start" x="307.41" y="-1034.3" font-family="Times,serif" font-size="14.00">current_sign_in_at :datetime</text>
<text text-anchor="start" x="307.41" y="-1020.3" font-family="Times,serif" font-size="14.00">last_sign_in_at :datetime</text>
<text text-anchor="start" x="307.41" y="-1006.3" font-family="Times,serif" font-size="14.00">current_sign_in_ip :string</text>
<text text-anchor="start" x="307.41" y="-992.3" font-family="Times,serif" font-size="14.00">last_sign_in_ip :string</text>
<text text-anchor="start" x="307.41" y="-978.3" font-family="Times,serif" font-size="14.00">confirmation_token :string</text>
<text text-anchor="start" x="307.41" y="-964.3" font-family="Times,serif" font-size="14.00">confirmed_at :datetime</text>
<text text-anchor="start" x="307.41" y="-950.3" font-family="Times,serif" font-size="14.00">confirmation_sent_at :datetime</text>
<text text-anchor="start" x="307.41" y="-936.3" font-family="Times,serif" font-size="14.00">unconfirmed_email :string</text>
<text text-anchor="start" x="307.41" y="-922.3" font-family="Times,serif" font-size="14.00">failed_attempts :integer</text>
<text text-anchor="start" x="307.41" y="-908.3" font-family="Times,serif" font-size="14.00">unlock_token :string</text>
<text text-anchor="start" x="307.41" y="-894.3" font-family="Times,serif" font-size="14.00">locked_at :datetime</text>
<text text-anchor="start" x="307.41" y="-880.3" font-family="Times,serif" font-size="14.00">created_at :datetime</text>
<text text-anchor="start" x="307.41" y="-866.3" font-family="Times,serif" font-size="14.00">updated_at :datetime</text>
<text text-anchor="start" x="307.41" y="-852.3" font-family="Times,serif" font-size="14.00">admin :boolean</text>
<text text-anchor="start" x="307.41" y="-838.3" font-family="Times,serif" font-size="14.00">name :string</text>
<text text-anchor="start" x="307.41" y="-824.3" font-family="Times,serif" font-size="14.00">authentication_token :string</text>
<text text-anchor="start" x="307.41" y="-810.3" font-family="Times,serif" font-size="14.00">approved :boolean</text>
</g>
<!-- User&#45;&gt;Feed -->
<g id="edge6" class="edge"><title>User&#45;&gt;Feed</title>
<path fill="none" stroke="#b04d20" d="M359.248,-795.165C357.846,-788.875 356.468,-782.695 355.126,-776.679"/>
<ellipse fill="none" stroke="#b04d20" cx="360.146" cy="-799.191" rx="4.00001" ry="4.00001"/>
<polygon fill="#b04d20" stroke="#b04d20" points="355.081,-776.475 357.297,-765.736 353.993,-771.595 352.905,-766.715 352.905,-766.715 352.905,-766.715 353.993,-771.595 348.512,-767.694 355.081,-776.475 355.081,-776.475"/>
</g>
<!-- User&#45;&gt;Peer -->
<g id="edge8" class="edge"><title>User&#45;&gt;Peer</title>
<path fill="none" stroke="#91db08" d="M457.807,-795.338C459.945,-785.792 461.924,-776.307 463.688,-767 491.006,-622.861 500.719,-456.322 503.905,-334.752"/>
<ellipse fill="none" stroke="#91db08" cx="456.865" cy="-799.47" rx="4.00001" ry="4.00001"/>
<polygon fill="#91db08" stroke="#91db08" points="503.909,-334.605 508.657,-324.72 504.034,-329.606 504.159,-324.608 504.159,-324.608 504.159,-324.608 504.034,-329.606 499.66,-324.495 503.909,-334.605 503.909,-334.605"/>
</g>
<!-- User&#45;&gt;Permission -->
<g id="edge7" class="edge"><title>User&#45;&gt;Permission</title>
<path fill="none" stroke="#a2ef5d" d="M293.324,-805.537C292.45,-804.683 291.571,-803.837 290.688,-803 266.155,-779.743 241.035,-796.014 223.688,-767 120.842,-594.988 211.246,-346.178 264.825,-229.092"/>
<ellipse fill="none" stroke="#a2ef5d" cx="296.212" cy="-808.447" rx="4.00002" ry="4.00002"/>
<polygon fill="#a2ef5d" stroke="#a2ef5d" points="264.892,-228.949 273.177,-221.764 266.992,-224.411 269.093,-219.874 269.093,-219.874 269.093,-219.874 266.992,-224.411 265.009,-217.984 264.892,-228.949 264.892,-228.949"/>
</g>
<!-- User&#45;&gt;Torrent -->
<g id="edge5" class="edge"><title>User&#45;&gt;Torrent</title>
<path fill="none" stroke="#153882" d="M445.386,-795.288C453.575,-735.84 457.013,-670.094 447.688,-610 446.323,-601.208 444.509,-592.214 442.39,-583.233"/>
<ellipse fill="none" stroke="#153882" cx="444.818" cy="-799.296" rx="4.00001" ry="4.00001"/>
<polygon fill="#153882" stroke="#153882" points="442.385,-583.21 444.347,-572.421 441.182,-578.356 439.979,-573.503 439.979,-573.503 439.979,-573.503 441.182,-578.356 435.611,-574.585 442.385,-583.21 442.385,-583.21"/>
</g>
</g>
</svg>
