<?xml version="1.0" encoding="UTF-8" standalone="no"?>
<!DOCTYPE svg PUBLIC "-//W3C//DTD SVG 1.1//EN"
 "http://www.w3.org/Graphics/SVG/1.1/DTD/svg11.dtd">
<!-- Generated by graphviz version 2.30.1 (20130419.0519)
 -->
<!-- Title: models_diagram Pages: 1 -->
<svg width="954pt" height="1132pt"
 viewBox="0.00 0.00 953.95 1132.00" xmlns="http://www.w3.org/2000/svg" xmlns:xlink="http://www.w3.org/1999/xlink">
<g id="graph0" class="graph" transform="scale(1 1) rotate(0) translate(4 1128)">
<title>models_diagram</title>
<polygon fill="white" stroke="white" points="-4,5 -4,-1128 950.948,-1128 950.948,5 -4,5"/>
<!-- _diagram_info -->
<g id="node1" class="node"><title>_diagram_info</title>
<text text-anchor="start" x="392.312" y="-1066" font-family="Times,serif" font-size="13.00">Models diagram</text>
<text text-anchor="start" x="392.312" y="-1050.4" font-family="Times,serif" font-size="13.00">Date: May 02 2013 &#45; 15:02</text>
<text text-anchor="start" x="392.312" y="-1034.8" font-family="Times,serif" font-size="13.00">Migration version: 20130502210253</text>
<text text-anchor="start" x="392.312" y="-1019.2" font-family="Times,serif" font-size="13.00">Generated by RailRoady 1.1.0</text>
<text text-anchor="start" x="392.312" y="-1003.6" font-family="Times,serif" font-size="13.00">http://railroady.prestonlee.com</text>
</g>
<!-- Ability -->
<g id="node2" class="node"><title>Ability</title>
<polygon fill="none" stroke="black" points="610.166,-1015.2 610.166,-1064.8 665.834,-1064.8 665.834,-1015.2 610.166,-1015.2"/>
<text text-anchor="middle" x="638" y="-1046.8" font-family="Times,serif" font-size="14.00">Ability</text>
<polyline fill="none" stroke="black" points="610.166,-1040 665.834,-1040 "/>
<text text-anchor="middle" x="638" y="-1022" font-family="Times,serif" font-size="14.00"> </text>
</g>
<!-- Feed -->
<g id="node3" class="node"><title>Feed</title>
<path fill="none" stroke="black" d="M695.95,-956.4C695.95,-956.4 878.05,-956.4 878.05,-956.4 884.05,-956.4 890.05,-962.4 890.05,-968.4 890.05,-968.4 890.05,-1111.6 890.05,-1111.6 890.05,-1117.6 884.05,-1123.6 878.05,-1123.6 878.05,-1123.6 695.95,-1123.6 695.95,-1123.6 689.95,-1123.6 683.95,-1117.6 683.95,-1111.6 683.95,-1111.6 683.95,-968.4 683.95,-968.4 683.95,-962.4 689.95,-956.4 695.95,-956.4"/>
<text text-anchor="middle" x="787" y="-1105.6" font-family="Times,serif" font-size="14.00">Feed</text>
<polyline fill="none" stroke="black" points="683.95,-1098.8 890.05,-1098.8 "/>
<text text-anchor="start" x="691.95" y="-1080.8" font-family="Times,serif" font-size="14.00">id :integer</text>
<text text-anchor="start" x="691.95" y="-1064" font-family="Times,serif" font-size="14.00">name :string</text>
<text text-anchor="start" x="691.95" y="-1047.2" font-family="Times,serif" font-size="14.00">slug :string</text>
<text text-anchor="start" x="691.95" y="-1030.4" font-family="Times,serif" font-size="14.00">description :text</text>
<text text-anchor="start" x="691.95" y="-1013.6" font-family="Times,serif" font-size="14.00">user_id :integer</text>
<text text-anchor="start" x="691.95" y="-996.8" font-family="Times,serif" font-size="14.00">created_at :datetime</text>
<text text-anchor="start" x="691.95" y="-980" font-family="Times,serif" font-size="14.00">updated_at :datetime</text>
<text text-anchor="start" x="691.95" y="-963.2" font-family="Times,serif" font-size="14.00">enable_public_archiving :boolean</text>
</g>
<!-- Torrent -->
<g id="node6" class="node"><title>Torrent</title>
<path fill="none" stroke="black" d="M383.891,-649C383.891,-649 562.109,-649 562.109,-649 568.109,-649 574.109,-655 574.109,-661 574.109,-661 574.109,-905 574.109,-905 574.109,-911 568.109,-917 562.109,-917 562.109,-917 383.891,-917 383.891,-917 377.891,-917 371.891,-911 371.891,-905 371.891,-905 371.891,-661 371.891,-661 371.891,-655 377.891,-649 383.891,-649"/>
<text text-anchor="middle" x="473" y="-899" font-family="Times,serif" font-size="14.00">Torrent</text>
<polyline fill="none" stroke="black" points="371.891,-892.2 574.109,-892.2 "/>
<text text-anchor="start" x="379.891" y="-874.2" font-family="Times,serif" font-size="14.00">id :integer</text>
<text text-anchor="start" x="379.891" y="-857.4" font-family="Times,serif" font-size="14.00">name :string</text>
<text text-anchor="start" x="379.891" y="-840.6" font-family="Times,serif" font-size="14.00">slug :string</text>
<text text-anchor="start" x="379.891" y="-823.8" font-family="Times,serif" font-size="14.00">created_at :datetime</text>
<text text-anchor="start" x="379.891" y="-807" font-family="Times,serif" font-size="14.00">updated_at :datetime</text>
<text text-anchor="start" x="379.891" y="-790.2" font-family="Times,serif" font-size="14.00">user_id :integer</text>
<text text-anchor="start" x="379.891" y="-773.4" font-family="Times,serif" font-size="14.00">torrent_file_file_name :string</text>
<text text-anchor="start" x="379.891" y="-756.6" font-family="Times,serif" font-size="14.00">torrent_file_content_type :string</text>
<text text-anchor="start" x="379.891" y="-739.8" font-family="Times,serif" font-size="14.00">torrent_file_file_size :integer</text>
<text text-anchor="start" x="379.891" y="-723" font-family="Times,serif" font-size="14.00">torrent_file_updated_at :datetime</text>
<text text-anchor="start" x="379.891" y="-706.2" font-family="Times,serif" font-size="14.00">size :integer</text>
<text text-anchor="start" x="379.891" y="-689.4" font-family="Times,serif" font-size="14.00">info_hash :string</text>
<text text-anchor="start" x="379.891" y="-672.6" font-family="Times,serif" font-size="14.00">feed_id :integer</text>
<text text-anchor="start" x="379.891" y="-655.8" font-family="Times,serif" font-size="14.00">private_info_hash :string</text>
</g>
<!-- Feed&#45;&gt;Torrent -->
<g id="edge1" class="edge"><title>Feed&#45;&gt;Torrent</title>
<path fill="none" stroke="#4b223e" d="M678.762,-951.1C647.501,-925.712 613.375,-897.999 582.064,-872.571"/>
<ellipse fill="none" stroke="#4b223e" cx="681.948" cy="-953.687" rx="4.00002" ry="4.00002"/>
<polygon fill="#4b223e" stroke="#4b223e" points="581.93,-872.462 577.004,-862.665 578.048,-869.31 574.167,-866.158 574.167,-866.158 574.167,-866.158 578.048,-869.31 571.33,-869.651 581.93,-872.462 581.93,-872.462"/>
</g>
<!-- Permission -->
<g id="node5" class="node"><title>Permission</title>
<path fill="none" stroke="black" d="M732.495,-1.2C732.495,-1.2 841.505,-1.2 841.505,-1.2 847.505,-1.2 853.505,-7.2 853.505,-13.2 853.505,-13.2 853.505,-122.8 853.505,-122.8 853.505,-128.8 847.505,-134.8 841.505,-134.8 841.505,-134.8 732.495,-134.8 732.495,-134.8 726.495,-134.8 720.495,-128.8 720.495,-122.8 720.495,-122.8 720.495,-13.2 720.495,-13.2 720.495,-7.2 726.495,-1.2 732.495,-1.2"/>
<text text-anchor="middle" x="787" y="-116.8" font-family="Times,serif" font-size="14.00">Permission</text>
<polyline fill="none" stroke="black" points="720.495,-110 853.505,-110 "/>
<text text-anchor="start" x="728.495" y="-92" font-family="Times,serif" font-size="14.00">id :integer</text>
<text text-anchor="start" x="728.495" y="-75.2" font-family="Times,serif" font-size="14.00">user_id :integer</text>
<text text-anchor="start" x="728.495" y="-58.4" font-family="Times,serif" font-size="14.00">feed_id :integer</text>
<text text-anchor="start" x="728.495" y="-41.6" font-family="Times,serif" font-size="14.00">role :string</text>
<text text-anchor="start" x="728.495" y="-24.8" font-family="Times,serif" font-size="14.00">created_at :datetime</text>
<text text-anchor="start" x="728.495" y="-8" font-family="Times,serif" font-size="14.00">updated_at :datetime</text>
</g>
<!-- Feed&#45;&gt;Permission -->
<g id="edge2" class="edge"><title>Feed&#45;&gt;Permission</title>
<path fill="none" stroke="#3fbb95" d="M828.031,-948.808C895.536,-786.659 1011.76,-438.196 898,-174 889.751,-154.842 876.097,-137.546 861.137,-122.777"/>
<ellipse fill="none" stroke="#3fbb95" cx="826.401" cy="-952.699" rx="4.00002" ry="4.00002"/>
<polygon fill="#3fbb95" stroke="#3fbb95" points="860.963,-122.612 856.801,-112.467 857.334,-119.172 853.705,-115.732 853.705,-115.732 853.705,-115.732 857.334,-119.172 850.609,-118.998 860.963,-122.612 860.963,-122.612"/>
</g>
<!-- Peer -->
<g id="node4" class="node"><title>Peer</title>
<path fill="none" stroke="black" d="M242.495,-258.4C242.495,-258.4 351.505,-258.4 351.505,-258.4 357.505,-258.4 363.505,-264.4 363.505,-270.4 363.505,-270.4 363.505,-497.6 363.505,-497.6 363.505,-503.6 357.505,-509.6 351.505,-509.6 351.505,-509.6 242.495,-509.6 242.495,-509.6 236.495,-509.6 230.495,-503.6 230.495,-497.6 230.495,-497.6 230.495,-270.4 230.495,-270.4 230.495,-264.4 236.495,-258.4 242.495,-258.4"/>
<text text-anchor="middle" x="297" y="-491.6" font-family="Times,serif" font-size="14.00">Peer</text>
<polyline fill="none" stroke="black" points="230.495,-484.8 363.505,-484.8 "/>
<text text-anchor="start" x="238.495" y="-466.8" font-family="Times,serif" font-size="14.00">id :integer</text>
<text text-anchor="start" x="238.495" y="-450" font-family="Times,serif" font-size="14.00">peer_id :string</text>
<text text-anchor="start" x="238.495" y="-433.2" font-family="Times,serif" font-size="14.00">info_hash :string</text>
<text text-anchor="start" x="238.495" y="-416.4" font-family="Times,serif" font-size="14.00">ip :string</text>
<text text-anchor="start" x="238.495" y="-399.6" font-family="Times,serif" font-size="14.00">port :integer</text>
<text text-anchor="start" x="238.495" y="-382.8" font-family="Times,serif" font-size="14.00">uploaded :integer</text>
<text text-anchor="start" x="238.495" y="-366" font-family="Times,serif" font-size="14.00">downloaded :integer</text>
<text text-anchor="start" x="238.495" y="-349.2" font-family="Times,serif" font-size="14.00">left :integer</text>
<text text-anchor="start" x="238.495" y="-332.4" font-family="Times,serif" font-size="14.00">state :string</text>
<text text-anchor="start" x="238.495" y="-315.6" font-family="Times,serif" font-size="14.00">created_at :datetime</text>
<text text-anchor="start" x="238.495" y="-298.8" font-family="Times,serif" font-size="14.00">updated_at :datetime</text>
<text text-anchor="start" x="238.495" y="-282" font-family="Times,serif" font-size="14.00">latitude :float</text>
<text text-anchor="start" x="238.495" y="-265.2" font-family="Times,serif" font-size="14.00">longitude :float</text>
</g>
<!-- ActsAsTaggableOn::Tagging -->
<g id="node8" class="node"><title>ActsAsTaggableOn::Tagging</title>
<ellipse fill="none" stroke="black" cx="543" cy="-384" rx="123.097" ry="18"/>
<text text-anchor="middle" x="543" y="-378.4" font-family="Times,serif" font-size="14.00">ActsAsTaggableOn::Tagging</text>
</g>
<!-- Torrent&#45;&gt;ActsAsTaggableOn::Tagging -->
<g id="edge3" class="edge"><title>Torrent&#45;&gt;ActsAsTaggableOn::Tagging</title>
<path fill="none" stroke="#2ccec3" d="M470.318,-640.425C471.103,-630.781 472.162,-621.233 473.559,-612 484.83,-537.462 515.447,-453.549 532.009,-411.713"/>
<ellipse fill="none" stroke="#2ccec3" cx="470.015" cy="-644.554" rx="4" ry="4"/>
<polygon fill="#2ccec3" stroke="#2ccec3" points="532.081,-411.534 539.978,-403.926 533.941,-406.893 535.801,-402.252 535.801,-402.252 535.801,-402.252 533.941,-406.893 531.623,-400.578 532.081,-411.534 532.081,-411.534"/>
<text text-anchor="middle" x="497.721" y="-615.4" font-family="Times,serif" font-size="14.00">taggings</text>
</g>
<!-- ActsAsTaggableOn::Tag -->
<g id="node9" class="node"><title>ActsAsTaggableOn::Tag</title>
<ellipse fill="none" stroke="black" cx="106" cy="-384" rx="106.344" ry="18"/>
<text text-anchor="middle" x="106" y="-378.4" font-family="Times,serif" font-size="14.00">ActsAsTaggableOn::Tag</text>
</g>
<!-- Torrent&#45;&gt;ActsAsTaggableOn::Tag -->
<g id="edge4" class="edge"><title>Torrent&#45;&gt;ActsAsTaggableOn::Tag</title>
<path fill="none" stroke="#9fd1f3" d="M362.135,-759.233C288.878,-738.255 197.021,-699.46 144.572,-630 95.2417,-564.669 97.9086,-461.247 102.548,-412.344"/>
<polygon fill="#9fd1f3" stroke="#9fd1f3" points="362.252,-759.266 370.676,-766.287 367.068,-760.609 371.884,-761.953 371.884,-761.953 371.884,-761.953 367.068,-760.609 373.093,-757.618 362.252,-759.266 362.252,-759.266"/>
<polygon fill="#9fd1f3" stroke="#9fd1f3" points="102.566,-412.17 108.088,-402.695 103.09,-407.197 103.613,-402.224 103.613,-402.224 103.613,-402.224 103.09,-407.197 99.1375,-401.754 102.566,-412.17 102.566,-412.17"/>
<text text-anchor="middle" x="172.214" y="-615.4" font-family="Times,serif" font-size="14.00">base_tags</text>
</g>
<!-- Torrent&#45;&gt;ActsAsTaggableOn::Tagging -->
<g id="edge5" class="edge"><title>Torrent&#45;&gt;ActsAsTaggableOn::Tagging</title>
<path fill="none" stroke="#2ce947" d="M518.676,-640.916C519.5,-637.251 520.277,-633.608 521,-630 536.616,-552.051 541.154,-457.92 542.468,-412.356"/>
<ellipse fill="none" stroke="#2ce947" cx="517.708" cy="-645.074" rx="4.00001" ry="4.00001"/>
<polygon fill="#2ce947" stroke="#2ce947" points="542.474,-412.108 547.23,-402.228 542.603,-407.11 542.732,-402.112 542.732,-402.112 542.732,-402.112 542.603,-407.11 538.233,-401.996 542.474,-412.108 542.474,-412.108"/>
<text text-anchor="middle" x="558.772" y="-615.4" font-family="Times,serif" font-size="14.00">tag_taggings</text>
</g>
<!-- Torrent&#45;&gt;ActsAsTaggableOn::Tag -->
<g id="edge6" class="edge"><title>Torrent&#45;&gt;ActsAsTaggableOn::Tag</title>
<path fill="none" stroke="#e98eab" d="M363.125,-715.27C315.545,-682.748 261.578,-640.599 221,-594 171,-536.58 133.506,-453.846 116.342,-411.768"/>
<polygon fill="#e98eab" stroke="#e98eab" points="363.341,-715.416 369.099,-724.749 367.482,-718.219 371.622,-721.023 371.622,-721.023 371.622,-721.023 367.482,-718.219 374.145,-717.296 363.341,-715.416 363.341,-715.416"/>
<polygon fill="#e98eab" stroke="#e98eab" points="116.238,-411.507 116.692,-400.551 114.376,-406.867 112.515,-402.226 112.515,-402.226 112.515,-402.226 114.376,-406.867 108.339,-403.901 116.238,-411.507 116.238,-411.507"/>
<text text-anchor="middle" x="262.276" y="-615.4" font-family="Times,serif" font-size="14.00">tags</text>
</g>
<!-- Torrent&#45;&gt;Peer -->
<g id="edge7" class="edge"><title>Torrent&#45;&gt;Peer</title>
<path fill="none" stroke="#6d5567" d="M383.531,-641.381C381.621,-637.574 379.773,-633.776 378,-630 361.615,-595.101 347.092,-555.979 335.032,-519.416"/>
<ellipse fill="none" stroke="#6d5567" cx="385.456" cy="-645.147" rx="4.00002" ry="4.00002"/>
<polygon fill="#6d5567" stroke="#6d5567" points="334.958,-519.188 336.136,-508.286 333.408,-514.434 331.858,-509.68 331.858,-509.68 331.858,-509.68 333.408,-514.434 327.58,-511.075 334.958,-519.188 334.958,-519.188"/>
</g>
<!-- Torrent&#45;&gt;Permission -->
<g id="edge8" class="edge"><title>Torrent&#45;&gt;Permission</title>
<path fill="none" stroke="#8134c8" d="M420.657,-638.928C416.723,-623.917 413.37,-608.753 411,-594 396.197,-501.848 354.572,-248.344 411,-174 447.05,-126.504 611.175,-94.6943 710.284,-79.4459"/>
<polygon fill="#8134c8" stroke="#8134c8" points="420.707,-639.111 418.978,-649.94 422.014,-643.937 423.322,-648.763 423.322,-648.763 423.322,-648.763 422.014,-643.937 427.665,-647.587 420.707,-639.111 420.707,-639.111"/>
<polygon fill="#8134c8" stroke="#8134c8" points="710.371,-79.4329 720.933,-82.3827 715.314,-78.6832 720.258,-77.9335 720.258,-77.9335 720.258,-77.9335 715.314,-78.6832 719.583,-73.4844 710.371,-79.4329 710.371,-79.4329"/>
</g>
<!-- User -->
<g id="node7" class="node"><title>User</title>
<path fill="none" stroke="black" d="M696.722,-174.4C696.722,-174.4 877.278,-174.4 877.278,-174.4 883.278,-174.4 889.278,-180.4 889.278,-186.4 889.278,-186.4 889.278,-581.6 889.278,-581.6 889.278,-587.6 883.278,-593.6 877.278,-593.6 877.278,-593.6 696.722,-593.6 696.722,-593.6 690.722,-593.6 684.722,-587.6 684.722,-581.6 684.722,-581.6 684.722,-186.4 684.722,-186.4 684.722,-180.4 690.722,-174.4 696.722,-174.4"/>
<text text-anchor="middle" x="787" y="-575.6" font-family="Times,serif" font-size="14.00">User</text>
<polyline fill="none" stroke="black" points="684.722,-568.8 889.278,-568.8 "/>
<text text-anchor="start" x="692.722" y="-550.8" font-family="Times,serif" font-size="14.00">id :integer</text>
<text text-anchor="start" x="692.722" y="-534" font-family="Times,serif" font-size="14.00">email :string</text>
<text text-anchor="start" x="692.722" y="-517.2" font-family="Times,serif" font-size="14.00">name :string</text>
<text text-anchor="start" x="692.722" y="-500.4" font-family="Times,serif" font-size="14.00">encrypted_password :string</text>
<text text-anchor="start" x="692.722" y="-483.6" font-family="Times,serif" font-size="14.00">reset_password_token :string</text>
<text text-anchor="start" x="692.722" y="-466.8" font-family="Times,serif" font-size="14.00">reset_password_sent_at :datetime</text>
<text text-anchor="start" x="692.722" y="-450" font-family="Times,serif" font-size="14.00">remember_created_at :datetime</text>
<text text-anchor="start" x="692.722" y="-433.2" font-family="Times,serif" font-size="14.00">sign_in_count :integer</text>
<text text-anchor="start" x="692.722" y="-416.4" font-family="Times,serif" font-size="14.00">current_sign_in_at :datetime</text>
<text text-anchor="start" x="692.722" y="-399.6" font-family="Times,serif" font-size="14.00">last_sign_in_at :datetime</text>
<text text-anchor="start" x="692.722" y="-382.8" font-family="Times,serif" font-size="14.00">current_sign_in_ip :string</text>
<text text-anchor="start" x="692.722" y="-366" font-family="Times,serif" font-size="14.00">last_sign_in_ip :string</text>
<text text-anchor="start" x="692.722" y="-349.2" font-family="Times,serif" font-size="14.00">confirmation_token :string</text>
<text text-anchor="start" x="692.722" y="-332.4" font-family="Times,serif" font-size="14.00">confirmed_at :datetime</text>
<text text-anchor="start" x="692.722" y="-315.6" font-family="Times,serif" font-size="14.00">confirmation_sent_at :datetime</text>
<text text-anchor="start" x="692.722" y="-298.8" font-family="Times,serif" font-size="14.00">failed_attempts :integer</text>
<text text-anchor="start" x="692.722" y="-282" font-family="Times,serif" font-size="14.00">unlock_token :string</text>
<text text-anchor="start" x="692.722" y="-265.2" font-family="Times,serif" font-size="14.00">locked_at :datetime</text>
<text text-anchor="start" x="692.722" y="-248.4" font-family="Times,serif" font-size="14.00">authentication_token :string</text>
<text text-anchor="start" x="692.722" y="-231.6" font-family="Times,serif" font-size="14.00">created_at :datetime</text>
<text text-anchor="start" x="692.722" y="-214.8" font-family="Times,serif" font-size="14.00">updated_at :datetime</text>
<text text-anchor="start" x="692.722" y="-198" font-family="Times,serif" font-size="14.00">approved :boolean</text>
<text text-anchor="start" x="692.722" y="-181.2" font-family="Times,serif" font-size="14.00">admin :boolean</text>
</g>
<!-- Torrent&#45;&gt;User -->
<g id="edge9" class="edge"><title>Torrent&#45;&gt;User</title>
<path fill="none" stroke="#b4944f" d="M581.711,-696.358C614.715,-666.532 649.065,-631.164 675,-594 676.316,-592.114 677.628,-590.211 678.935,-588.293"/>
<polygon fill="#b4944f" stroke="#b4944f" points="581.705,-696.363 571.25,-699.673 577.977,-699.695 574.25,-703.028 574.25,-703.028 574.25,-703.028 577.977,-699.695 577.249,-706.383 581.705,-696.363 581.705,-696.363"/>
<polygon fill="#b4944f" stroke="#b4944f" points="679.069,-588.093 688.375,-582.292 681.853,-583.94 684.637,-579.786 684.637,-579.786 684.637,-579.786 681.853,-583.94 680.899,-577.281 679.069,-588.093 679.069,-588.093"/>
<text text-anchor="middle" x="710.652" y="-615.4" font-family="Times,serif" font-size="14.00">managed_by_users</text>
</g>
<!-- User&#45;&gt;Torrent -->
<g id="edge10" class="edge"><title>User&#45;&gt;Torrent</title>
<path fill="none" stroke="#cc0319" d="M679.247,-589.437C677.844,-590.979 676.429,-592.5 675,-594 664.275,-605.258 657.284,-602.467 645,-612 623.583,-628.621 602.028,-647.673 581.766,-666.872"/>
<ellipse fill="none" stroke="#cc0319" cx="681.943" cy="-586.389" rx="4.00002" ry="4.00002"/>
<polygon fill="#cc0319" stroke="#cc0319" points="581.592,-667.038 571.253,-670.694 577.977,-670.493 574.362,-673.947 574.362,-673.947 574.362,-673.947 577.977,-670.493 577.472,-677.201 581.592,-667.038 581.592,-667.038"/>
</g>
<!-- User&#45;&gt;Feed -->
<g id="edge11" class="edge"><title>User&#45;&gt;Feed</title>
<path fill="none" stroke="#ec99a1" d="M787,-601.708C787,-718.624 787,-856.846 787,-946.12"/>
<ellipse fill="none" stroke="#ec99a1" cx="787" cy="-597.684" rx="4" ry="4"/>
<polygon fill="#ec99a1" stroke="#ec99a1" points="787,-946.17 782.5,-956.17 787,-951.17 787,-956.17 787,-956.17 787,-956.17 787,-951.17 791.5,-956.17 787,-946.17 787,-946.17"/>
</g>
<!-- User&#45;&gt;Permission -->
<g id="edge12" class="edge"><title>User&#45;&gt;Permission</title>
<path fill="none" stroke="#0fce3c" d="M787,-165.68C787,-158.617 787,-151.745 787,-145.137"/>
<ellipse fill="none" stroke="#0fce3c" cx="787" cy="-169.994" rx="4" ry="4"/>
<polygon fill="#0fce3c" stroke="#0fce3c" points="787,-144.979 791.5,-134.979 787,-139.979 787,-134.979 787,-134.979 787,-134.979 787,-139.979 782.5,-134.979 787,-144.979 787,-144.979"/>
</g>
</g>
</svg>
