<?xml version="1.0" encoding="UTF-8" standalone="no"?>
<!DOCTYPE svg PUBLIC "-//W3C//DTD SVG 1.1//EN"
 "http://www.w3.org/Graphics/SVG/1.1/DTD/svg11.dtd">
<!-- Generated by graphviz version 2.38.0 (20140413.2041)
 -->
<!-- Title: models_diagram Pages: 1 -->
<svg width="429pt" height="297pt"
 viewBox="0.00 0.00 428.69 297.00" xmlns="http://www.w3.org/2000/svg" xmlns:xlink="http://www.w3.org/1999/xlink">
<g id="graph0" class="graph" transform="scale(1 1) rotate(0) translate(4 293)">
<title>models_diagram</title>
<polygon fill="white" stroke="none" points="-4,4 -4,-293 424.688,-293 424.688,4 -4,4"/>
<!-- _diagram_info -->
<g id="node1" class="node"><title>_diagram_info</title>
<text text-anchor="start" x="8" y="-274.6" font-family="Times,serif" font-size="13.00">Models diagram</text>
<text text-anchor="start" x="8" y="-261.6" font-family="Times,serif" font-size="13.00">Date: Oct 14 2014 &#45; 11:36</text>
<text text-anchor="start" x="8" y="-248.6" font-family="Times,serif" font-size="13.00">Migration version: 20140301210457</text>
<text text-anchor="start" x="8" y="-235.6" font-family="Times,serif" font-size="13.00">Generated by RailRoady 1.2.0</text>
<text text-anchor="start" x="8" y="-222.6" font-family="Times,serif" font-size="13.00">http://railroady.prestonlee.com</text>
</g>
<!-- Ability -->
<g id="node2" class="node"><title>Ability</title>
<polygon fill="none" stroke="black" points="281.358,-270.5 226.018,-270.5 226.018,-234.5 281.358,-234.5 281.358,-270.5"/>
<text text-anchor="middle" x="253.688" y="-248.3" font-family="Times,serif" font-size="14.00">Ability</text>
</g>
<!-- Feed -->
<g id="node3" class="node"><title>Feed</title>
<ellipse fill="none" stroke="black" cx="326.688" cy="-162" rx="27.0958" ry="18"/>
<text text-anchor="middle" x="326.688" y="-157.8" font-family="Times,serif" font-size="14.00">Feed</text>
</g>
<!-- Permission -->
<g id="node5" class="node"><title>Permission</title>
<ellipse fill="none" stroke="black" cx="299.688" cy="-18" rx="49.3291" ry="18"/>
<text text-anchor="middle" x="299.688" y="-13.8" font-family="Times,serif" font-size="14.00">Permission</text>
</g>
<!-- Feed&#45;&gt;Permission -->
<g id="edge2" class="edge"><title>Feed&#45;&gt;Permission</title>
<path fill="none" stroke="#d31d6c" d="M321.921,-135.929C317.128,-110.725 309.764,-71.9942 304.84,-46.0947"/>
<ellipse fill="none" stroke="#d31d6c" cx="322.684" cy="-139.942" rx="4.00001" ry="4.00001"/>
<polygon fill="#d31d6c" stroke="#d31d6c" points="304.824,-46.0133 307.377,-35.3487 303.89,-41.1013 302.956,-36.1893 302.956,-36.1893 302.956,-36.1893 303.89,-41.1013 298.535,-37.0299 304.824,-46.0133 304.824,-46.0133"/>
</g>
<!-- Torrent -->
<g id="node6" class="node"><title>Torrent</title>
<ellipse fill="none" stroke="black" cx="379.688" cy="-90" rx="36.0136" ry="18"/>
<text text-anchor="middle" x="379.688" y="-85.8" font-family="Times,serif" font-size="14.00">Torrent</text>
</g>
<!-- Feed&#45;&gt;Torrent -->
<g id="edge1" class="edge"><title>Feed&#45;&gt;Torrent</title>
<path fill="none" stroke="#5574c5" d="M343.382,-138.951C349.148,-131.336 355.635,-122.768 361.514,-115.004"/>
<ellipse fill="none" stroke="#5574c5" cx="340.865" cy="-142.276" rx="4.00002" ry="4.00002"/>
<polygon fill="#5574c5" stroke="#5574c5" points="361.554,-114.95 371.178,-109.694 364.573,-110.963 367.591,-106.977 367.591,-106.977 367.591,-106.977 364.573,-110.963 364.003,-104.261 361.554,-114.95 361.554,-114.95"/>
</g>
<!-- Peer -->
<g id="node4" class="node"><title>Peer</title>
<ellipse fill="none" stroke="black" cx="393.688" cy="-18" rx="27" ry="18"/>
<text text-anchor="middle" x="393.688" y="-13.8" font-family="Times,serif" font-size="14.00">Peer</text>
</g>
<!-- Torrent&#45;&gt;Peer -->
<g id="edge3" class="edge"><title>Torrent&#45;&gt;Peer</title>
<path fill="none" stroke="#d4ade1" d="M384.69,-63.9868C385.838,-58.2493 387.064,-52.1211 388.229,-46.2929"/>
<ellipse fill="none" stroke="#d4ade1" cx="383.861" cy="-68.1326" rx="4.00001" ry="4.00001"/>
<polygon fill="#d4ade1" stroke="#d4ade1" points="388.271,-46.0811 394.645,-37.1579 389.252,-41.1782 390.233,-36.2753 390.233,-36.2753 390.233,-36.2753 389.252,-41.1782 385.82,-35.3927 388.271,-46.0811 388.271,-46.0811"/>
</g>
<!-- Torrent&#45;&gt;Permission -->
<g id="edge4" class="edge"><title>Torrent&#45;&gt;Permission</title>
<path fill="none" stroke="#192df9" d="M354.486,-66.9485C345.291,-58.9033 334.883,-49.7954 325.625,-41.6952"/>
<polygon fill="#192df9" stroke="#192df9" points="354.803,-67.226 359.366,-77.1976 358.566,-70.5185 362.329,-73.811 362.329,-73.811 362.329,-73.811 358.566,-70.5185 365.292,-70.4244 354.803,-67.226 354.803,-67.226"/>
<polygon fill="#192df9" stroke="#192df9" points="325.371,-41.4733 320.809,-31.5016 321.609,-38.1807 317.846,-34.8882 317.846,-34.8882 317.846,-34.8882 321.609,-38.1807 314.882,-38.2748 325.371,-41.4733 325.371,-41.4733"/>
</g>
<!-- User -->
<g id="node7" class="node"><title>User</title>
<ellipse fill="none" stroke="black" cx="326.688" cy="-252.5" rx="27" ry="18"/>
<text text-anchor="middle" x="326.688" y="-248.3" font-family="Times,serif" font-size="14.00">User</text>
</g>
<!-- User&#45;&gt;Feed -->
<g id="edge6" class="edge"><title>User&#45;&gt;Feed</title>
<path fill="none" stroke="#ddeffb" d="M326.688,-226.189C326.688,-214.971 326.688,-201.752 326.688,-190.311"/>
<ellipse fill="none" stroke="#ddeffb" cx="326.688" cy="-230.436" rx="4" ry="4"/>
<polygon fill="#ddeffb" stroke="#ddeffb" points="326.688,-190.011 331.188,-180.011 326.688,-185.011 326.688,-180.011 326.688,-180.011 326.688,-180.011 326.688,-185.011 322.188,-180.011 326.688,-190.011 326.688,-190.011"/>
</g>
<!-- User&#45;&gt;Permission -->
<g id="edge7" class="edge"><title>User&#45;&gt;Permission</title>
<path fill="none" stroke="#7dbb98" d="M311.818,-228.81C303.834,-215.252 294.807,-197.341 290.688,-180 279.76,-133.995 287.17,-78.6102 293.477,-46.2501"/>
<ellipse fill="none" stroke="#7dbb98" cx="314.029" cy="-232.446" rx="4.00002" ry="4.00002"/>
<polygon fill="#7dbb98" stroke="#7dbb98" points="293.528,-45.9998 299.953,-37.113 294.537,-41.1026 295.545,-36.2053 295.545,-36.2053 295.545,-36.2053 294.537,-41.1026 291.138,-35.2977 293.528,-45.9998 293.528,-45.9998"/>
</g>
<!-- User&#45;&gt;Torrent -->
<g id="edge5" class="edge"><title>User&#45;&gt;Torrent</title>
<path fill="none" stroke="#d9f136" d="M340.35,-228.462C347.929,-214.788 356.953,-196.876 362.688,-180 369.552,-159.8 373.915,-136.025 376.5,-118.131"/>
<ellipse fill="none" stroke="#d9f136" cx="338.288" cy="-232.108" rx="4.00002" ry="4.00002"/>
<polygon fill="#d9f136" stroke="#d9f136" points="376.517,-118.001 382.313,-108.692 377.185,-113.046 377.854,-108.091 377.854,-108.091 377.854,-108.091 377.185,-113.046 373.394,-107.489 376.517,-118.001 376.517,-118.001"/>
</g>
</g>
</svg>
