<?xml version="1.0" encoding="UTF-8" standalone="no"?>
<!DOCTYPE svg PUBLIC "-//W3C//DTD SVG 1.1//EN"
 "http://www.w3.org/Graphics/SVG/1.1/DTD/svg11.dtd">
<!-- Generated by graphviz version 2.36.0 (20140111.2315)
 -->
<!-- Title: models_diagram Pages: 1 -->
<svg width="535pt" height="370pt"
 viewBox="0.00 0.00 535.00 370.00" xmlns="http://www.w3.org/2000/svg" xmlns:xlink="http://www.w3.org/1999/xlink">
<g id="graph0" class="graph" transform="scale(1 1) rotate(0) translate(4 366)">
<title>models_diagram</title>
<polygon fill="white" stroke="none" points="-4,4 -4,-366 531,-366 531,4 -4,4"/>
<!-- _diagram_info -->
<g id="node1" class="node"><title>_diagram_info</title>
<text text-anchor="start" x="7.31226" y="-347.1" font-family="Times,serif" font-size="13.00">Models diagram</text>
<text text-anchor="start" x="7.31226" y="-334.1" font-family="Times,serif" font-size="13.00">Date: Apr 14 2014 &#45; 23:04</text>
<text text-anchor="start" x="7.31226" y="-321.1" font-family="Times,serif" font-size="13.00">Migration version: 20140301210457</text>
<text text-anchor="start" x="7.31226" y="-308.1" font-family="Times,serif" font-size="13.00">Generated by RailRoady 1.1.1</text>
<text text-anchor="start" x="7.31226" y="-295.1" font-family="Times,serif" font-size="13.00">http://railroady.prestonlee.com</text>
</g>
<!-- Ability -->
<g id="node2" class="node"><title>Ability</title>
<polygon fill="none" stroke="black" points="285.255,-252 230.745,-252 230.745,-216 285.255,-216 285.255,-252"/>
<text text-anchor="middle" x="258" y="-229.8" font-family="Times,serif" font-size="14.00">Ability</text>
</g>
<!-- Feed -->
<g id="node3" class="node"><title>Feed</title>
<ellipse fill="none" stroke="black" cx="407" cy="-162" rx="26.9483" ry="18"/>
<text text-anchor="middle" x="407" y="-157.8" font-family="Times,serif" font-size="14.00">Feed</text>
</g>
<!-- Permission -->
<g id="node5" class="node"><title>Permission</title>
<ellipse fill="none" stroke="black" cx="373" cy="-18" rx="49.1222" ry="18"/>
<text text-anchor="middle" x="373" y="-13.8" font-family="Times,serif" font-size="14.00">Permission</text>
</g>
<!-- Feed&#45;&gt;Permission -->
<g id="edge3" class="edge"><title>Feed&#45;&gt;Permission</title>
<path fill="none" stroke="#75eda4" d="M401.07,-136.233C395.046,-111.076 385.742,-72.218 379.516,-46.2145"/>
<ellipse fill="none" stroke="#75eda4" cx="402.035" cy="-140.263" rx="4.00001" ry="4.00001"/>
<polygon fill="#75eda4" stroke="#75eda4" points="379.463,-45.9929 381.511,-35.2199 378.299,-41.1304 377.135,-36.2678 377.135,-36.2678 377.135,-36.2678 378.299,-41.1304 372.758,-37.3157 379.463,-45.9929 379.463,-45.9929"/>
</g>
<!-- Torrent -->
<g id="node6" class="node"><title>Torrent</title>
<ellipse fill="none" stroke="black" cx="462" cy="-90" rx="36.0102" ry="18"/>
<text text-anchor="middle" x="462" y="-85.8" font-family="Times,serif" font-size="14.00">Torrent</text>
</g>
<!-- Feed&#45;&gt;Torrent -->
<g id="edge2" class="edge"><title>Feed&#45;&gt;Torrent</title>
<path fill="none" stroke="#129a0d" d="M424.053,-139.296C430.047,-131.667 436.819,-123.049 442.966,-115.226"/>
<ellipse fill="none" stroke="#129a0d" cx="421.405" cy="-142.666" rx="4.00002" ry="4.00002"/>
<polygon fill="#129a0d" stroke="#129a0d" points="443.145,-114.997 452.862,-109.914 446.235,-111.065 449.324,-107.134 449.324,-107.134 449.324,-107.134 446.235,-111.065 445.785,-104.353 443.145,-114.997 443.145,-114.997"/>
</g>
<!-- Peer -->
<g id="node4" class="node"><title>Peer</title>
<ellipse fill="none" stroke="black" cx="500" cy="-18" rx="27" ry="18"/>
<text text-anchor="middle" x="500" y="-13.8" font-family="Times,serif" font-size="14.00">Peer</text>
</g>
<!-- Torrent&#45;&gt;Peer -->
<g id="edge7" class="edge"><title>Torrent&#45;&gt;Peer</title>
<path fill="none" stroke="#1da23d" d="M474.899,-65.2379C478.554,-58.5062 482.545,-51.154 486.248,-44.3333"/>
<ellipse fill="none" stroke="#1da23d" cx="472.914" cy="-68.8956" rx="4.00002" ry="4.00002"/>
<polygon fill="#1da23d" stroke="#1da23d" points="486.288,-44.2585 495.014,-37.6169 488.674,-39.8642 491.059,-35.4699 491.059,-35.4699 491.059,-35.4699 488.674,-39.8642 487.104,-33.323 486.288,-44.2585 486.288,-44.2585"/>
</g>
<!-- Torrent&#45;&gt;Permission -->
<g id="edge8" class="edge"><title>Torrent&#45;&gt;Permission</title>
<path fill="none" stroke="#201c9d" d="M435.48,-68.1416C424.618,-59.5987 412.039,-49.7045 401.026,-41.043"/>
<polygon fill="#201c9d" stroke="#201c9d" points="435.699,-68.3138 440.777,-78.033 439.629,-71.4049 443.559,-74.496 443.559,-74.496 443.559,-74.496 439.629,-71.4049 446.341,-70.9589 435.699,-68.3138 435.699,-68.3138"/>
<polygon fill="#201c9d" stroke="#201c9d" points="400.825,-40.8847 395.747,-31.1655 396.895,-37.7936 392.965,-34.7026 392.965,-34.7026 392.965,-34.7026 396.895,-37.7936 390.183,-38.2396 400.825,-40.8847 400.825,-40.8847"/>
</g>
<!-- User -->
<g id="node7" class="node"><title>User</title>
<ellipse fill="none" stroke="black" cx="445" cy="-234" rx="27" ry="18"/>
<text text-anchor="middle" x="445" y="-229.8" font-family="Times,serif" font-size="14.00">User</text>
</g>
<!-- User&#45;&gt;Feed -->
<g id="edge11" class="edge"><title>User&#45;&gt;Feed</title>
<path fill="none" stroke="#24239c" d="M432.23,-209.476C428.51,-202.623 424.431,-195.11 420.658,-188.16"/>
<ellipse fill="none" stroke="#24239c" cx="434.278" cy="-213.249" rx="4.00002" ry="4.00002"/>
<polygon fill="#24239c" stroke="#24239c" points="420.537,-187.936 419.721,-177 418.151,-183.542 415.766,-179.147 415.766,-179.147 415.766,-179.147 418.151,-183.542 411.811,-181.294 420.537,-187.936 420.537,-187.936"/>
</g>
<!-- User&#45;&gt;Permission -->
<g id="edge12" class="edge"><title>User&#45;&gt;Permission</title>
<path fill="none" stroke="#072643" d="M415.063,-220.064C398.843,-211.312 380.269,-198.04 371,-180 349.098,-137.373 357.429,-79.6311 365.321,-46.1383"/>
<ellipse fill="none" stroke="#072643" cx="418.747" cy="-221.947" rx="4.00002" ry="4.00002"/>
<polygon fill="#072643" stroke="#072643" points="365.39,-45.8639 372.194,-37.2637 366.61,-41.015 367.83,-36.166 367.83,-36.166 367.83,-36.166 366.61,-41.015 363.466,-35.0683 365.39,-45.8639 365.39,-45.8639"/>
</g>
<!-- User&#45;&gt;Torrent -->
<g id="edge10" class="edge"><title>User&#45;&gt;Torrent</title>
<path fill="none" stroke="#1abfc7" d="M448.046,-207.558C451.052,-182.444 455.635,-144.164 458.721,-118.393"/>
<ellipse fill="none" stroke="#1abfc7" cx="447.526" cy="-211.9" rx="4.00001" ry="4.00001"/>
<polygon fill="#1abfc7" stroke="#1abfc7" points="458.753,-118.118 464.41,-108.724 459.348,-113.154 459.942,-108.189 459.942,-108.189 459.942,-108.189 459.348,-113.154 455.474,-107.654 458.753,-118.118 458.753,-118.118"/>
</g>
<!-- Object -->
<g id="node8" class="node"><title>Object</title>
<ellipse fill="none" stroke="black" cx="258" cy="-325" rx="33.5181" ry="18"/>
<text text-anchor="middle" x="258" y="-320.8" font-family="Times,serif" font-size="14.00">Object</text>
</g>
<!-- Object&#45;&gt;Ability -->
<g id="edge1" class="edge"><title>Object&#45;&gt;Ability</title>
<path fill="none" stroke="black" d="M258,-306.84C258,-291.08 258,-267.851 258,-252.107"/>
</g>
<!-- ActiveRecord::Base -->
<g id="node9" class="node"><title>ActiveRecord::Base</title>
<ellipse fill="none" stroke="black" cx="445" cy="-325" rx="80.9821" ry="18"/>
<text text-anchor="middle" x="445" y="-320.8" font-family="Times,serif" font-size="14.00">ActiveRecord::Base</text>
</g>
<!-- ActiveRecord::Base&#45;&gt;Feed -->
<g id="edge4" class="edge"><title>ActiveRecord::Base&#45;&gt;Feed</title>
<path fill="none" stroke="black" d="M433.842,-307.088C425.232,-293.003 413.978,-272.076 409,-252 402.937,-227.548 403.784,-198.153 405.2,-180.022"/>
</g>
<!-- ActiveRecord::Base&#45;&gt;Peer -->
<g id="edge5" class="edge"><title>ActiveRecord::Base&#45;&gt;Peer</title>
<path fill="none" stroke="black" d="M461.306,-307.268C473.5,-293.609 489.336,-273.167 497,-252 524.684,-175.544 510.745,-75.5102 503.478,-36.056"/>
</g>
<!-- ActiveRecord::Base&#45;&gt;Permission -->
<g id="edge6" class="edge"><title>ActiveRecord::Base&#45;&gt;Permission</title>
<path fill="none" stroke="black" d="M429.968,-306.893C408.601,-281.355 370.336,-230.802 355,-180 341.125,-134.04 344.385,-119.229 353,-72 355.259,-59.6159 360.259,-46.3659 364.694,-36.2119"/>
</g>
<!-- ActiveRecord::Base&#45;&gt;Torrent -->
<g id="edge9" class="edge"><title>ActiveRecord::Base&#45;&gt;Torrent</title>
<path fill="none" stroke="black" d="M456.278,-307.117C464.958,-293.049 476.248,-272.13 481,-252 493.157,-200.502 477.212,-137.813 467.883,-108.144"/>
</g>
<!-- ActiveRecord::Base&#45;&gt;User -->
<g id="edge13" class="edge"><title>ActiveRecord::Base&#45;&gt;User</title>
<path fill="none" stroke="black" d="M445,-306.84C445,-291.08 445,-267.851 445,-252.107"/>
</g>
</g>
</svg>
