<?xml version="1.0" encoding="UTF-8" standalone="no"?>
<!DOCTYPE svg PUBLIC "-//W3C//DTD SVG 1.1//EN"
 "http://www.w3.org/Graphics/SVG/1.1/DTD/svg11.dtd">
<!-- Generated by graphviz version 2.30.1 (20130419.0519)
 -->
<!-- Title: models_diagram Pages: 1 -->
<svg width="697pt" height="332pt"
 viewBox="0.00 0.00 697.00 332.00" xmlns="http://www.w3.org/2000/svg" xmlns:xlink="http://www.w3.org/1999/xlink">
<g id="graph0" class="graph" transform="scale(1 1) rotate(0) translate(4 328)">
<title>models_diagram</title>
<polygon fill="white" stroke="white" points="-4,5 -4,-328 694,-328 694,5 -4,5"/>
<!-- _diagram_info -->
<g id="node1" class="node"><title>_diagram_info</title>
<text text-anchor="start" x="337.312" y="-307" font-family="Times,serif" font-size="13.00">Models diagram</text>
<text text-anchor="start" x="337.312" y="-291.4" font-family="Times,serif" font-size="13.00">Date: May 02 2013 &#45; 15:02</text>
<text text-anchor="start" x="337.312" y="-275.8" font-family="Times,serif" font-size="13.00">Migration version: 20130502210253</text>
<text text-anchor="start" x="337.312" y="-260.2" font-family="Times,serif" font-size="13.00">Generated by RailRoady 1.1.0</text>
<text text-anchor="start" x="337.312" y="-244.6" font-family="Times,serif" font-size="13.00">http://railroady.prestonlee.com</text>
</g>
<!-- Ability -->
<g id="node2" class="node"><title>Ability</title>
<polygon fill="none" stroke="black" points="610.255,-299 555.745,-299 555.745,-263 610.255,-263 610.255,-299"/>
<text text-anchor="middle" x="583" y="-275.4" font-family="Times,serif" font-size="14.00">Ability</text>
</g>
<!-- Feed -->
<g id="node3" class="node"><title>Feed</title>
<ellipse fill="none" stroke="black" cx="659" cy="-281" rx="29.216" ry="18"/>
<text text-anchor="middle" x="659" y="-275.4" font-family="Times,serif" font-size="14.00">Feed</text>
</g>
<!-- Torrent -->
<g id="node6" class="node"><title>Torrent</title>
<ellipse fill="none" stroke="black" cx="347" cy="-182" rx="38.9799" ry="18"/>
<text text-anchor="middle" x="347" y="-176.4" font-family="Times,serif" font-size="14.00">Torrent</text>
</g>
<!-- Feed&#45;&gt;Torrent -->
<g id="edge1" class="edge"><title>Feed&#45;&gt;Torrent</title>
<path fill="none" stroke="#b636c9" d="M642.27,-257.54C635.771,-250.272 627.773,-242.846 619,-238 548.332,-198.966 453.636,-187.468 396.647,-184.181"/>
<ellipse fill="none" stroke="#b636c9" cx="645.217" cy="-261.034" rx="4.00002" ry="4.00002"/>
<polygon fill="#b636c9" stroke="#b636c9" points="396.446,-184.171 386.69,-179.164 391.453,-183.915 386.459,-183.659 386.459,-183.659 386.459,-183.659 391.453,-183.915 386.229,-188.153 396.446,-184.171 396.446,-184.171"/>
</g>
<!-- Permission -->
<g id="node5" class="node"><title>Permission</title>
<ellipse fill="none" stroke="black" cx="636" cy="-18" rx="53.4403" ry="18"/>
<text text-anchor="middle" x="636" y="-12.4" font-family="Times,serif" font-size="14.00">Permission</text>
</g>
<!-- Feed&#45;&gt;Permission -->
<g id="edge2" class="edge"><title>Feed&#45;&gt;Permission</title>
<path fill="none" stroke="#a2f80e" d="M666.486,-255.475C677.232,-216.181 693.684,-137.12 674,-74 670.596,-63.0847 664.184,-52.4254 657.584,-43.4415"/>
<ellipse fill="none" stroke="#a2f80e" cx="665.382" cy="-259.387" rx="4.00001" ry="4.00001"/>
<polygon fill="#a2f80e" stroke="#a2f80e" points="657.448,-43.2671 654.836,-32.6168 654.369,-39.3274 651.29,-35.3877 651.29,-35.3877 651.29,-35.3877 654.369,-39.3274 647.745,-38.1587 657.448,-43.2671 657.448,-43.2671"/>
</g>
<!-- Peer -->
<g id="node4" class="node"><title>Peer</title>
<ellipse fill="none" stroke="black" cx="258" cy="-92" rx="28.2939" ry="18"/>
<text text-anchor="middle" x="258" y="-86.4" font-family="Times,serif" font-size="14.00">Peer</text>
</g>
<!-- ActsAsTaggableOn::Tagging -->
<g id="node8" class="node"><title>ActsAsTaggableOn::Tagging</title>
<ellipse fill="none" stroke="black" cx="465" cy="-92" rx="123.097" ry="18"/>
<text text-anchor="middle" x="465" y="-86.4" font-family="Times,serif" font-size="14.00">ActsAsTaggableOn::Tagging</text>
</g>
<!-- Torrent&#45;&gt;ActsAsTaggableOn::Tagging -->
<g id="edge3" class="edge"><title>Torrent&#45;&gt;ActsAsTaggableOn::Tagging</title>
<path fill="none" stroke="#3f3009" d="M341.319,-155.956C340.568,-146.36 341.647,-135.843 347.559,-128 353.403,-120.245 360.898,-114.143 369.267,-109.35"/>
<ellipse fill="none" stroke="#3f3009" cx="341.858" cy="-160.096" rx="4.00001" ry="4.00001"/>
<polygon fill="#3f3009" stroke="#3f3009" points="369.341,-109.313 380.297,-108.835 373.807,-107.064 378.273,-104.816 378.273,-104.816 378.273,-104.816 373.807,-107.064 376.25,-100.796 369.341,-109.313 369.341,-109.313"/>
<text text-anchor="middle" x="371.721" y="-131.4" font-family="Times,serif" font-size="14.00">taggings</text>
</g>
<!-- ActsAsTaggableOn::Tag -->
<g id="node9" class="node"><title>ActsAsTaggableOn::Tag</title>
<ellipse fill="none" stroke="black" cx="106" cy="-92" rx="106.344" ry="18"/>
<text text-anchor="middle" x="106" y="-86.4" font-family="Times,serif" font-size="14.00">ActsAsTaggableOn::Tag</text>
</g>
<!-- Torrent&#45;&gt;ActsAsTaggableOn::Tag -->
<g id="edge4" class="edge"><title>Torrent&#45;&gt;ActsAsTaggableOn::Tag</title>
<path fill="none" stroke="#cd2ba0" d="M297.879,-178.93C240.818,-175.569 151.211,-167.027 125.572,-146 117.719,-139.559 113.017,-129.658 110.201,-120.149"/>
<polygon fill="#cd2ba0" stroke="#cd2ba0" points="298.148,-178.945 307.883,-183.992 303.14,-179.222 308.133,-179.499 308.133,-179.499 308.133,-179.499 303.14,-179.222 308.382,-175.006 298.148,-178.945 298.148,-178.945"/>
<polygon fill="#cd2ba0" stroke="#cd2ba0" points="110.141,-119.896 112.204,-109.126 108.984,-115.031 107.826,-110.167 107.826,-110.167 107.826,-110.167 108.984,-115.031 103.449,-111.209 110.141,-119.896 110.141,-119.896"/>
<text text-anchor="middle" x="153.214" y="-131.4" font-family="Times,serif" font-size="14.00">base_tags</text>
</g>
<!-- Torrent&#45;&gt;ActsAsTaggableOn::Tagging -->
<g id="edge5" class="edge"><title>Torrent&#45;&gt;ActsAsTaggableOn::Tagging</title>
<path fill="none" stroke="#70110d" d="M373.87,-161.585C380.78,-156.544 388.187,-151.097 395,-146 405.522,-138.128 407.992,-135.949 418.455,-128 423.527,-124.147 428.922,-120.071 434.173,-116.114"/>
<ellipse fill="none" stroke="#70110d" cx="370.4" cy="-164.111" rx="4.00002" ry="4.00002"/>
<polygon fill="#70110d" stroke="#70110d" points="434.248,-116.057 444.945,-113.641 438.244,-113.051 442.239,-110.045 442.239,-110.045 442.239,-110.045 438.244,-113.051 439.534,-106.449 434.248,-116.057 434.248,-116.057"/>
<text text-anchor="middle" x="454.772" y="-131.4" font-family="Times,serif" font-size="14.00">tag_taggings</text>
</g>
<!-- Torrent&#45;&gt;ActsAsTaggableOn::Tag -->
<g id="edge6" class="edge"><title>Torrent&#45;&gt;ActsAsTaggableOn::Tag</title>
<path fill="none" stroke="#a4e973" d="M307.522,-166.585C266.788,-151.711 203.042,-128.434 158.173,-112.051"/>
<polygon fill="#a4e973" stroke="#a4e973" points="307.571,-166.603 315.421,-174.26 312.268,-168.318 316.964,-170.033 316.964,-170.033 316.964,-170.033 312.268,-168.318 318.508,-165.806 307.571,-166.603 307.571,-166.603"/>
<polygon fill="#a4e973" stroke="#a4e973" points="158.011,-111.992 150.161,-104.335 153.314,-110.277 148.618,-108.562 148.618,-108.562 148.618,-108.562 153.314,-110.277 147.074,-112.789 158.011,-111.992 158.011,-111.992"/>
<text text-anchor="middle" x="260.276" y="-131.4" font-family="Times,serif" font-size="14.00">tags</text>
</g>
<!-- Torrent&#45;&gt;Peer -->
<g id="edge7" class="edge"><title>Torrent&#45;&gt;Peer</title>
<path fill="none" stroke="#c261f2" d="M318.652,-161.754C312.256,-156.913 305.683,-151.515 300,-146 290.969,-137.236 282.138,-126.52 274.922,-117.022"/>
<ellipse fill="none" stroke="#c261f2" cx="322.249" cy="-164.399" rx="4.00002" ry="4.00002"/>
<polygon fill="#c261f2" stroke="#c261f2" points="274.737,-116.773 272.408,-106.057 271.764,-112.753 268.79,-108.734 268.79,-108.734 268.79,-108.734 271.764,-112.753 265.172,-111.41 274.737,-116.773 274.737,-116.773"/>
</g>
<!-- Torrent&#45;&gt;Permission -->
<g id="edge8" class="edge"><title>Torrent&#45;&gt;Permission</title>
<path fill="none" stroke="#218bf1" d="M333.773,-155.248C323.619,-131.46 314.217,-96.4998 333,-74 362.88,-38.2076 492.698,-25.6565 572.402,-21.2919"/>
<polygon fill="#218bf1" stroke="#218bf1" points="333.79,-155.285 333.847,-166.251 335.865,-159.834 337.941,-164.383 337.941,-164.383 337.941,-164.383 335.865,-159.834 342.035,-162.515 333.79,-155.285 333.79,-155.285"/>
<polygon fill="#218bf1" stroke="#218bf1" points="572.835,-21.2696 583.054,-25.2461 577.828,-21.0109 582.822,-20.7522 582.822,-20.7522 582.822,-20.7522 577.828,-21.0109 582.589,-16.2582 572.835,-21.2696 572.835,-21.2696"/>
</g>
<!-- User -->
<g id="node7" class="node"><title>User</title>
<ellipse fill="none" stroke="black" cx="636" cy="-92" rx="28.9087" ry="18"/>
<text text-anchor="middle" x="636" y="-86.4" font-family="Times,serif" font-size="14.00">User</text>
</g>
<!-- Torrent&#45;&gt;User -->
<g id="edge9" class="edge"><title>Torrent&#45;&gt;User</title>
<path fill="none" stroke="#91cab3" d="M395.608,-176.893C430.211,-172.557 477.1,-163.748 515,-146 526.659,-140.54 526.292,-133.975 537.696,-128 562.095,-115.217 571.153,-119.519 597,-110 599.222,-109.182 601.5,-108.301 603.783,-107.388"/>
<polygon fill="#91cab3" stroke="#91cab3" points="395.22,-176.938 384.764,-173.63 390.253,-177.519 385.287,-178.1 385.287,-178.1 385.287,-178.1 390.253,-177.519 385.81,-182.569 395.22,-176.938 395.22,-176.938"/>
<polygon fill="#91cab3" stroke="#91cab3" points="603.851,-107.36 614.813,-107.672 608.467,-105.439 613.084,-103.517 613.084,-103.517 613.084,-103.517 608.467,-105.439 611.354,-99.3629 603.851,-107.36 603.851,-107.36"/>
<text text-anchor="middle" x="590.652" y="-131.4" font-family="Times,serif" font-size="14.00">managed_by_users</text>
</g>
<!-- User&#45;&gt;Torrent -->
<g id="edge10" class="edge"><title>User&#45;&gt;Torrent</title>
<path fill="none" stroke="#cfe356" d="M606.124,-106.692C603.072,-107.888 599.993,-109.016 597,-110 562.789,-121.244 551.201,-114.054 518,-128 504.36,-133.729 503.593,-140.162 490,-146 459.149,-159.251 422.305,-168.119 393.742,-173.613"/>
<ellipse fill="none" stroke="#cfe356" cx="609.894" cy="-105.14" rx="4.00002" ry="4.00002"/>
<polygon fill="#cfe356" stroke="#cfe356" points="393.454,-173.666 382.802,-171.061 388.537,-174.576 383.62,-175.486 383.62,-175.486 383.62,-175.486 388.537,-174.576 384.439,-179.911 393.454,-173.666 393.454,-173.666"/>
</g>
<!-- User&#45;&gt;Feed -->
<g id="edge11" class="edge"><title>User&#45;&gt;Feed</title>
<path fill="none" stroke="#15e641" d="M642.886,-117.75C643.686,-121.175 644.421,-124.662 645,-128 652.463,-171.021 656.119,-221.629 657.777,-252.236"/>
<ellipse fill="none" stroke="#15e641" cx="641.914" cy="-113.852" rx="4.00001" ry="4.00001"/>
<polygon fill="#15e641" stroke="#15e641" points="657.794,-252.57 653.806,-262.785 658.047,-257.563 658.3,-262.557 658.3,-262.557 658.3,-262.557 658.047,-257.563 662.795,-262.329 657.794,-252.57 657.794,-252.57"/>
</g>
<!-- User&#45;&gt;Permission -->
<g id="edge12" class="edge"><title>User&#45;&gt;Permission</title>
<path fill="none" stroke="#d51a41" d="M636,-65.7923C636,-59.5805 636,-52.8963 636,-46.5786"/>
<ellipse fill="none" stroke="#d51a41" cx="636" cy="-69.937" rx="4" ry="4"/>
<polygon fill="#d51a41" stroke="#d51a41" points="636,-46.4407 640.5,-36.4406 636,-41.4407 636,-36.4407 636,-36.4407 636,-36.4407 636,-41.4407 631.5,-36.4407 636,-46.4407 636,-46.4407"/>
</g>
</g>
</svg>
