<?xml version="1.0" encoding="UTF-8" standalone="no"?>
<!DOCTYPE svg PUBLIC "-//W3C//DTD SVG 1.1//EN"
 "http://www.w3.org/Graphics/SVG/1.1/DTD/svg11.dtd">
<!-- Generated by graphviz version 2.38.0 (20140413.2041)
 -->
<!-- Title: models_diagram Pages: 1 -->
<svg width="686pt" height="1178pt"
 viewBox="0.00 0.00 685.55 1178.00" xmlns="http://www.w3.org/2000/svg" xmlns:xlink="http://www.w3.org/1999/xlink">
<g id="graph0" class="graph" transform="scale(1 1) rotate(0) translate(4 1174)">
<title>models_diagram</title>
<polygon fill="none" stroke="none" points="-4,4 -4,-1174 681.55,-1174 681.55,4 -4,4"/>
<!-- _diagram_info -->
<g id="node1" class="node"><title>_diagram_info</title>
<text text-anchor="start" x="8" y="-1008.6" font-family="Times,serif" font-size="13.00">Models diagram</text>
<text text-anchor="start" x="8" y="-995.6" font-family="Times,serif" font-size="13.00">Date: Sep 22 2016 &#45; 13:50</text>
<text text-anchor="start" x="8" y="-982.6" font-family="Times,serif" font-size="13.00">Migration version: 20150313044915</text>
<text text-anchor="start" x="8" y="-969.6" font-family="Times,serif" font-size="13.00">Generated by RailRoady 1.5.2</text>
<text text-anchor="start" x="8" y="-956.6" font-family="Times,serif" font-size="13.00">http://railroady.prestonlee.com</text>
</g>
<!-- Ability -->
<g id="node2" class="node"><title>Ability</title>
<polygon fill="none" stroke="black" points="225.853,-964.5 225.853,-1008.5 281.522,-1008.5 281.522,-964.5 225.853,-964.5"/>
<text text-anchor="middle" x="253.688" y="-993.3" font-family="Times,serif" font-size="14.00">Ability</text>
<polyline fill="none" stroke="black" points="225.853,-986.5 281.522,-986.5 "/>
<text text-anchor="middle" x="253.688" y="-971.3" font-family="Times,serif" font-size="14.00"> </text>
</g>
<!-- Feed -->
<g id="node3" class="node"><title>Feed</title>
<path fill="none" stroke="black" d="M270.825,-610.5C270.825,-610.5 494.55,-610.5 494.55,-610.5 500.55,-610.5 506.55,-616.5 506.55,-622.5 506.55,-622.5 506.55,-754.5 506.55,-754.5 506.55,-760.5 500.55,-766.5 494.55,-766.5 494.55,-766.5 270.825,-766.5 270.825,-766.5 264.825,-766.5 258.825,-760.5 258.825,-754.5 258.825,-754.5 258.825,-622.5 258.825,-622.5 258.825,-616.5 264.825,-610.5 270.825,-610.5"/>
<text text-anchor="middle" x="382.688" y="-751.3" font-family="Times,serif" font-size="14.00">Feed</text>
<polyline fill="none" stroke="black" points="258.825,-744.5 506.55,-744.5 "/>
<text text-anchor="start" x="266.825" y="-729.3" font-family="Times,serif" font-size="14.00">replication_percentage :integer</text>
<text text-anchor="start" x="266.825" y="-715.3" font-family="Times,serif" font-size="14.00">name :character varying</text>
<text text-anchor="start" x="266.825" y="-701.3" font-family="Times,serif" font-size="14.00">slug :character varying</text>
<text text-anchor="start" x="266.825" y="-687.3" font-family="Times,serif" font-size="14.00">description :text</text>
<text text-anchor="start" x="266.825" y="-673.3" font-family="Times,serif" font-size="14.00">user_id :integer</text>
<text text-anchor="start" x="266.825" y="-659.3" font-family="Times,serif" font-size="14.00">created_at :timestamp without time zone</text>
<text text-anchor="start" x="266.825" y="-645.3" font-family="Times,serif" font-size="14.00">updated_at :timestamp without time zone</text>
<text text-anchor="start" x="266.825" y="-631.3" font-family="Times,serif" font-size="14.00">enable_public_archiving :boolean</text>
<text text-anchor="start" x="266.825" y="-617.3" font-family="Times,serif" font-size="14.00">id :integer</text>
</g>
<!-- Permission -->
<g id="node5" class="node"><title>Permission</title>
<path fill="none" stroke="black" d="M156.825,-105.5C156.825,-105.5 380.55,-105.5 380.55,-105.5 386.55,-105.5 392.55,-111.5 392.55,-117.5 392.55,-117.5 392.55,-207.5 392.55,-207.5 392.55,-213.5 386.55,-219.5 380.55,-219.5 380.55,-219.5 156.825,-219.5 156.825,-219.5 150.825,-219.5 144.825,-213.5 144.825,-207.5 144.825,-207.5 144.825,-117.5 144.825,-117.5 144.825,-111.5 150.825,-105.5 156.825,-105.5"/>
<text text-anchor="middle" x="268.688" y="-204.3" font-family="Times,serif" font-size="14.00">Permission</text>
<polyline fill="none" stroke="black" points="144.825,-197.5 392.55,-197.5 "/>
<text text-anchor="start" x="152.825" y="-182.3" font-family="Times,serif" font-size="14.00">id :integer</text>
<text text-anchor="start" x="152.825" y="-168.3" font-family="Times,serif" font-size="14.00">user_id :integer</text>
<text text-anchor="start" x="152.825" y="-154.3" font-family="Times,serif" font-size="14.00">feed_id :integer</text>
<text text-anchor="start" x="152.825" y="-140.3" font-family="Times,serif" font-size="14.00">role :character varying</text>
<text text-anchor="start" x="152.825" y="-126.3" font-family="Times,serif" font-size="14.00">created_at :timestamp without time zone</text>
<text text-anchor="start" x="152.825" y="-112.3" font-family="Times,serif" font-size="14.00">updated_at :timestamp without time zone</text>
</g>
<!-- Feed&#45;&gt;Permission -->
<g id="edge2" class="edge"><title>Feed&#45;&gt;Permission</title>
<path fill="none" stroke="#2ae665" d="M302.839,-603.408C296.857,-593.982 291.629,-584.115 287.688,-574 243.052,-459.455 249.897,-313.129 259.142,-229.701"/>
<ellipse fill="none" stroke="#2ae665" cx="305.116" cy="-606.854" rx="4.00002" ry="4.00002"/>
<polygon fill="#2ae665" stroke="#2ae665" points="259.161,-229.531 264.778,-220.113 259.734,-224.564 260.307,-219.597 260.307,-219.597 260.307,-219.597 259.734,-224.564 255.837,-219.081 259.161,-229.531 259.161,-229.531"/>
</g>
<!-- Torrent -->
<g id="node6" class="node"><title>Torrent</title>
<path fill="none" stroke="black" d="M308.825,-361.5C308.825,-361.5 532.55,-361.5 532.55,-361.5 538.55,-361.5 544.55,-367.5 544.55,-373.5 544.55,-373.5 544.55,-561.5 544.55,-561.5 544.55,-567.5 538.55,-573.5 532.55,-573.5 532.55,-573.5 308.825,-573.5 308.825,-573.5 302.825,-573.5 296.825,-567.5 296.825,-561.5 296.825,-561.5 296.825,-373.5 296.825,-373.5 296.825,-367.5 302.825,-361.5 308.825,-361.5"/>
<text text-anchor="middle" x="420.688" y="-558.3" font-family="Times,serif" font-size="14.00">Torrent</text>
<polyline fill="none" stroke="black" points="296.825,-551.5 544.55,-551.5 "/>
<text text-anchor="start" x="304.825" y="-536.3" font-family="Times,serif" font-size="14.00">file_created_by :character varying</text>
<text text-anchor="start" x="304.825" y="-522.3" font-family="Times,serif" font-size="14.00">name :character varying</text>
<text text-anchor="start" x="304.825" y="-508.3" font-family="Times,serif" font-size="14.00">slug :character varying</text>
<text text-anchor="start" x="304.825" y="-494.3" font-family="Times,serif" font-size="14.00">created_at :timestamp without time zone</text>
<text text-anchor="start" x="304.825" y="-480.3" font-family="Times,serif" font-size="14.00">updated_at :timestamp without time zone</text>
<text text-anchor="start" x="304.825" y="-466.3" font-family="Times,serif" font-size="14.00">user_id :integer</text>
<text text-anchor="start" x="304.825" y="-452.3" font-family="Times,serif" font-size="14.00">size :bigint</text>
<text text-anchor="start" x="304.825" y="-438.3" font-family="Times,serif" font-size="14.00">info_hash :character varying</text>
<text text-anchor="start" x="304.825" y="-424.3" font-family="Times,serif" font-size="14.00">data :bytea</text>
<text text-anchor="start" x="304.825" y="-410.3" font-family="Times,serif" font-size="14.00">feed_id :integer</text>
<text text-anchor="start" x="304.825" y="-396.3" font-family="Times,serif" font-size="14.00">pieces :integer</text>
<text text-anchor="start" x="304.825" y="-382.3" font-family="Times,serif" font-size="14.00">piece_length :integer</text>
<text text-anchor="start" x="304.825" y="-368.3" font-family="Times,serif" font-size="14.00">id :integer</text>
</g>
<!-- Feed&#45;&gt;Torrent -->
<g id="edge1" class="edge"><title>Feed&#45;&gt;Torrent</title>
<path fill="none" stroke="#417d96" d="M397.493,-602.176C398.528,-596.21 399.581,-590.144 400.638,-584.052"/>
<ellipse fill="none" stroke="#417d96" cx="396.769" cy="-606.348" rx="4.00001" ry="4.00001"/>
<polygon fill="#417d96" stroke="#417d96" points="400.708,-583.643 406.852,-574.56 401.563,-578.717 402.418,-573.79 402.418,-573.79 402.418,-573.79 401.563,-578.717 397.984,-573.021 400.708,-583.643 400.708,-583.643"/>
</g>
<!-- Peer -->
<g id="node4" class="node"><title>Peer</title>
<path fill="none" stroke="black" d="M441.825,-0.5C441.825,-0.5 665.55,-0.5 665.55,-0.5 671.55,-0.5 677.55,-6.5 677.55,-12.5 677.55,-12.5 677.55,-312.5 677.55,-312.5 677.55,-318.5 671.55,-324.5 665.55,-324.5 665.55,-324.5 441.825,-324.5 441.825,-324.5 435.825,-324.5 429.825,-318.5 429.825,-312.5 429.825,-312.5 429.825,-12.5 429.825,-12.5 429.825,-6.5 435.825,-0.5 441.825,-0.5"/>
<text text-anchor="middle" x="553.688" y="-309.3" font-family="Times,serif" font-size="14.00">Peer</text>
<polyline fill="none" stroke="black" points="429.825,-302.5 677.55,-302.5 "/>
<text text-anchor="start" x="437.825" y="-287.3" font-family="Times,serif" font-size="14.00">torrent_id :integer</text>
<text text-anchor="start" x="437.825" y="-273.3" font-family="Times,serif" font-size="14.00">peer_id :character varying</text>
<text text-anchor="start" x="437.825" y="-259.3" font-family="Times,serif" font-size="14.00">ip :character varying</text>
<text text-anchor="start" x="437.825" y="-245.3" font-family="Times,serif" font-size="14.00">port :integer</text>
<text text-anchor="start" x="437.825" y="-231.3" font-family="Times,serif" font-size="14.00">uploaded :integer</text>
<text text-anchor="start" x="437.825" y="-217.3" font-family="Times,serif" font-size="14.00">downloaded :integer</text>
<text text-anchor="start" x="437.825" y="-203.3" font-family="Times,serif" font-size="14.00">left :integer</text>
<text text-anchor="start" x="437.825" y="-189.3" font-family="Times,serif" font-size="14.00">state :character varying</text>
<text text-anchor="start" x="437.825" y="-175.3" font-family="Times,serif" font-size="14.00">created_at :timestamp without time zone</text>
<text text-anchor="start" x="437.825" y="-161.3" font-family="Times,serif" font-size="14.00">updated_at :timestamp without time zone</text>
<text text-anchor="start" x="437.825" y="-147.3" font-family="Times,serif" font-size="14.00">latitude :double precision</text>
<text text-anchor="start" x="437.825" y="-133.3" font-family="Times,serif" font-size="14.00">longitude :double precision</text>
<text text-anchor="start" x="437.825" y="-119.3" font-family="Times,serif" font-size="14.00">country_name :character varying</text>
<text text-anchor="start" x="437.825" y="-105.3" font-family="Times,serif" font-size="14.00">city_name :character varying</text>
<text text-anchor="start" x="437.825" y="-91.3" font-family="Times,serif" font-size="14.00">user_id :integer</text>
<text text-anchor="start" x="437.825" y="-77.3" font-family="Times,serif" font-size="14.00">volunteer_enabled :boolean</text>
<text text-anchor="start" x="437.825" y="-63.3" font-family="Times,serif" font-size="14.00">volunteer_disk_maximum_bytes :bigint</text>
<text text-anchor="start" x="437.825" y="-49.3" font-family="Times,serif" font-size="14.00">volunteer_disk_used_bytes :bigint</text>
<text text-anchor="start" x="437.825" y="-35.3" font-family="Times,serif" font-size="14.00">volunteer_affinity_offset :integer</text>
<text text-anchor="start" x="437.825" y="-21.3" font-family="Times,serif" font-size="14.00">volunteer_affinity_length :integer</text>
<text text-anchor="start" x="437.825" y="-7.3" font-family="Times,serif" font-size="14.00">id :integer</text>
</g>
<!-- Torrent&#45;&gt;Peer -->
<g id="edge3" class="edge"><title>Torrent&#45;&gt;Peer</title>
<path fill="none" stroke="#28a5b5" d="M470.054,-354.035C472.969,-347.392 475.932,-340.643 478.917,-333.842"/>
<ellipse fill="none" stroke="#28a5b5" cx="468.439" cy="-357.713" rx="4.00002" ry="4.00002"/>
<polygon fill="#28a5b5" stroke="#28a5b5" points="478.981,-333.697 487.12,-326.349 480.99,-329.119 483,-324.541 483,-324.541 483,-324.541 480.99,-329.119 478.879,-322.732 478.981,-333.697 478.981,-333.697"/>
</g>
<!-- Torrent&#45;&gt;Permission -->
<g id="edge4" class="edge"><title>Torrent&#45;&gt;Permission</title>
<path fill="none" stroke="#6f7772" d="M363.429,-352.36C342.423,-310.485 319.379,-264.548 301.278,-228.465"/>
<polygon fill="#6f7772" stroke="#6f7772" points="363.468,-352.437 363.93,-363.393 365.71,-356.906 367.952,-361.376 367.952,-361.376 367.952,-361.376 365.71,-356.906 371.974,-359.358 363.468,-352.437 363.468,-352.437"/>
<polygon fill="#6f7772" stroke="#6f7772" points="301.27,-228.451 300.809,-217.494 299.028,-223.981 296.786,-219.512 296.786,-219.512 296.786,-219.512 299.028,-223.981 292.764,-221.53 301.27,-228.451 301.27,-228.451"/>
</g>
<!-- User -->
<g id="node7" class="node"><title>User</title>
<path fill="none" stroke="black" d="M311.053,-803.5C311.053,-803.5 606.323,-803.5 606.323,-803.5 612.323,-803.5 618.323,-809.5 618.323,-815.5 618.323,-815.5 618.323,-1157.5 618.323,-1157.5 618.323,-1163.5 612.323,-1169.5 606.323,-1169.5 606.323,-1169.5 311.053,-1169.5 311.053,-1169.5 305.053,-1169.5 299.053,-1163.5 299.053,-1157.5 299.053,-1157.5 299.053,-815.5 299.053,-815.5 299.053,-809.5 305.053,-803.5 311.053,-803.5"/>
<text text-anchor="middle" x="458.688" y="-1154.3" font-family="Times,serif" font-size="14.00">User</text>
<polyline fill="none" stroke="black" points="299.053,-1147.5 618.323,-1147.5 "/>
<text text-anchor="start" x="307.053" y="-1132.3" font-family="Times,serif" font-size="14.00">approved :boolean</text>
<text text-anchor="start" x="307.053" y="-1118.3" font-family="Times,serif" font-size="14.00">email :character varying</text>
<text text-anchor="start" x="307.053" y="-1104.3" font-family="Times,serif" font-size="14.00">encrypted_password :character varying</text>
<text text-anchor="start" x="307.053" y="-1090.3" font-family="Times,serif" font-size="14.00">reset_password_token :character varying</text>
<text text-anchor="start" x="307.053" y="-1076.3" font-family="Times,serif" font-size="14.00">reset_password_sent_at :timestamp without time zone</text>
<text text-anchor="start" x="307.053" y="-1062.3" font-family="Times,serif" font-size="14.00">remember_created_at :timestamp without time zone</text>
<text text-anchor="start" x="307.053" y="-1048.3" font-family="Times,serif" font-size="14.00">sign_in_count :integer</text>
<text text-anchor="start" x="307.053" y="-1034.3" font-family="Times,serif" font-size="14.00">current_sign_in_at :timestamp without time zone</text>
<text text-anchor="start" x="307.053" y="-1020.3" font-family="Times,serif" font-size="14.00">last_sign_in_at :timestamp without time zone</text>
<text text-anchor="start" x="307.053" y="-1006.3" font-family="Times,serif" font-size="14.00">current_sign_in_ip :character varying</text>
<text text-anchor="start" x="307.053" y="-992.3" font-family="Times,serif" font-size="14.00">last_sign_in_ip :character varying</text>
<text text-anchor="start" x="307.053" y="-978.3" font-family="Times,serif" font-size="14.00">confirmation_token :character varying</text>
<text text-anchor="start" x="307.053" y="-964.3" font-family="Times,serif" font-size="14.00">confirmed_at :timestamp without time zone</text>
<text text-anchor="start" x="307.053" y="-950.3" font-family="Times,serif" font-size="14.00">confirmation_sent_at :timestamp without time zone</text>
<text text-anchor="start" x="307.053" y="-936.3" font-family="Times,serif" font-size="14.00">unconfirmed_email :character varying</text>
<text text-anchor="start" x="307.053" y="-922.3" font-family="Times,serif" font-size="14.00">failed_attempts :integer</text>
<text text-anchor="start" x="307.053" y="-908.3" font-family="Times,serif" font-size="14.00">unlock_token :character varying</text>
<text text-anchor="start" x="307.053" y="-894.3" font-family="Times,serif" font-size="14.00">locked_at :timestamp without time zone</text>
<text text-anchor="start" x="307.053" y="-880.3" font-family="Times,serif" font-size="14.00">created_at :timestamp without time zone</text>
<text text-anchor="start" x="307.053" y="-866.3" font-family="Times,serif" font-size="14.00">updated_at :timestamp without time zone</text>
<text text-anchor="start" x="307.053" y="-852.3" font-family="Times,serif" font-size="14.00">admin :boolean</text>
<text text-anchor="start" x="307.053" y="-838.3" font-family="Times,serif" font-size="14.00">name :character varying</text>
<text text-anchor="start" x="307.053" y="-824.3" font-family="Times,serif" font-size="14.00">authentication_token :character varying</text>
<text text-anchor="start" x="307.053" y="-810.3" font-family="Times,serif" font-size="14.00">id :integer</text>
</g>
<!-- User&#45;&gt;Feed -->
<g id="edge6" class="edge"><title>User&#45;&gt;Feed</title>
<path fill="none" stroke="#1b587f" d="M409.818,-795.165C408.203,-788.875 406.616,-782.695 405.071,-776.679"/>
<ellipse fill="none" stroke="#1b587f" cx="410.859" cy="-799.22" rx="4.00001" ry="4.00001"/>
<polygon fill="#1b587f" stroke="#1b587f" points="405,-776.401 406.872,-765.596 403.757,-771.558 402.513,-766.715 402.513,-766.715 402.513,-766.715 403.757,-771.558 398.155,-767.834 405,-776.401 405,-776.401"/>
</g>
<!-- User&#45;&gt;Peer -->
<g id="edge8" class="edge"><title>User&#45;&gt;Peer</title>
<path fill="none" stroke="#93af06" d="M528.668,-795.712C531.25,-786.063 533.614,-776.455 535.688,-767 567.113,-623.718 569.56,-456.747 565.32,-334.801"/>
<ellipse fill="none" stroke="#93af06" cx="527.606" cy="-799.599" rx="4.00001" ry="4.00001"/>
<polygon fill="#93af06" stroke="#93af06" points="565.313,-334.618 569.444,-324.46 565.13,-329.621 564.947,-324.625 564.947,-324.625 564.947,-324.625 565.13,-329.621 560.45,-324.79 565.313,-334.618 565.313,-334.618"/>
</g>
<!-- User&#45;&gt;Permission -->
<g id="edge7" class="edge"><title>User&#45;&gt;Permission</title>
<path fill="none" stroke="#9fee9f" d="M293.291,-805.549C292.422,-804.696 291.554,-803.846 290.688,-803 273.34,-786.055 259.803,-789.039 249.688,-767 167.152,-587.179 216.652,-344.452 248.355,-229.334"/>
<ellipse fill="none" stroke="#9fee9f" cx="296.193" cy="-808.414" rx="4.00002" ry="4.00002"/>
<polygon fill="#9fee9f" stroke="#9fee9f" points="248.385,-229.229 255.412,-220.81 249.732,-224.413 251.078,-219.598 251.078,-219.598 251.078,-219.598 249.732,-224.413 246.745,-218.386 248.385,-229.229 248.385,-229.229"/>
</g>
<!-- User&#45;&gt;Torrent -->
<g id="edge5" class="edge"><title>User&#45;&gt;Torrent</title>
<path fill="none" stroke="#6801c3" d="M520.126,-795.068C530.884,-735.034 533.659,-669.009 515.688,-610 512.905,-600.862 509.313,-591.778 505.16,-582.88"/>
<ellipse fill="none" stroke="#6801c3" cx="519.361" cy="-799.184" rx="4.00001" ry="4.00001"/>
<polygon fill="#6801c3" stroke="#6801c3" points="505.049,-582.655 504.678,-571.695 502.845,-578.168 500.64,-573.68 500.64,-573.68 500.64,-573.68 502.845,-578.168 496.601,-575.664 505.049,-582.655 505.049,-582.655"/>
</g>
</g>
</svg>
