<?xml version="1.0" encoding="utf-8" standalone="no"?>
<!DOCTYPE svg PUBLIC "-//W3C//DTD SVG 1.1//EN" "http://www.w3.org/Graphics/SVG/1.1/DTD/svg11.dtd">
<svg xmlns="http://www.w3.org/2000/svg" xmlns:xl="http://www.w3.org/1999/xlink" version="1.1" viewBox="0 0 1024 1024" width="1024pt" height="1024pt" xmlns:dc="http://purl.org/dc/elements/1.1/"><metadata> Produced by OmniGraffle 6.1.1 <dc:date>2015-01-06 16:39:34 +0000</dc:date></metadata><defs/><g stroke="none" stroke-opacity="1" stroke-dasharray="none" fill="none" fill-opacity="1"><title>icon</title><g><title>Layer 1</title><path d="M 880.75 24 L 1003 24 L 1003 1002 L 880.75 1002 M 147.25 1002 L 25 1002 L 25 24 L 147.25 24" stroke="white" stroke-linecap="round" stroke-linejoin="round" stroke-width="4"/><circle cx="360.00448" cy="201.33127" r="100.62555" fill="white"/><circle cx="360.00448" cy="201.33127" r="100.62555" stroke="white" stroke-linecap="round" stroke-linejoin="round" stroke-width="1"/><line x1="457.36484" y1="226.82047" x2="651.82655" y2="277.73104" stroke="white" stroke-linecap="round" stroke-linejoin="round" stroke-width="10"/><circle cx="446.2548" cy="520.45752" r="140.87577" fill="white"/><circle cx="446.2548" cy="520.45752" r="140.87577" stroke="white" stroke-linecap="round" stroke-linejoin="round" stroke-width="1"/><line x1="549.38243" y1="424.48326" x2="662.32128" y2="319.37832" stroke="white" stroke-linecap="round" stroke-linejoin="round" stroke-width="10"/><line x1="574.47058" y1="578.91604" x2="780.88573" y2="673.0287" stroke="white" stroke-linecap="round" stroke-linejoin="round" stroke-width="10"/><circle cx="486.50497" cy="839.58376" r="100.62555" fill="white"/><circle cx="486.50497" cy="839.58376" r="100.62555" stroke="white" stroke-linecap="round" stroke-linejoin="round" stroke-width="1"/><line x1="578.56363" y1="798.8883" x2="780.67494" y2="709.54296" stroke="white" stroke-linecap="round" stroke-linejoin="round" stroke-width="10"/><circle cx="694.9433" cy="289.01912" r="44.562745" fill="white"/><circle cx="694.9433" cy="289.01912" r="44.562745" stroke="white" stroke-linecap="round" stroke-linejoin="round" stroke-width="1"/><circle cx="821.44377" cy="691.5207" r="44.562745" fill="white"/><circle cx="821.44377" cy="691.5207" r="44.562745" stroke="white" stroke-linecap="round" stroke-linejoin="round" stroke-width="1"/><line x1="386.26298" y1="298.48774" x2="409.4929" y2="384.43846" stroke="white" stroke-linecap="round" stroke-linejoin="round" stroke-width="10"/><line x1="463.88407" y1="660.2323" x2="473.91265" y2="739.7446" stroke="white" stroke-linecap="round" stroke-linejoin="round" stroke-width="10"/></g></g></svg>
